<?xml version="1.0" encoding="UTF-8" standalone="no"?>
<!-- Created with Inkscape (http://www.inkscape.org/) -->

<svg
   xmlns:osb="http://www.openswatchbook.org/uri/2009/osb"
   xmlns:dc="http://purl.org/dc/elements/1.1/"
   xmlns:cc="http://creativecommons.org/ns#"
   xmlns:rdf="http://www.w3.org/1999/02/22-rdf-syntax-ns#"
   xmlns:svg="http://www.w3.org/2000/svg"
   xmlns="http://www.w3.org/2000/svg"
   xmlns:sodipodi="http://sodipodi.sourceforge.net/DTD/sodipodi-0.dtd"
   xmlns:inkscape="http://www.inkscape.org/namespaces/inkscape"
   width="210mm"
   height="297mm"
   viewBox="0 0 210 297"
   version="1.1"
   id="svg8"
   inkscape:version="0.92.3 (2405546, 2018-03-11)"
   sodipodi:docname="player.svg"
   inkscape:export-filename="/home/lauren/Documents/Dev/sailor-game/media/player.png"
   inkscape:export-xdpi="96"
   inkscape:export-ydpi="96">
  <defs
     id="defs2">
    <linearGradient
       id="linearGradient2435"
       osb:paint="solid">
      <stop
         style="stop-color:#3200ff;stop-opacity:1;"
         offset="0"
         id="stop2433" />
    </linearGradient>
    <linearGradient
       id="linearGradient2325"
       osb:paint="solid">
      <stop
         style="stop-color:#6d2029;stop-opacity:1;"
         offset="0"
         id="stop2323" />
    </linearGradient>
  </defs>
  <sodipodi:namedview
     id="base"
     pagecolor="#ffffff"
     bordercolor="#666666"
     borderopacity="1.0"
     inkscape:pageopacity="0.0"
     inkscape:pageshadow="2"
     inkscape:zoom="0.49497475"
     inkscape:cx="907.68112"
     inkscape:cy="484.5943"
     inkscape:document-units="mm"
     inkscape:current-layer="layer1"
     showgrid="false"
     inkscape:window-width="1916"
     inkscape:window-height="1041"
     inkscape:window-x="0"
     inkscape:window-y="18"
     inkscape:window-maximized="0" />
  <metadata
     id="metadata5">
    <rdf:RDF>
      <cc:Work
         rdf:about="">
        <dc:format>image/svg+xml</dc:format>
        <dc:type
           rdf:resource="http://purl.org/dc/dcmitype/StillImage" />
        <dc:title />
      </cc:Work>
    </rdf:RDF>
  </metadata>
  <g
     inkscape:label="Layer 1"
     inkscape:groupmode="layer"
     id="layer1">
    <g
       id="g870"
       inkscape:export-xdpi="96"
       inkscape:export-ydpi="96"
       transform="rotate(90,100.33269,124.19557)">
      <path
         inkscape:connector-curvature="0"
         id="path815"
         d="m 105.56823,14.465787 c -11.904149,0.03889 -67.161176,85.2581 -66.541673,100.560883 -5.950281,22.61297 -4.377674,106.00223 2.698544,114.02822 7.8828,8.94084 109.866359,4.36015 117.755599,-3.99148 6.76834,-7.16504 7.63541,-83.50617 2.61121,-110.42845 -0.1416,-18.430034 -45.32793,-98.828974 -56.24153,-100.153153 -0.0911,-0.01105 -0.18526,-0.01634 -0.28215,-0.01602 z"
         style="opacity:1;fill:#6d2029;fill-opacity:1;stroke:none;stroke-width:0.98361182;stroke-miterlimit:4;stroke-dasharray:none;stroke-dashoffset:0;stroke-opacity:1" />
      <path
         id="path815-3"
         d="m 106.3574,38.952447 c -8.926288,0.03233 -50.360576,70.867773 -49.896043,83.587663 -4.461797,18.79619 -3.282583,88.11052 2.023493,94.78184 5.91089,7.43175 82.3829,3.62422 88.29862,-3.31778 5.07522,-5.95568 5.72539,-69.4115 1.95801,-91.78965 -0.10618,-15.31932 -33.989,-82.148083 -42.17251,-83.248758 -0.0683,-0.0092 -0.13892,-0.01357 -0.21157,-0.01332 z"
         style="opacity:1;fill:#ad7f5f;fill-opacity:1;stroke:none;stroke-width:0.77654451;stroke-miterlimit:4;stroke-dasharray:none;stroke-dashoffset:0;stroke-opacity:1"
         inkscape:connector-curvature="0" />
      <path
         inkscape:connector-curvature="0"
         d="m 95.794122,71.313081 c 4.527558,0.04554 9.055408,0.0371 13.583138,0.04153 0,0 -3.67993,2.255067 -3.67993,2.255067 v 0 c -4.57291,0.0044 -9.14593,-0.0036 -13.718671,0.04153 0,0 3.815463,-2.338121 3.815463,-2.338121 z"
         id="path2367"
         style="opacity:1;fill:#ad7f5f;fill-opacity:1;stroke:none;stroke-width:1;stroke-miterlimit:4;stroke-dasharray:none;stroke-dashoffset:0;stroke-opacity:1" />
      <path
         inkscape:connector-curvature="0"
         d="m 92.682482,69.043636 c 5.822648,0.04337 11.645598,0.047 17.468398,0.05789 4.11308,0.01077 8.22615,0.0038 12.33921,-0.0073 0,0 -3.65561,2.240166 -3.65561,2.240166 v 0 c -4.1051,-0.01117 -8.21019,-0.01807 -12.3153,-0.0073 -5.88578,0.01095 -11.771712,0.01484 -17.65735,0.05789 0,0 3.820652,-2.341298 3.820652,-2.341298 z"
         id="path2377"
         style="opacity:1;fill:#6d2029;fill-opacity:1;stroke:none;stroke-width:1;stroke-miterlimit:4;stroke-dasharray:none;stroke-dashoffset:0;stroke-opacity:1" />
      <path
         inkscape:connector-curvature="0"
         d="m 86.49373,94.001189 c 4.494167,0.03887 1.84789,0.01635 7.938844,0.06661 0,0 -3.566959,2.185836 -3.566959,2.185836 v 0 c -6.256173,0.05026 -3.537434,0.02775 -8.156226,0.06661 0,0 3.784341,-2.319049 3.784341,-2.319049 z"
         id="path2379"
         style="opacity:1;fill:#6d2029;fill-opacity:1;stroke:none;stroke-width:1;stroke-miterlimit:4;stroke-dasharray:none;stroke-dashoffset:0;stroke-opacity:1" />
      <path
         inkscape:connector-curvature="0"
         d="m 115.62455,97.01864 c 6.05045,0.03875 12.10099,0.04987 18.15156,0.04975 4.07455,-0.04699 8.26777,0.328443 12.2262,-0.922782 0.71399,-0.22569 1.36893,-0.607383 2.0534,-0.911072 0,0 -3.64445,2.437911 -3.64445,2.437911 v 0 c -0.69531,0.276344 -1.36711,0.621398 -2.08593,0.829035 -3.9698,1.146704 -8.12689,0.743865 -12.19196,0.799181 -6.10468,-1.24e-4 -12.20934,0.01138 -18.31391,0.04975 0,0 3.80509,-2.331763 3.80509,-2.331763 z"
         id="path2381"
         style="opacity:1;fill:#6d2029;fill-opacity:1;stroke:none;stroke-width:1;stroke-miterlimit:4;stroke-dasharray:none;stroke-dashoffset:0;stroke-opacity:1" />
      <path
         inkscape:connector-curvature="0"
         d="m 66.092794,118.52805 c 0.430477,0.12024 0.851882,0.2797 1.291431,0.36071 2.173981,0.40069 5.124027,0.60777 7.196315,0.73689 6.583095,0.41016 13.142992,0.43007 19.735154,0.36488 5.054648,-0.15179 10.136076,-0.25561 15.174656,-0.73847 4.37838,-0.41959 8.75185,-1.11747 13.11036,-1.70567 3.57284,-0.48012 7.08101,-1.38398 10.66269,-1.808 1.37312,-0.16256 3.36938,-0.27086 4.749,-0.35865 3.17145,-0.12627 1.62686,-0.0726 4.63368,-0.16329 0,0 -3.73526,2.30404 -3.73526,2.30404 v 0 c -2.98886,0.0849 -1.45063,0.0296 -4.61452,0.17022 -5.15087,0.35038 -10.20708,1.25226 -15.29179,2.12555 -4.36057,0.5745 -8.73163,1.2727 -13.1124,1.67277 -5.00032,0.45665 -10.039486,0.51633 -15.054202,0.6369 -6.63548,0.051 -13.251648,0.0372 -19.880514,-0.31708 -2.229652,-0.11914 -5.128331,-0.28171 -7.42393,-0.70376 -0.463767,-0.0853 -0.906876,-0.25881 -1.360311,-0.38821 0,0 3.919641,-2.18883 3.919641,-2.18883 z"
         id="path2383"
         style="opacity:1;fill:#6d2029;fill-opacity:1;stroke:none;stroke-width:1;stroke-miterlimit:4;stroke-dasharray:none;stroke-dashoffset:0;stroke-opacity:1" />
      <path
         inkscape:connector-curvature="0"
         d="m 65.335707,134.47168 c 5.005631,-1.31491 10.225128,-1.41421 15.367008,-1.63377 7.965279,-0.0635 15.902641,-0.5417 23.795245,-1.61133 5.83114,-0.95719 11.70819,-1.35101 17.60633,-1.5407 1.06288,-0.0219 2.12571,-0.0465 3.18865,-0.0658 3.52953,-0.0641 2.36419,0.0592 5.90241,-0.35418 1.28875,-0.15057 5.20618,-0.71142 6.40172,-0.76617 1.24164,-0.0569 2.48566,0.0333 3.72849,0.0499 4.42811,0.29488 2.30723,0.11342 6.3642,0.52566 0,0 -3.72388,2.22967 -3.72388,2.22967 v 0 c -4.00695,-0.41965 -1.9091,-0.23935 -6.29543,-0.51856 -1.23965,0.001 -2.48123,-0.065 -3.71894,0.004 -0.92523,0.0518 -5.37277,0.65979 -6.42908,0.77599 -3.47278,0.38202 -2.46611,0.25669 -5.90899,0.3191 -1.06299,0.0193 -2.12579,0.048 -3.18869,0.072 -5.88506,0.20975 -11.74828,0.64849 -17.57067,1.56815 -7.900926,1.02072 -15.843242,1.44483 -23.807708,1.57492 -5.172578,0.2398 -10.450356,0.35321 -15.447187,1.84909 0,0 3.736522,-2.47837 3.736522,-2.47837 z"
         id="path2385"
         style="opacity:1;fill:#6d2029;fill-opacity:1;stroke:none;stroke-width:1;stroke-miterlimit:4;stroke-dasharray:none;stroke-dashoffset:0;stroke-opacity:1" />
      <path
         inkscape:connector-curvature="0"
         d="m 82.085936,84.807233 c 0.548626,-0.03428 1.099441,-0.04312 1.645883,-0.102856 2.782847,-0.304192 5.536181,-0.773817 8.33235,-0.992405 0.672947,-0.05261 9.471471,-0.571405 9.663241,-0.58279 8.39283,-0.319066 16.59573,-2.21462 24.88439,-3.401874 0.7978,-0.106453 1.59561,-0.212903 2.39341,-0.319353 0,0 -3.69986,2.334033 -3.69986,2.334033 v 0 c -0.78581,0.100764 -1.57161,0.20153 -2.35742,0.302297 -8.24884,1.162531 -16.42092,2.981441 -24.771216,3.291163 -1.896174,0.122793 -7.658777,0.482578 -9.763668,0.66617 -2.827893,0.246655 -5.618987,0.713703 -8.435342,1.042083 -0.560327,0.06533 -1.123995,0.09786 -1.685994,0.146785 0,0 3.794226,-2.383253 3.794226,-2.383253 z"
         id="path2387"
         style="opacity:1;fill:#6d2029;fill-opacity:1;stroke:none;stroke-width:1;stroke-miterlimit:4;stroke-dasharray:none;stroke-dashoffset:0;stroke-opacity:1" />
      <path
         inkscape:connector-curvature="0"
         d="m 68.931165,107.60515 c 6.154642,0.0541 12.309567,0.0387 18.464352,0.0318 3.974939,-0.004 7.949859,0.003 11.924792,-0.005 0,0 -3.706162,2.27114 -3.706162,2.27114 v 0 c -3.9699,-0.008 -7.939791,-5.3e-4 -11.909697,-0.005 -6.189337,-0.007 -12.378804,-0.0218 -18.568003,0.0318 0,0 3.794718,-2.32541 3.794718,-2.32541 z"
         id="path2389"
         style="opacity:1;fill:#6d2029;fill-opacity:1;stroke:none;stroke-width:1;stroke-miterlimit:4;stroke-dasharray:none;stroke-dashoffset:0;stroke-opacity:1" />
      <path
         inkscape:connector-curvature="0"
         d="m 103.26582,50.144828 c 4.24715,0.156553 8.49347,0.412752 12.74229,0.579628 0.57902,0.0545 1.15804,0.108995 1.73706,0.163491 0,0 -3.78981,2.273808 -3.78981,2.273808 v 0 c -0.56664,-0.0532 -1.13328,-0.10641 -1.69992,-0.159618 -4.26829,-0.196771 -8.53852,-0.457549 -12.810277,-0.516012 0,0 3.820657,-2.341297 3.820657,-2.341297 z"
         id="path2391"
         style="opacity:1;fill:#6d2029;fill-opacity:1;stroke:none;stroke-width:1;stroke-miterlimit:4;stroke-dasharray:none;stroke-dashoffset:0;stroke-opacity:1" />
      <path
         inkscape:connector-curvature="0"
         d="m 61.524774,156.43955 c 12.814622,-1.2096 25.677187,-1.58922 38.539646,-1.81709 9.07899,0.24415 18.10212,1.34412 27.12174,2.33305 3.33562,0.53458 6.67788,0.29598 10.02538,0.0903 0.44058,-0.0294 0.88115,-0.0588 1.32171,-0.0882 0,0 -3.77694,2.34751 -3.77694,2.34751 v 0 c -0.4364,0.0262 -0.8728,0.0523 -1.3092,0.0785 -3.34656,0.19409 -6.67907,0.38439 -10.00785,-0.19111 -8.9152,-1.09086 -17.8466,-2.20489 -26.834372,-2.44187 -12.958202,0.21643 -25.937361,0.5393 -38.819399,2.07675 0,0 3.739285,-2.38787 3.739285,-2.38787 z"
         id="path2393"
         style="opacity:1;fill:#6d2029;fill-opacity:1;stroke:none;stroke-width:1;stroke-miterlimit:4;stroke-dasharray:none;stroke-dashoffset:0;stroke-opacity:1" />
      <path
         inkscape:connector-curvature="0"
         d="m 66.606954,149.85107 c 1.937554,-0.77493 3.833537,-1.6632 5.81266,-2.32479 0.825196,-0.27585 5.051891,-0.8357 5.695005,-0.91425 3.240196,-0.3958 6.490404,-0.6381 9.746618,-0.84755 8.428902,-0.0718 16.857833,0.17545 25.285953,0.29264 8.27984,0.11109 16.56029,0.14798 24.84073,0.18224 0,0 -3.49806,2.14272 -3.49806,2.14272 v 0 c -8.32274,0.003 -16.64666,0.0333 -24.96846,-0.11051 -8.44208,-0.13439 -16.887755,-0.38735 -25.330487,-0.22471 -4.300286,0.28749 -8.612145,0.60168 -12.862697,1.34737 -0.873136,0.15318 -2.19111,1.3201 -2.604821,0.53609 -0.398004,-0.75425 1.458585,-0.88415 2.187877,-1.32622 0,0 -4.304318,1.24697 -4.304318,1.24697 z"
         id="path2395"
         style="opacity:1;fill:#6d2029;fill-opacity:1;stroke:none;stroke-width:1;stroke-miterlimit:4;stroke-dasharray:none;stroke-dashoffset:0;stroke-opacity:1" />
      <path
         inkscape:connector-curvature="0"
         d="m 136.68788,164.35913 c -7.69573,-0.0598 -15.39186,-0.0529 -23.08779,-0.0656 -8.05226,0.49071 -16.022107,1.78977 -24.052169,2.52586 -3.740335,0.35111 -7.49345,0.53596 -11.249385,0.57625 -4.289758,-0.0127 -8.579442,-0.0286 -12.86924,-0.0241 0,0 3.717232,-2.27722 3.717232,-2.27722 v 0 c 4.312012,0.0164 8.624173,0.0232 12.93604,-0.0242 3.716398,-0.0557 7.430857,-0.20344 11.133391,-0.54494 7.996951,-0.73594 15.942041,-1.98047 23.964631,-2.42575 7.76733,-0.0128 15.53487,-0.006 23.30201,-0.0656 0,0 -3.79472,2.32541 -3.79472,2.32541 z"
         id="path2397"
         style="opacity:1;fill:#6d2029;fill-opacity:1;stroke:none;stroke-width:1;stroke-miterlimit:4;stroke-dasharray:none;stroke-dashoffset:0;stroke-opacity:1" />
      <path
         inkscape:connector-curvature="0"
         d="m 63.376002,180.17181 c 5.882055,-0.7301 11.797258,-0.99615 17.716384,-1.18986 7.833952,-0.24891 15.67181,-0.25524 23.508734,-0.27645 3.91998,-0.0174 7.84,-0.0179 11.76,-0.0313 0,0 -3.73764,2.29005 -3.73764,2.29005 v 0 c -3.88713,-0.0191 -7.77427,-0.0234 -11.66144,-0.0276 -7.832163,0.0143 -15.665478,0.0522 -23.494764,0.28414 -5.983213,0.22088 -11.954581,0.56842 -17.901552,1.28594 0,0 3.810278,-2.33494 3.810278,-2.33494 z"
         id="path2399"
         style="opacity:1;fill:#6d2029;fill-opacity:1;stroke:none;stroke-width:1;stroke-miterlimit:4;stroke-dasharray:none;stroke-dashoffset:0;stroke-opacity:1" />
      <path
         inkscape:connector-curvature="0"
         d="m 128.38791,174.12419 c 5.65911,0.092 11.31329,0.39582 16.97025,0.58273 2.82009,-0.0434 1.48601,0.002 4.00272,-0.12125 0,0 -3.75641,2.3233 -3.75641,2.3233 v 0 c -2.49462,0.0834 -1.17061,0.0576 -3.97232,0.0631 -5.68256,-0.21612 -11.36664,-0.55704 -17.05452,-0.51293 0,0 3.81028,-2.33494 3.81028,-2.33494 z"
         id="path2401"
         style="opacity:1;fill:#6d2029;fill-opacity:1;stroke:none;stroke-width:1;stroke-miterlimit:4;stroke-dasharray:none;stroke-dashoffset:0;stroke-opacity:1" />
      <path
         inkscape:connector-curvature="0"
         d="m 140.64331,193.0885 c -6.14025,-0.0361 -12.28059,-0.0563 -18.42094,-0.0519 -6.65999,0.0122 -13.31999,0.004 -19.97997,0.0241 -0.85713,0.0329 -1.71427,0.0657 -2.571399,0.0986 0,0 3.711629,-2.29247 3.711629,-2.29247 v 0 c 0.85805,-0.0274 1.71609,-0.0548 2.57414,-0.0823 6.63373,0.0199 13.26749,0.0118 19.90123,0.0241 6.19684,0.004 12.39366,-0.0163 18.5904,-0.0519 0,0 -3.80509,2.33177 -3.80509,2.33177 z"
         id="path2403"
         style="opacity:1;fill:#6d2029;fill-opacity:1;stroke:none;stroke-width:1;stroke-miterlimit:4;stroke-dasharray:none;stroke-dashoffset:0;stroke-opacity:1" />
      <path
         inkscape:connector-curvature="0"
         d="m 79.431101,191.78843 c -9.341635,0.92276 -18.731661,1.28594 -28.107243,1.70086 -3.30876,0.13524 -6.619488,0.20847 -9.929973,0.28447 0,0 3.705032,-2.28043 3.705032,-2.28043 v 0 c 3.280481,-0.0529 6.560917,-0.11455 9.839639,-0.23969 9.429856,-0.36082 18.88858,-0.67933 28.257762,-1.85895 0,0 -3.765217,2.39374 -3.765217,2.39374 z"
         id="path2405"
         style="opacity:1;fill:#6d2029;fill-opacity:1;stroke:none;stroke-width:1;stroke-miterlimit:4;stroke-dasharray:none;stroke-dashoffset:0;stroke-opacity:1" />
      <path
         inkscape:connector-curvature="0"
         d="m 77.651265,208.89641 c 6.413529,-0.0446 12.838623,0.28469 19.250795,0.1044 2.114404,-0.0594 4.23993,-0.0842 6.3343,-0.38062 1.80393,-0.25529 3.54437,-0.84548 5.31656,-1.26823 4.4305,-1.63888 5.56209,-2.09791 3.44289,-1.2519 0,0 4.13758,-1.18935 4.13758,-1.18935 v 0 c -8.26325,3.85286 -4.52869,2.38315 -11.08504,4.69951 -1.76785,0.39238 -3.50797,0.94229 -5.303554,1.17713 -2.091116,0.2735 -4.209314,0.28626 -6.317483,0.34279 -6.525794,0.17496 -13.06437,-0.0785 -19.591512,0.10439 0,0 3.815464,-2.33812 3.815464,-2.33812 z"
         id="path2407"
         style="opacity:1;fill:#6d2029;fill-opacity:1;stroke:none;stroke-width:1;stroke-miterlimit:4;stroke-dasharray:none;stroke-dashoffset:0;stroke-opacity:1" />
      <path
         inkscape:connector-curvature="0"
         d="m 122.27464,135.03212 c 0.52817,0.0845 1.06369,0.13151 1.5845,0.25336 2.0842,0.48763 4.10365,1.26413 6.19921,1.72208 2.16908,0.47401 3.39665,0.57142 5.64075,0.85184 3.48842,0.46279 6.99838,0.71426 10.50622,0.96999 0,0 -3.67705,2.21619 -3.67705,2.21619 v 0 c -3.52138,-0.26342 -7.04509,-0.51889 -10.54889,-0.97016 -2.29503,-0.28947 -3.50255,-0.38428 -5.7204,-0.87341 -2.62699,-0.57936 -5.1575,-1.61549 -7.84417,-1.90815 0,0 3.85983,-2.26174 3.85983,-2.26174 z"
         id="path2409"
         style="opacity:1;fill:#6d2029;fill-opacity:1;stroke:none;stroke-width:1;stroke-miterlimit:4;stroke-dasharray:none;stroke-dashoffset:0;stroke-opacity:1" />
      <path
         inkscape:connector-curvature="0"
         d="m 75.287433,143.29145 c -7.915873,0.55918 -15.82732,1.17222 -23.73644,1.81996 -5.328158,0.36084 -10.637216,0.95063 -15.95338,1.4521 0,0 3.718729,-2.32563 3.718729,-2.32563 v 0 c 5.275374,-0.46452 10.543204,-1.02132 15.828195,-1.36886 7.970737,-0.64198 15.943649,-1.25649 23.912528,-1.9201 0,0 -3.769632,2.34253 -3.769632,2.34253 z"
         id="path2411"
         style="opacity:1;fill:#6d2029;fill-opacity:1;stroke:none;stroke-width:1;stroke-miterlimit:4;stroke-dasharray:none;stroke-dashoffset:0;stroke-opacity:1" />
      <path
         inkscape:connector-curvature="0"
         d="m 116.34036,113.22838 c 5.06268,-1.37271 10.29709,-1.81505 15.49568,-2.33844 5.06034,-1.1802 10.09293,-2.36783 15.25305,-3.01708 3.15405,-0.35267 6.31583,-0.53901 9.48612,-0.63483 0,0 -3.69904,2.28226 -3.69904,2.28226 v 0 c -3.15894,0.0966 -6.31082,0.27636 -9.45017,0.66402 -5.15192,0.71244 -10.18217,1.92815 -15.26438,3.00863 -5.22127,0.53136 -10.49002,0.9906 -15.54607,2.48623 0,0 3.72481,-2.45079 3.72481,-2.45079 z"
         id="path2413"
         style="opacity:1;fill:#6d2029;fill-opacity:1;stroke:none;stroke-width:1;stroke-miterlimit:4;stroke-dasharray:none;stroke-dashoffset:0;stroke-opacity:1" />
      <path
         inkscape:connector-curvature="0"
         d="m 135.10365,199.82499 c 4.14339,0.0356 8.28707,0.0275 12.43057,0.0169 3.47307,0.002 6.94611,0.0184 10.41918,0.0245 0,0 -3.68048,2.2554 -3.68048,2.2554 v 0 c -3.49971,0.006 -6.99938,0.0223 -10.49909,0.0245 -4.16186,-0.0108 -8.32389,-0.0184 -12.48565,0.0169 0,0 3.81547,-2.33812 3.81547,-2.33812 z"
         id="path2415"
         style="opacity:1;fill:#6d2029;fill-opacity:1;stroke:none;stroke-width:1;stroke-miterlimit:4;stroke-dasharray:none;stroke-dashoffset:0;stroke-opacity:1" />
      <path
         inkscape:connector-curvature="0"
         d="m 89.414209,201.40715 c -0.559168,-0.005 -1.12027,-0.0607 -1.677504,-0.014 -1.996559,0.16737 -3.962241,0.60019 -5.949254,0.85717 -1.389441,0.17971 -2.78715,0.2939 -4.174434,0.48958 -0.472599,0.0667 -8.502991,1.39723 -8.939244,1.46936 -6.124197,1.21106 -12.344617,1.72063 -18.56077,2.1687 0,0 3.674132,-2.28694 3.674132,-2.28694 v 0 c 6.183881,-0.41898 12.36065,-0.97896 18.455578,-2.15008 4.392354,-0.72645 8.77171,-1.39291 13.181902,-1.99314 0.844769,-0.11498 4.963922,-0.77124 6.08189,-0.86479 0.572407,-0.0479 1.148778,-0.009 1.723167,-0.014 0,0 -3.815463,2.33812 -3.815463,2.33812 z"
         id="path2417"
         style="opacity:1;fill:#6d2029;fill-opacity:1;stroke:none;stroke-width:1;stroke-miterlimit:4;stroke-dasharray:none;stroke-dashoffset:0;stroke-opacity:1" />
      <path
         inkscape:connector-curvature="0"
         d="m 119.9846,215.69999 c 10.50015,-0.54942 20.88023,-2.59477 31.13969,-4.81625 8.29252,-1.83524 4.23505,-0.96019 12.17115,-2.63093 0,0 -3.48235,2.23426 -3.48235,2.23426 v 0 c -7.89511,1.64821 -3.85509,0.78356 -12.11874,2.60007 -10.39549,2.23199 -20.89905,4.28039 -31.52522,4.95097 0,0 3.81547,-2.33812 3.81547,-2.33812 z"
         id="path2419"
         style="opacity:1;fill:#6d2029;fill-opacity:1;stroke:none;stroke-width:1;stroke-miterlimit:4;stroke-dasharray:none;stroke-dashoffset:0;stroke-opacity:1" />
      <path
         inkscape:connector-curvature="0"
         d="m 122.51595,92.484516 c 7.19273,0.515265 14.08009,-1.111602 20.996,-2.852468 0,0 -3.61299,2.336681 -3.61299,2.336681 v 0 c -3.87334,0.945663 -7.76489,1.920182 -11.72335,2.449356 -3.35963,0.449123 -4.07297,0.356579 -7.26595,0.377622 -0.73122,0.0048 -1.46241,0.01159 -2.19361,0.01738 0,0 3.7999,-2.328585 3.7999,-2.328585 z"
         id="path2421"
         style="opacity:1;fill:#6d2029;fill-opacity:1;stroke:none;stroke-width:1;stroke-miterlimit:4;stroke-dasharray:none;stroke-dashoffset:0;stroke-opacity:1" />
      <path
         transform="matrix(1.533085,0,0,0.48004399,-10.560991,75.322973)"
         inkscape:transform-center-y="-0.19962531"
         inkscape:transform-center-x="-0.81337323"
         d="m 100.44955,106.69748 c 1.70138,1.92664 -0.776363,49.71173 -2.490292,51.60572 -1.713929,1.894 -46.295439,1.30553 -48.19594,-0.39985 -1.900502,-1.70539 -2.743309,-48.71618 -0.867155,-50.36071 1.876154,-1.64452 49.852015,-2.7718 51.553387,-0.84516 z"
         inkscape:randomized="0.05"
         inkscape:rounded="0.05"
         inkscape:flatsided="true"
         sodipodi:arg2="0.0057499889"
         sodipodi:arg1="-0.77964817"
         sodipodi:r2="25.093105"
         sodipodi:r1="35.487015"
         sodipodi:cy="132.58035"
         sodipodi:cx="74.083328"
         sodipodi:sides="4"
         id="path2474"
         style="opacity:1;fill:#6d2029;fill-opacity:1;fill-rule:evenodd;stroke:none;stroke-width:1;stroke-miterlimit:4;stroke-dasharray:none;stroke-dashoffset:0;stroke-opacity:1"
         sodipodi:type="star" />
    </g>
    <g
       id="g1274"
       inkscape:export-xdpi="96"
       inkscape:export-ydpi="96"
       transform="rotate(90,65.064941,156.83738)">
      <path
         inkscape:connector-curvature="0"
         d="m 139.03108,136.63989 c 2.32201,-0.96358 4.72568,-1.31798 7.12212,-1.60038 0.4186,-0.0835 0.83943,-0.14587 1.25581,-0.25067 1.13696,-0.28612 0.95522,-0.35834 2.0099,-0.6088 1.07873,-0.25617 2.17307,-0.30407 3.26232,-0.37672 2.28879,-0.11813 4.57895,-0.12386 6.8688,-0.13149 2.91858,0.0266 5.83718,0.0455 8.75581,0.0434 2.61225,-0.0117 5.22348,0.0729 7.83047,-0.20112 2.33619,-0.34225 4.69248,-0.0917 7.03138,-0.28583 0.5497,-0.0456 1.09526,-0.16694 1.6429,-0.25041 2.94847,-0.77433 5.90496,-1.39681 8.88372,-1.84865 3.27218,-0.33641 6.50603,-1.1703 9.75584,-1.78679 0.23656,-0.0283 1.94657,-0.25414 2.27553,-0.21858 0.33225,0.036 1.87534,0.54622 2.17957,0.69133 0.0274,0.0132 2.065,1.24833 2.08649,1.26135 1.30756,0.74005 2.58032,1.61576 3.97119,1.93463 1.37828,0.17128 2.76284,0.12737 4.14445,0.13016 1.66958,-0.0273 3.33977,0.0531 5.00724,-0.0835 1.69075,0.0462 3.3042,-0.5585 4.94026,-1.06921 1.44263,-0.45454 2.91066,-0.67003 4.37924,-0.86137 1.02745,-0.13222 2.05955,-0.15724 3.08987,-0.21146 0,0 -3.47185,3.14276 -3.47185,3.14276 v 0 c -1.01921,0.0342 -2.03848,0.085 -3.05416,0.22165 -1.4668,0.1986 -2.92722,0.48521 -4.3689,0.93559 -1.63587,0.50802 -3.26166,0.98246 -4.94621,0.96112 -1.6828,0.0974 -3.36697,0.0675 -5.05082,0.0908 -1.40009,0.0103 -2.80687,3.9e-4 -4.20035,-0.20783 -1.37921,-0.41888 -2.635,-1.36408 -3.94501,-2.10006 -0.3528,-0.21023 -1.67241,-1.01284 -2.05537,-1.17828 -1.43119,-0.61829 -2.87903,-0.61415 -4.34635,-0.32466 -3.24925,0.61966 -6.48781,1.38418 -9.75584,1.77113 -2.97085,0.47854 -5.92012,1.12873 -8.87046,1.82754 -2.91073,0.35479 -5.83651,0.23133 -8.74919,0.58361 -2.59065,0.20308 -5.18328,0.10257 -7.77666,0.10888 -2.94109,-0.007 -5.88219,0.003 -8.82327,0.0176 -2.27823,-0.007 -4.55767,-0.007 -6.8342,0.13706 -0.93181,0.0832 -1.40274,0.10302 -2.31463,0.26664 -0.98854,0.17743 -1.95233,0.53403 -2.93598,0.75123 -0.42016,0.0927 -0.84351,0.15126 -1.26526,0.22689 -2.40856,0.29379 -4.83561,0.68574 -7.14112,1.80695 0,0 3.41272,-3.31454 3.41272,-3.31454 z"
         id="path1229"
         style="opacity:1;fill:#000000;fill-opacity:1;fill-rule:evenodd;stroke:#000000;stroke-width:1.21138871;stroke-miterlimit:4;stroke-dasharray:none;stroke-dashoffset:0;stroke-opacity:1" />
      <path
         inkscape:connector-curvature="0"
         d="m 204.65049,128.80473 c 0.71657,-0.89137 1.73218,-1.41714 2.70085,-1.98353 1.83868,-1.32037 3.9032,-2.12594 5.96031,-3.08881 0.0857,-0.0296 0.16781,-0.0729 0.25705,-0.089 0.61621,-0.11076 1.25536,-0.16163 1.87129,-0.291 0.31672,-0.0665 1.46118,-0.40143 1.7824,-0.49377 -0.51668,0.44227 2.23045,-0.80557 1.69085,-0.55833 -0.97586,0.44714 -1.95266,0.89264 -2.93873,1.31677 -0.24975,0.10742 0.48296,-0.25008 0.72878,-0.36623 3.63555,-1.71778 2.95903,-1.41243 4.84868,-2.25411 1.13843,-0.42661 3.32393,-1.25738 -2.62736,1.21971 -0.19311,0.0804 0.35841,-0.21585 0.53449,-0.32874 0.55322,-0.3547 1.0929,-0.7332 1.63895,-1.09886 0.43305,-0.29849 0.84395,-0.6273 1.24063,-0.97219 0.14145,-0.12299 0.25212,-0.29194 0.42149,-0.37223 1.33715,-0.63382 2.69392,-1.22539 4.04088,-1.83809 0.76497,-0.11791 1.53913,-0.10436 2.31022,-0.0991 1.30917,0.0201 2.61851,0.0125 3.92774,0.0215 0.86283,0.002 1.72564,-0.005 2.58843,-0.0122 0.50005,-0.0299 0.97076,0.0117 1.4583,0.13023 0.49427,0.11539 0.98465,0.24626 1.47463,0.3784 0,0 -3.55581,2.05075 -3.55581,2.05075 v 0 c -0.47804,-0.13206 -0.95666,-0.26406 -1.44549,-0.35139 -0.48551,-0.0513 -0.96524,-0.0535 -1.45253,-0.0506 -0.8465,-0.008 -1.693,-0.0177 -2.53955,-0.0186 -1.31736,0.003 -2.63475,-0.0167 -3.95212,-0.005 -0.75502,0.007 -1.52282,0.005 -2.25646,0.20638 1.11488,-0.54298 2.22976,-1.08597 3.34463,-1.62895 -0.0714,0.0444 -0.14785,0.0815 -0.2143,0.13308 -0.51086,0.39617 -0.945,0.89686 -1.49525,1.24633 -2.22414,1.4828 -4.08712,2.81231 -6.83069,3.66827 -1.3732,0.61986 -1.62072,0.73458 2.43852,-1.15087 0.24492,-0.11377 -0.48677,0.23402 -0.73043,0.35046 -2.03952,0.9746 -3.86529,2.09608 -6.03928,2.59108 -1.30562,0.35634 -2.65415,0.54731 -3.93627,0.96417 6.772,-3.1906 2.6964,-1.45161 1.39067,-0.37403 -0.95666,0.54213 -1.9902,1.01293 -2.73438,1.84167 0,0 -3.90114,1.30678 -3.90114,1.30678 z"
         id="path1231"
         style="opacity:1;fill:#000000;fill-opacity:1;fill-rule:evenodd;stroke:#000000;stroke-width:1;stroke-miterlimit:4;stroke-dasharray:none;stroke-dashoffset:0;stroke-opacity:1" />
      <path
         inkscape:connector-curvature="0"
         d="m 238.51311,118.5479 c 0.0306,1.15354 -0.2233,2.27931 -0.5367,3.38085 -0.24735,1.42961 -0.57339,2.81459 -1.15169,4.14874 -0.36261,0.66561 -0.53854,1.37693 -0.52456,2.13166 0.12103,0.72673 0.20516,1.45417 0.26628,2.18859 0.10625,1.02305 -0.0216,2.03524 -0.1215,3.05245 -0.0617,0.67095 -0.0323,0.35546 -0.0879,0.94649 0,0 -3.81089,1.52918 -3.81089,1.52918 v 0 c 0.0765,-0.59446 0.0372,-0.27738 0.11656,-0.95138 0.0935,-0.99015 0.214,-1.98006 0.11695,-2.97542 -0.0476,-0.74038 -0.14414,-1.4706 -0.26612,-2.2021 -0.0523,-0.79959 0.0472,-1.61751 0.46347,-2.31822 0.65304,-1.31778 1.01743,-2.62369 1.17919,-4.08868 0.2956,-1.06895 0.64561,-2.14208 0.5569,-3.26814 0,0 3.80003,-1.57402 3.80003,-1.57402 z"
         id="path1233"
         style="opacity:1;fill:#000000;fill-opacity:1;fill-rule:evenodd;stroke:#000000;stroke-width:1;stroke-miterlimit:4;stroke-dasharray:none;stroke-dashoffset:0;stroke-opacity:1" />
      <path
         inkscape:connector-curvature="0"
         d="m 233.38275,133.72844 c -2.50885,1.64775 -5.25182,2.65667 -8.20787,2.72112 -1.55225,-0.0463 -3.1051,-0.0729 -4.65729,-0.12089 -1.76655,-0.0848 -1.17301,0.24428 3.42033,-2.17812 0.12928,-0.0682 1.45824,0.0106 1.54925,0.0114 1.19912,0.0144 2.39826,-0.0153 3.59733,-0.008 0.61195,0.0657 1.2553,-0.0858 1.86407,0.001 0.1885,0.027 0.61171,0.20106 0.79478,0.27178 0.67259,0.25365 1.39706,0.37772 2.1112,0.45263 0.32117,0.0432 0.60864,0.0523 0.91498,-0.0439 0.52503,-0.15862 1.07728,-0.12927 1.61275,-0.21234 1.18808,-0.18431 4.1522,-1.76654 -2.9241,1.39938 0,0 3.94592,-1.14534 3.94592,-1.14534 v 0 c -1.35208,0.61886 -2.68891,1.2722 -4.05625,1.85657 -0.45552,0.19468 -1.52643,0.10021 -2.05846,0.31555 -0.33071,0.0186 -0.65202,-0.003 -0.97962,-0.062 -0.72582,-0.11775 -1.45315,-0.26744 -2.14137,-0.53105 -0.83989,-0.25708 -1.71408,-0.1377 -2.58207,-0.15915 -1.18794,0.005 -2.3759,-0.0276 -3.5639,-0.0111 -0.92069,0.0112 -0.53639,0.004 -1.30792,0.0216 -0.0952,0.002 -0.3626,0.0626 -0.28547,0.007 2.87995,-2.08271 2.01554,-2.23502 3.60304,-2.11794 1.53527,0.0905 3.07421,0.12824 4.61202,0.1108 0.76492,-0.0361 1.49476,-0.11502 2.24394,-0.28724 0.30087,-0.0692 1.16197,-0.39104 0.89603,-0.23425 -1.79761,1.0598 -4.19436,1.87266 -2.31056,1.21289 0,0 3.90924,-1.27019 3.90924,-1.27019 z"
         id="path1235"
         style="opacity:1;fill:#000000;fill-opacity:1;fill-rule:evenodd;stroke:#000000;stroke-width:1;stroke-miterlimit:4;stroke-dasharray:none;stroke-dashoffset:0;stroke-opacity:1" />
      <path
         inkscape:connector-curvature="0"
         d="m 230.34236,136.84972 c -1.3203,-0.45406 -2.69157,-0.67589 -4.07374,-0.82966 -0.45142,-0.0528 -0.90433,-0.0769 -1.35811,-0.094 0,0 3.50703,-2.12568 3.50703,-2.12568 v 0 c 0.45356,0.0269 0.9049,0.0645 1.35482,0.1311 1.41167,0.19033 2.81216,0.44589 4.16301,0.91178 0,0 -3.59301,2.00643 -3.59301,2.00643 z"
         id="path1237"
         style="opacity:1;fill:#000000;fill-opacity:1;fill-rule:evenodd;stroke:#000000;stroke-width:1;stroke-miterlimit:4;stroke-dasharray:none;stroke-dashoffset:0;stroke-opacity:1" />
      <path
         transform="scale(0.26458333)"
         inkscape:connector-curvature="0"
         id="path1239"
         d="m 795.87842,493.16581 c -9.39394,-5.06794 -11.84806,-6.96398 -9.93145,-7.67298 1.40011,-0.51794 4.91813,-2.55171 7.81783,-4.5195 2.8997,-1.96779 8.65457,-4.38225 12.78859,-5.36547 8.30037,-1.97412 34.38173,-13.73 41.1441,-18.54523 3.89488,-2.7734 5.80139,-3.02149 19.86781,-2.58529 8.55772,0.26537 15.9455,0.87015 16.41728,1.34395 1.0721,1.07671 -2.7051,17.63925 -5.60625,24.58268 -1.19001,2.84811 -2.16366,6.69928 -2.16366,8.55815 0,3.09694 -1.25359,3.69855 -14.97932,7.18875 -12.56788,3.19577 -18.02987,3.80391 -33.92857,3.77759 l -18.94925,-0.0314 z"
         style="opacity:1;fill:#000000;fill-opacity:1;fill-rule:evenodd;stroke:#000000;stroke-width:5.39932537;stroke-miterlimit:4;stroke-dasharray:none;stroke-dashoffset:0;stroke-opacity:1" />
      <path
         inkscape:connector-curvature="0"
         d="m 239.96063,119.0345 c 1.19437,0.62219 1.9338,1.68668 2.75036,2.71085 0.58581,0.68715 0.64939,1.62639 0.70328,2.48963 0.078,1.26651 -0.0148,2.51883 -0.2077,3.76952 -0.0557,0.2876 -0.11121,0.57523 -0.16704,0.8628 -0.17407,0.89648 -0.14397,0.93205 -0.4584,1.78462 -0.23915,0.64842 -0.567,1.2655 -0.83507,1.90237 -0.43495,0.96427 -0.39647,2.09066 -0.93755,3.00173 -0.5931,0.46141 -1.04892,1.05564 -1.53451,1.62157 -0.0359,0.0369 -0.0717,0.0739 -0.10754,0.1108 0,0 -3.95839,1.21114 -3.95839,1.21114 v 0 c 0.0447,-0.0197 0.0893,-0.0394 0.13398,-0.0591 0.37162,-0.27495 0.67475,-0.69493 0.96301,-1.05457 0.0964,-0.12031 0.16245,-0.26755 0.27785,-0.36982 0.0912,-0.0809 0.21745,-0.11033 0.32617,-0.1655 0.0985,-0.0699 0.22811,-0.10946 0.29542,-0.20973 0.0769,-0.11463 0.0761,-0.26543 0.11287,-0.39851 0.20906,-0.75755 0.33506,-1.53548 0.60458,-2.27324 0.35348,-0.91376 0.91446,-1.75925 1.17566,-2.70772 0.0825,-0.29961 0.11169,-0.61141 0.17021,-0.9166 0.0537,-0.28025 0.11106,-0.5598 0.16659,-0.8397 0.15823,-1.22427 0.30687,-2.44219 0.20116,-3.67989 -0.0395,-0.78777 -0.076,-1.62918 -0.59914,-2.26535 -0.76936,-1.02014 -1.50639,-2.01464 -2.6892,-2.59343 0,0 3.6134,-1.93188 3.6134,-1.93188 z"
         id="path1241"
         style="opacity:1;fill:#000000;fill-opacity:1;fill-rule:evenodd;stroke:#000000;stroke-width:1;stroke-miterlimit:4;stroke-dasharray:none;stroke-dashoffset:0;stroke-opacity:1" />
      <path
         inkscape:connector-curvature="0"
         d="m 235.74833,137.862 c -0.0411,0.11617 -0.0488,0.17265 -0.14408,0.2687 -0.0439,0.0443 -0.0944,0.0848 -0.15169,0.10952 -0.37329,0.16085 -0.74759,0.32298 -1.1353,0.44504 -0.045,0.0142 -0.40824,-0.0305 -0.46045,-0.0363 -0.0615,-0.01 -0.12526,-0.009 -0.18436,-0.0285 -0.18399,-0.0603 -0.35952,-0.21029 -0.50876,-0.32546 -0.14478,-0.11173 -0.2948,-0.21652 -0.44191,-0.32518 -0.35423,-0.235 -0.67754,-0.54543 -1.07736,-0.70602 -0.21736,-0.0873 -0.44648,-0.14188 -0.66906,-0.21485 -0.42138,-0.14215 -0.85358,-0.25119 -1.27207,-0.40198 -0.0104,-0.0252 -0.0566,-0.009 -0.0718,-0.0304 -0.21167,-0.29487 0.61528,-0.39181 0.94999,-0.53225 0.0409,-0.0171 0.0887,7.9e-4 0.133,0.003 0.0745,0.004 0.1489,0.0112 0.22334,0.0168 0.4038,0.0379 0.81496,0.0251 1.21627,0.0906 0.0664,0.0109 0.34818,0.0868 0.41695,0.10489 0.23607,0.0599 0.44907,0.18176 0.67065,0.27965 0.0767,0.0339 0.15634,0.0615 0.23061,0.10045 0.13534,0.0709 0.26049,0.15991 0.39319,0.23569 0.33668,0.18754 0.70943,0.3272 1.09224,0.37991 0.39094,0.032 0.78455,0.0442 1.1761,0.0191 0.082,-0.008 0.27973,-0.0203 0.36302,-0.0502 0.0481,-0.0173 0.18022,-0.096 0.13291,-0.0766 -1.12903,0.46281 -0.9443,0.47573 -0.55042,0.15531 0.34887,-0.21956 0.69908,-0.44137 1.01592,-0.70618 0,0 0.97562,-0.30994 0.97562,-0.30994 v 0 c -0.30415,0.27891 -0.66537,0.50253 -1.02057,0.70836 -0.48186,0.44282 -1.11804,0.78396 -1.77744,0.81312 -0.39735,0.0169 -0.79626,0.01 -1.19181,-0.0349 -0.38765,-0.0711 -0.76166,-0.22243 -1.1044,-0.41529 -0.12907,-0.0748 -0.25281,-0.15919 -0.38537,-0.22764 -0.28545,-0.14739 -0.5924,-0.26673 -0.89786,-0.36333 -0.10045,-0.0257 -0.30054,-0.0795 -0.40304,-0.0956 -0.40231,-0.063 -0.81233,-0.0582 -1.21761,-0.0834 -0.0766,-0.002 -0.15323,-0.006 -0.22988,-0.006 -0.0463,-7e-5 -0.17801,0.0302 -0.13888,0.005 0.27575,-0.17466 0.58468,-0.29232 0.86246,-0.46373 0.0577,-0.0356 -0.0977,-0.0752 0.0338,-0.0233 0.40395,0.1617 0.82415,0.27829 1.23643,0.41611 0.084,0.0264 0.58673,0.18066 0.68767,0.22412 0.39926,0.1719 0.71696,0.49266 1.08253,0.71953 0.12895,0.0911 0.32255,0.22675 0.45397,0.32354 0.20194,0.14873 0.40471,0.29087 0.66447,0.30408 0.0713,0.006 0.14246,0.0161 0.21403,0.0188 0.0778,0.003 0.29354,-0.0521 0.23359,-0.002 -0.20396,0.16912 -0.46613,0.25222 -0.6953,0.3852 -0.0303,0.0176 0.17028,-0.0354 0.26817,-0.18416 0.0226,-0.0344 0.0273,-0.0777 0.041,-0.11661 0,0 0.96153,-0.36728 0.96153,-0.36728 z"
         id="path1243"
         style="opacity:1;fill:#000000;fill-opacity:1;fill-rule:evenodd;stroke:#000000;stroke-width:1;stroke-miterlimit:4;stroke-dasharray:none;stroke-dashoffset:0;stroke-opacity:1" />
      <path
         inkscape:connector-curvature="0"
         d="m 239.80655,117.7138 c 0.26183,0.0885 0.53258,0.14978 0.76006,0.31674 0.0503,0.0369 0.0923,0.084 0.13851,0.12593 0.16595,0.16372 0.34557,0.33234 0.41653,0.5599 0.0163,0.1484 0.16067,0.21085 0.28563,0.26188 0.0133,0.0113 0.0303,0.0193 0.0398,0.034 0.0164,0.0255 0.0195,0.0581 0.0361,0.0834 0.0584,0.0891 0.18194,0.15551 0.26513,0.21909 0.0948,0.0889 0.12406,0.23711 0.22016,0.32427 0.024,0.0217 0.1051,0.0523 0.13246,0.0636 0.171,0.0256 0.18407,0.13423 0.2641,0.26074 0.0467,0.0133 0.0439,0.1272 0.0806,0.14133 0.0115,0.004 0.0228,-0.0114 0.0351,-0.0116 0.0216,-2.7e-4 0.0428,0.007 0.0641,0.0101 0.14704,0.006 0.17594,0.17304 0.24072,0.27446 0.0389,0.0608 0.12333,0.13541 0.17413,0.18396 0.17909,0.13037 0.24036,0.3521 0.35671,0.53146 0.01,0.0136 0.0228,0.0254 0.0294,0.0408 0.0243,0.0559 0.0203,0.12161 0.0452,0.17729 0.024,0.0536 0.075,0.0679 0.11102,0.11024 0.0275,0.0323 0.0477,0.0702 0.0715,0.10537 0.13984,0.18702 0.16228,0.41882 0.23312,0.63436 0.0655,0.17009 0.1595,0.32572 0.23748,0.49094 0.14003,0.31144 0.17729,0.64166 0.20377,0.97771 0.0314,0.23928 0.0193,0.47382 -0.0164,0.71113 -0.0475,0.193 -0.11001,0.38034 -0.2033,0.55604 -0.11615,0.18926 -0.17148,0.40414 -0.20963,0.62056 -0.0428,0.39254 -0.0212,0.78802 -0.0421,1.18182 -0.0704,0.58176 0.004,1.1809 -0.12682,1.75389 -0.17982,0.44785 -0.27094,0.92228 -0.42899,1.37685 -0.1444,0.36915 -0.17403,0.77427 -0.31429,1.14432 -0.0267,0.0704 -0.16435,0.33077 -0.19858,0.39669 -0.12162,0.3097 -0.319,0.57216 -0.49977,0.84831 0,0 -0.9588,0.33351 -0.9588,0.33351 v 0 c 0.0231,-0.0353 0.20493,-0.314 0.22574,-0.34276 0.0363,-0.0502 0.0843,-0.0921 0.11598,-0.1454 0.0661,-0.11112 0.0805,-0.24863 0.16458,-0.35129 0.0338,-0.0662 0.0658,-0.13338 0.10145,-0.19863 0.0339,-0.062 0.0786,-0.1183 0.107,-0.18302 0.15947,-0.36383 0.17868,-0.77515 0.31316,-1.14696 0.15335,-0.45345 0.25144,-0.9226 0.42735,-1.36846 0.0206,-0.0678 0.0492,-0.13362 0.0619,-0.2033 0.0233,-0.12788 0.0298,-0.45127 0.0348,-0.57019 0.0135,-0.32039 0.0306,-0.64065 0.0393,-0.96123 0.0179,-0.39543 0.0106,-0.79142 0.0199,-1.18714 0.0413,-0.22432 0.0884,-0.45436 0.20252,-0.65417 0.0172,-0.0292 0.0982,-0.16433 0.1119,-0.19899 0.0411,-0.10376 0.0439,-0.22359 0.10211,-0.32235 0.0377,-0.2308 0.0605,-0.45874 0.0339,-0.69308 -0.0217,-0.3228 -0.0587,-0.64205 -0.19292,-0.94073 -0.0823,-0.16859 -0.19005,-0.32359 -0.24884,-0.50162 -0.0631,-0.20683 -0.0848,-0.42757 -0.21648,-0.60665 -0.0636,-0.0839 -0.15995,-0.15735 -0.20465,-0.25379 -0.0198,-0.0427 -0.0123,-0.0946 -0.0312,-0.13771 -0.007,-0.0166 -0.0196,-0.0305 -0.0294,-0.0457 -0.10509,-0.1774 -0.166,-0.38508 -0.33855,-0.51294 -0.0719,-0.0724 -0.13506,-0.12937 -0.19263,-0.21511 -0.0624,-0.0929 -0.0725,-0.18248 -0.20275,-0.19102 -0.13758,-0.0436 -0.15354,-0.10061 -0.22003,-0.21077 -0.0785,-0.13497 -0.0702,-0.15765 -0.2337,-0.21026 -0.19724,-0.11094 -0.2276,-0.23775 -0.3614,-0.40613 -0.075,-0.0576 -0.15356,-0.11427 -0.21981,-0.18215 -0.0255,-0.0261 -0.0478,-0.0551 -0.0716,-0.0827 -0.005,-0.011 -0.006,-0.0241 -0.014,-0.0331 -0.007,-0.009 -0.0197,-0.0113 -0.0295,-0.0169 -0.13877,-0.074 -0.30045,-0.17145 -0.32063,-0.341 -0.0594,-0.20932 -0.23269,-0.36372 -0.38119,-0.51331 -0.26998,-0.22662 -0.55453,-0.30694 -0.8868,-0.40285 0,0 0.89179,-0.50776 0.89179,-0.50776 z"
         id="path1245"
         style="opacity:1;fill:#000000;fill-opacity:1;fill-rule:evenodd;stroke:#000000;stroke-width:1;stroke-miterlimit:4;stroke-dasharray:none;stroke-dashoffset:0;stroke-opacity:1" />
      <path
         inkscape:connector-curvature="0"
         d="m 207.30581,128.54837 c 0.56588,0.18516 1.14051,0.33913 1.7164,0.48935 0,0 -0.84561,0.48865 -0.84561,0.48865 v 0 c -0.58199,-0.15526 -1.16165,-0.3238 -1.7504,-0.45095 0,0 0.87961,-0.52705 0.87961,-0.52705 z"
         id="path1247"
         style="opacity:1;fill:#000000;fill-opacity:1;fill-rule:evenodd;stroke:#000000;stroke-width:1;stroke-miterlimit:4;stroke-dasharray:none;stroke-dashoffset:0;stroke-opacity:1" />
      <path
         inkscape:connector-curvature="0"
         d="m 239.91207,119.59399 c -0.42683,-0.34605 -0.90797,-0.61906 -1.38686,-0.88595 -0.13493,-0.0731 -0.0758,-0.0376 -0.17921,-0.10382 0,0 0.90812,-0.48609 0.90812,-0.48609 v 0 c 0.0936,0.0638 0.0389,0.0282 0.16583,0.10444 0.47199,0.28608 0.94494,0.57261 1.394,0.89395 0,0 -0.90188,0.47747 -0.90188,0.47747 z"
         id="path1249"
         style="opacity:1;fill:#000000;fill-opacity:1;fill-rule:evenodd;stroke:#000000;stroke-width:1;stroke-miterlimit:4;stroke-dasharray:none;stroke-dashoffset:0;stroke-opacity:1" />
      <path
         inkscape:connector-curvature="0"
         d="m 238.60878,123.39673 c 0.0612,0.58589 0.0412,1.17046 0.004,1.75681 -0.0214,0.99296 -0.42286,1.91502 -0.8272,2.80475 -0.37636,0.75313 -0.74845,1.51182 -0.99701,2.31791 -0.17873,0.68901 0.01,0.80725 -1.1077,0.89149 -0.0773,0.006 -0.005,-0.15499 -0.007,-0.23251 -0.002,-0.0885 -0.002,-0.17701 -0.004,-0.26551 -0.008,-0.5664 0.008,-1.13263 0.0103,-1.69906 0,0 0.91158,-0.37726 0.91158,-0.37726 v 0 c -10e-4,0.56308 0.007,1.12599 0.008,1.68903 0.002,0.0869 0.003,0.17393 0.007,0.2608 0.003,0.0698 0.0711,0.16734 0.0151,0.20904 -1.66937,1.24191 -0.99221,0.71882 -0.89141,0.37532 0.0481,-0.16387 0.0683,-0.33519 0.12444,-0.49701 0.25032,-0.81305 0.63114,-1.57514 1.00812,-2.33593 0.40695,-0.87748 0.82028,-1.78272 0.8342,-2.76831 0.032,-0.57556 0.0489,-1.15151 -0.0336,-1.72431 0,0 0.94496,-0.40525 0.94496,-0.40525 z"
         id="path1251"
         style="opacity:1;fill:#000000;fill-opacity:1;fill-rule:evenodd;stroke:#000000;stroke-width:1;stroke-miterlimit:4;stroke-dasharray:none;stroke-dashoffset:0;stroke-opacity:1" />
      <path
         transform="scale(0.26458333)"
         inkscape:connector-curvature="0"
         id="path1253"
         d="m 895.61016,505.15883 c 0.11516,-0.46369 0.31407,-2.77165 0.44201,-5.12879 0.30041,-5.53467 0.83157,-7.56947 3.44942,-13.21429 2.29084,-4.9397 2.93834,-6.54151 3.6814,-9.10714 l 0.46546,-1.60714 0.0319,3.22365 c 0.0363,3.66807 -0.38413,7.53081 -1.4374,13.20492 -0.56744,3.05688 -1.17055,4.87951 -2.71814,8.21429 -2.24616,4.84007 -2.12248,4.6511 -3.27187,4.99936 -0.76134,0.23068 -0.82988,0.16833 -0.64281,-0.58486 z"
         style="opacity:1;fill:#000000;fill-opacity:1;fill-rule:evenodd;stroke:#000000;stroke-width:1.34983134;stroke-miterlimit:4;stroke-dasharray:none;stroke-dashoffset:0;stroke-opacity:1" />
      <g
         id="g912">
        <path
           style="opacity:1;fill:#000000;fill-opacity:1;fill-rule:evenodd;stroke:#000000;stroke-width:0.35714287;stroke-miterlimit:4;stroke-dasharray:none;stroke-dashoffset:0;stroke-opacity:1"
           d="m 135.56009,142.10898 -0.31239,-0.47765 2.09642,-2.04837 c 1.15303,-1.1266 2.13342,-2.06254 2.17864,-2.07986 0.0452,-0.0173 0.0822,0.0571 0.0822,0.16536 0,0.10827 0.0204,0.19686 0.0453,0.19686 0.0249,0 0.48202,-0.12538 1.01581,-0.27862 1.28899,-0.37005 2.54363,-0.61685 4.35537,-0.85675 0.82222,-0.10887 1.87465,-0.30191 2.33872,-0.42898 0.46408,-0.12707 1.22853,-0.33627 1.69877,-0.46489 1.98368,-0.54258 4.9351,-0.65892 14.87827,-0.58647 7.46782,0.0544 10.75022,-0.004 12.47428,-0.22058 0.46716,-0.0588 2.27388,-0.14478 4.01493,-0.1911 3.40889,-0.0907 3.3522,-0.0836 6.28385,-0.78352 2.30346,-0.54994 4.22221,-0.93109 6.23661,-1.23889 0.88352,-0.135 2.18045,-0.33363 2.88207,-0.4414 0.70162,-0.10777 2.60422,-0.46743 4.22801,-0.79924 1.62379,-0.33182 3.20932,-0.64469 3.52341,-0.69527 0.52117,-0.0839 0.61865,-0.13985 1.11561,-0.64 0.2995,-0.30141 0.85381,-0.73937 1.23179,-0.97325 0.37799,-0.23387 1.00333,-0.62651 1.38964,-0.87252 1.25276,-0.7978 2.19019,-1.2952 4.08514,-2.16758 1.75129,-0.80623 1.93547,-0.86964 3.13622,-1.07972 0.70162,-0.12276 1.5484,-0.30728 1.88172,-0.41006 0.33333,-0.10277 0.63801,-0.16711 0.67707,-0.14297 0.0391,0.0241 0.46796,-0.14106 0.9531,-0.3671 0.99953,-0.46572 2.82244,-1.65792 3.82066,-2.49875 0.55445,-0.46702 1.03769,-0.73485 2.78758,-1.54494 l 2.11685,-0.97997 h 5.05543 5.05543 l 0.92974,0.25986 c 1.12976,0.31576 1.17162,0.31664 1.66756,0.0349 l 0.39596,-0.22492 0.44051,0.23921 c 0.43184,0.23452 1.1492,0.84485 1.1492,0.97777 0,0.037 0.30456,0.35795 0.6768,0.71315 1.05479,1.00651 1.20386,1.17568 1.54661,1.75511 0.92395,1.56198 1.23323,3.14548 0.80021,4.09695 -0.17805,0.39119 -0.22187,0.7072 -0.28122,2.02786 -0.0387,0.86045 -0.11259,1.64711 -0.16427,1.74814 -0.0517,0.10103 -0.23238,0.69395 -0.40155,1.31761 -0.40357,1.48781 -0.79681,2.23606 -1.4502,2.75948 -0.078,0.0625 -0.23596,0.53025 -0.35096,1.03944 -0.34315,1.51933 -0.44424,1.70973 -1.51195,2.84752 l -0.96891,1.03252 -1.92025,0.58309 c -1.05613,0.3207 -1.97501,0.57216 -2.04196,0.5588 -0.0669,-0.0134 -0.34789,0.0526 -0.62431,0.14653 -0.78214,0.26581 -1.15368,0.16534 -2.23887,-0.60546 -1.03085,-0.7322 -1.14535,-0.77919 -2.40846,-0.9885 -0.49373,-0.0818 -1.27631,-0.25921 -1.73906,-0.3942 -0.76571,-0.22337 -0.93988,-0.24036 -1.93712,-0.18898 -0.60267,0.0311 -4.39125,0.0211 -8.41906,-0.0222 -8.12099,-0.0873 -7.63797,-0.0475 -9.02402,-0.74283 -0.36389,-0.18254 -1.55431,-0.86498 -2.64537,-1.51651 -2.08834,-1.24706 -2.53231,-1.4491 -3.58826,-1.63299 -0.94528,-0.16462 -1.71109,-0.0738 -5.15306,0.61099 -3.63645,0.7235 -4.76659,0.92584 -6.66183,1.19274 -1.64039,0.23101 -5.31856,0.94886 -7.68747,1.50033 -1.95932,0.45611 -2.66485,0.53445 -6.48664,0.72023 -1.61112,0.0783 -3.26949,0.18858 -3.68527,0.24502 -0.48048,0.0652 -4.99137,0.13095 -12.37872,0.18037 -6.39252,0.0428 -11.75033,0.10073 -11.90625,0.1288 -0.15591,0.0281 -0.64492,0.0978 -1.08668,0.15502 -0.44176,0.0572 -1.52608,0.29175 -2.4096,0.52126 -0.88352,0.2295 -2.3483,0.52513 -3.25507,0.65694 -2.62376,0.38142 -4.65677,0.89971 -5.78897,1.47582 -0.19282,0.0981 -0.36291,0.17763 -0.37797,0.17669 -0.0151,-0.001 -0.16796,-0.21664 -0.33977,-0.47935 z m 100.81808,-3.40045 c 0.24917,-0.1599 0.47276,-0.36188 0.49687,-0.44885 0.0241,-0.087 0.0716,-0.25465 0.10553,-0.37262 l 0.0617,-0.21451 -0.50306,0.22759 c -1.85492,0.83915 -2.02492,0.93562 -1.77873,1.00944 0.57007,0.17093 1.15039,0.0988 1.61768,-0.20105 z m 2.82209,-10.83595 c -10e-4,-0.14292 -0.0427,-0.32365 -0.093,-0.4016 -0.0671,-0.10381 -0.092,-0.0343 -0.093,0.25986 -0.001,0.22087 0.0411,0.4016 0.093,0.4016 0.052,0 0.0939,-0.11694 0.093,-0.25986 z"
           id="path1255"
           inkscape:connector-curvature="0" />
      </g>
      <path
         transform="scale(0.26458333)"
         inkscape:connector-curvature="0"
         id="path1257"
         d="m 891.51501,515.36127 c 1.44326,-0.70041 2.70355,-1.19404 2.80063,-1.09696 0.35952,0.35952 -2.61583,1.9745 -3.99618,2.16906 -1.30723,0.18426 -1.20569,0.0932 1.19555,-1.0721 z"
         style="opacity:1;fill:#000000;fill-opacity:1;fill-rule:evenodd;stroke:#000000;stroke-width:1.34983134;stroke-miterlimit:4;stroke-dasharray:none;stroke-dashoffset:0;stroke-opacity:1" />
    </g>
    <g
       id="g909"
       inkscape:export-xdpi="96"
       inkscape:export-ydpi="96"
       transform="translate(0,-84.666714)">
      <path
         inkscape:connector-curvature="0"
         d="m 83.460054,100.77481 c 0.06692,-4.131391 0.07632,-8.263487 0.0843,-12.395326 -0.37938,-7.761708 -0.884155,-15.51687 -1.31033,-23.276295 -0.148542,-3.23329 -0.432073,-6.469663 -0.253701,-9.706565 0.152577,-1.271405 0.16864,-2.557629 0.297691,-3.830336 0.02677,-0.264014 0.279527,-1.926756 0.309356,-2.12575 0.199461,-1.367943 0.104537,-0.710673 0.285178,-1.971751 0,0 1.433073,-0.568992 1.433073,-0.568992 v 0 c -0.194513,1.26506 -0.0945,0.606089 -0.299381,1.97702 -0.10025,0.703363 -0.230902,1.402929 -0.30389,2.109642 -0.131561,1.273844 -0.127547,2.563494 -0.307313,3.833915 -0.204079,3.245665 0.03923,6.496513 0.124759,9.742903 0.3287,7.767061 0.817673,15.523763 1.315654,23.28142 0.0079,4.108558 0.01704,8.217384 0.0843,12.325485 0,0 -1.459693,0.60463 -1.459693,0.60463 z"
         id="path868"
         style="opacity:1;fill:#000000;fill-opacity:1;fill-rule:evenodd;stroke:#000000;stroke-width:1;stroke-miterlimit:4;stroke-dasharray:none;stroke-dashoffset:0;stroke-opacity:1" />
      <path
         inkscape:connector-curvature="0"
         d="m 83.704008,99.750323 c -0.02037,-1.504376 -0.144206,-3.009061 -0.144878,-4.513662 -2.64e-4,-0.722299 0.05485,-1.389345 0.102026,-2.108258 0.101849,-1.595591 0.278837,-3.183602 0.42862,-4.774755 0.573667,-2.229761 0.872784,-4.502603 1.068406,-6.792315 0.03859,-1.243187 0.236209,-2.475357 0.297746,-3.716705 0.04753,-0.958768 0.02191,-1.129189 -0.0085,-2.10498 -0.177885,-1.38421 -0.535885,-2.732326 -1.211078,-3.962024 -0.292827,-0.533316 -0.750207,-1.143601 -1.104704,-1.639412 -0.422106,-0.625104 -0.912286,-1.214424 -1.176025,-1.931429 -0.26253,-0.713721 -0.296876,-1.471689 -0.353735,-2.220894 -0.01519,-1.197327 -0.21839,-2.492639 0.295016,-3.614616 0.02983,-0.343921 0.590463,-0.399205 0.704739,-0.663905 0.166169,-0.384903 0.187759,-1.09627 0.221541,-1.442786 0.123071,-1.996197 0.12347,-3.99723 0.126396,-5.996419 0.196668,-1.493107 0.458857,-2.976642 0.674725,-4.467775 0.117599,-1.41808 0.716907,-2.725513 1.115698,-4.076846 0.305167,-0.787275 0.474662,-1.605319 0.547034,-2.443194 -0.0081,-0.398349 0.08961,-0.8583 -0.02824,-1.252016 -0.157665,-0.526712 -0.554905,-1.11742 -0.849161,-1.566286 -0.766083,-0.976392 -1.440051,-2.021636 -1.809629,-3.21092 -0.229383,-0.821819 -0.217522,-1.68683 -0.227248,-2.533711 -0.03585,-0.406799 0.05043,-0.828063 -5.29e-4,-1.233691 0,0 1.484445,-0.60099 1.484445,-0.60099 v 0 c -0.122851,0.37747 0.05225,0.844417 -0.02524,1.229402 5.29e-4,0.83385 -0.01167,1.682456 0.202245,2.49473 0.352975,1.179182 1.017127,2.213041 1.773258,3.178058 0.296389,0.442646 0.74173,1.101405 0.905309,1.623717 0.125026,0.399203 0.01461,0.877056 0.02988,1.28171 -0.05452,0.849823 -0.212717,1.683078 -0.537355,2.475571 -0.405191,1.346044 -1.019582,2.646334 -1.136817,4.060595 -0.214582,1.486469 -0.463902,2.96608 -0.69016,4.45045 -0.0072,2.003756 -0.03408,4.007705 -0.126677,6.009611 -0.01238,0.190685 -0.05683,1.218531 -0.140454,1.521291 -0.08933,0.323458 -0.61349,0.303868 -0.728835,0.628068 -0.591936,1.066035 -0.351493,2.377159 -0.353253,3.546263 0.05542,0.730149 0.08976,1.469588 0.340844,2.166472 0.255244,0.708419 0.732645,1.295122 1.145016,1.913932 0.334854,0.474689 0.837637,1.161034 1.114619,1.665841 0.684601,1.247706 1.037695,2.619451 1.230058,4.020722 0.03539,0.935844 0.06408,1.193554 0.02683,2.115425 -0.05039,1.247296 -0.271306,2.48071 -0.32141,3.728159 -0.194937,2.282262 -0.460338,4.55726 -1.036178,6.780128 -0.138422,1.59362 -0.336206,3.181244 -0.44528,4.777872 -0.04953,0.692637 -0.111223,1.402885 -0.115345,2.097683 -0.0089,1.498844 0.112995,2.998682 0.178549,4.495036 0,0 -1.442382,0.606853 -1.442382,0.606853 z"
         id="path870"
         style="opacity:1;fill:#000000;fill-opacity:1;fill-rule:evenodd;stroke:#000000;stroke-width:1;stroke-miterlimit:4;stroke-dasharray:none;stroke-dashoffset:0;stroke-opacity:1" />
      <path
         inkscape:connector-curvature="0"
         d="m 84.543716,81.110848 c 0.01569,-1.030782 0.01463,-2.061765 0.01514,-3.092646 0.0035,-0.946782 -0.0084,-1.893519 -0.0084,-2.840288 0.0043,-0.338077 -0.0073,-0.676106 -0.01958,-1.013897 -0.0037,-0.100491 -0.0021,-0.201366 -0.01217,-0.301426 -0.01847,-0.185251 -0.04815,-0.267439 -0.09566,-0.438748 -0.01738,-0.04414 -0.03478,-0.08827 -0.05216,-0.132409 -0.01143,-0.0044 -0.04622,-0.01032 -0.0343,-0.01315 0.122431,-0.02909 0.254738,-0.113819 0.371536,-0.06697 0.07199,0.02887 0.02492,0.153139 0.03503,0.230042 0.04471,0.340344 0.0516,0.458211 0.08466,0.817528 0.08166,1.361163 0.34372,2.704717 0.658085,4.029083 0.160891,0.685626 0.291293,1.377707 0.436944,2.066595 0.07282,0.34441 0.153273,0.687046 0.219739,1.032732 0,0 -0.354325,0.153794 -0.354325,0.153794 v 0 C 85.736675,81.191224 85.661832,80.845647 85.593688,80.498659 85.457965,79.807546 85.329171,79.114793 85.165413,78.429554 84.851051,77.1056 84.5848,75.763165 84.487169,74.403908 c -0.03648,-0.349028 -0.04461,-0.478568 -0.09743,-0.809099 -0.01217,-0.07625 -0.08258,-0.161136 -0.04324,-0.227584 0.0762,-0.128719 0.312259,-0.371789 0.380138,-0.238492 0.02215,0.04349 0.03352,0.09167 0.05028,0.137509 0.04526,0.172929 0.07557,0.263705 0.09286,0.449411 0.0093,0.100422 0.0069,0.201594 0.01029,0.302392 0.01138,0.338428 0.02463,0.677 0.01847,1.015709 -2e-6,0.9491 -0.01198,1.898168 -0.0084,2.847279 5.29e-4,1.026702 -5.29e-4,2.053508 0.01513,3.08011 0,0 -0.361444,0.149717 -0.361444,0.149717 z"
         id="path872"
         style="opacity:1;fill:#000000;fill-opacity:1;fill-rule:evenodd;stroke:#000000;stroke-width:1;stroke-miterlimit:4;stroke-dasharray:none;stroke-dashoffset:0;stroke-opacity:1" />
      <path
         inkscape:connector-curvature="0"
         d="m 84.065254,100.20689 c 0.04801,-1.293306 0.04067,-2.588061 0.04563,-3.882072 -0.0024,-1.517843 -0.0035,-3.035694 -0.0077,-4.553537 -0.0024,-1.316469 -0.0076,-2.633012 -0.0021,-3.949483 -0.0205,-0.218414 -0.03477,-0.437504 -0.06149,-0.655246 -0.07067,-0.576038 -0.201663,-1.138796 -0.247333,-1.718559 -0.03788,-0.48089 -0.04582,-1.029792 -0.05875,-1.508611 0.06367,-2.054625 0.45376,-4.075528 0.745508,-6.10479 0.202311,-1.350121 0.397217,-2.70115 0.496795,-4.063164 0.05352,-0.902131 0.06222,-1.806053 0.04557,-2.709354 -0.01863,-1.423289 -0.07501,-2.845628 -0.108633,-4.26852 0.0039,-0.854808 -0.03261,-1.706727 -0.09186,-2.558955 -0.09042,-0.798838 0.03704,-1.611879 -0.107741,-2.406404 -0.03973,-0.218035 -0.109014,-0.429633 -0.16352,-0.644448 -0.0668,-0.2193 -0.13493,-0.438195 -0.200393,-0.657897 -0.06603,-0.221594 -0.134493,-0.44255 -0.194077,-0.665964 -0.150768,-0.56528 -0.236985,-1.159669 -0.499137,-1.688365 -0.377502,0.468728 -0.04341,0.04217 1.507104,-0.608933 0,0 -1.621819,0.591277 -1.621819,0.591277 v 0 c 1.631614,-0.798147 1.223211,-1.24143 1.667647,-0.699002 0.121817,0.345604 0.190074,0.699868 0.274363,1.056497 0.161139,0.681778 0.157877,0.675127 0.358574,1.343461 0.06653,0.221555 0.136715,0.441992 0.205073,0.662988 0.06035,0.22084 0.135935,0.438071 0.181054,0.662517 0.158369,0.787847 0.05483,1.602742 0.148124,2.397667 0.0571,0.859642 0.06916,1.718593 0.06322,2.580172 0.01479,1.422865 0.02625,2.845974 0.107334,4.267081 0.03413,0.905107 0.04763,1.814629 -0.01976,2.71849 -0.124973,1.379456 -0.360852,2.743182 -0.584292,4.109358 -0.299347,2.012341 -0.649381,4.023018 -0.714151,6.060948 0.02932,0.687615 0.05552,1.374121 0.147236,2.057021 0.111831,0.832689 0.06899,0.283258 0.173098,1.153269 0.02667,0.222932 0.04426,0.446857 0.06639,0.670287 0.0055,1.317072 2.65e-4,2.634213 -0.0021,3.951282 -0.0042,1.519973 -0.0054,3.039952 -0.0077,4.559925 0.0049,1.281406 -0.0028,2.563595 0.04563,3.844268 0,0 -1.58564,0.656796 -1.58564,0.656796 z"
         id="path874"
         style="opacity:1;fill:#000000;fill-opacity:1;fill-rule:evenodd;stroke:#000000;stroke-width:1;stroke-miterlimit:4;stroke-dasharray:none;stroke-dashoffset:0;stroke-opacity:1" />
      <path
         inkscape:connector-curvature="0"
         d="m 83.398158,66.247226 c 0.0035,-0.106979 0.01228,-0.213913 0.01056,-0.320934 -0.0019,-0.121801 -0.04359,-0.745607 -0.04976,-0.858324 -0.02622,-0.478706 -0.03904,-0.957602 -0.0506,-1.436828 -0.01474,-0.8397 -0.03042,-1.679464 -0.03186,-2.51931 7.93e-4,-0.131217 0.0019,-0.262435 0.0024,-0.393652 0.0035,-0.747612 0.0047,-0.113329 -0.0075,-0.684697 -7.94e-4,-0.03942 -0.03627,-0.104166 5.29e-4,-0.118287 1.728306,-0.662977 1.570148,-1.040447 1.656784,-0.132969 0.09476,1.444136 0.106949,2.892848 0.131699,4.339598 0.119472,1.324605 0.326871,2.639015 0.500766,3.95705 0.05582,0.437761 0.104457,0.87639 0.152474,1.315059 0.02029,0.185433 0.0297,0.366458 0.09514,0.541909 0.435623,0.388635 0.21299,0.178614 -1.541608,0.6297 -0.07128,0.01834 0.02805,-0.144711 0.03544,-0.21794 0.0466,-0.461243 0.04208,-0.931204 0.05187,-1.393936 0.02466,-1.207627 0.0081,-2.415416 0.0052,-3.623133 0.0089,-1.003294 -0.130464,-1.999739 -0.194242,-2.999914 -0.04967,-0.928526 -0.06562,-1.858383 -0.08466,-2.787899 -0.0024,-0.823841 0.0013,-1.647698 0.004,-2.471536 0.007,-0.884357 -0.0043,-1.768629 1.14e-4,-2.652993 0.0016,-0.170993 0.0011,-0.342027 0.0051,-0.512977 0.005,-0.206849 0.0048,-0.41416 0.02225,-0.620329 0.05736,-0.677222 0.237143,-1.338067 0.384561,-1.999155 0.05014,-0.417898 0.09663,-0.847426 0.06657,-1.269296 -0.03828,-0.537305 -0.170455,-1.075372 -0.277876,-1.601398 -0.102256,-0.699077 -0.372028,-1.347769 -0.579585,-2.016535 -0.120174,-0.387202 -0.215699,-0.781627 -0.324144,-1.172274 -0.290311,-1.157409 -0.592055,-2.31934 -0.684924,-3.512061 0.02558,-0.550208 0.218982,-1.069771 0.408532,-1.580906 0.541428,-0.189952 1.062551,-0.452861 1.624277,-0.56986 0.07988,-0.01664 -0.02508,0.161444 -0.04425,0.240761 -0.02903,0.120202 -0.07198,0.236794 -0.100187,0.357195 -0.151426,0.646467 -0.231539,1.30643 -0.316862,1.96378 -0.180491,1.543648 -0.221684,3.098244 -0.244957,4.650729 -0.0032,0.713997 -0.0026,1.428105 0.01868,2.141845 0.0476,0.617431 0.06049,0.438224 -1.581531,0.585221 -0.120476,0.0108 0.01143,-0.241663 0.01447,-0.362582 0.01238,-0.493075 0.01236,-0.986732 0.01159,-1.479916 0.0067,-0.960773 -0.0058,-1.92148 -0.0057,-2.882235 0.0019,-0.980562 0.0033,-1.961103 0.0094,-2.941646 -0.107244,-1.08961 -0.29182,-2.170374 -0.444455,-3.254565 -0.08588,-0.481312 -0.06483,-0.974162 -0.123738,-1.457537 -0.14533,0.555233 1.039172,-0.455919 1.590186,-0.574146 0.07651,-0.0164 0.0471,0.149257 0.07214,0.223393 0.08826,0.261313 0.159629,0.528561 0.258871,0.785903 0.05144,0.133392 0.120166,0.259461 0.180248,0.389191 0.400904,0.941277 0.752035,1.904254 1.196557,2.82675 0.39226,0.714293 0.778343,1.430311 1.164013,2.148483 0.206729,0.388803 0.391258,0.819277 0.442037,1.261594 7.93e-4,0.619218 0.025,0.555988 -1.620774,0.573106 -0.16631,0.0019 -0.08548,-0.321781 -0.140055,-0.47889 -0.09296,-0.2676 -0.190947,-0.533787 -0.302215,-0.794303 -0.306406,-0.717402 -0.543904,-1.139931 -0.904018,-1.829713 -0.535043,-0.995381 -0.282908,-0.516549 -0.758393,-1.435449 0,0 1.475081,-0.692693 1.475081,-0.692693 v 0 c 0.447542,0.928725 0.208383,0.444799 0.720352,1.450356 0.448162,0.862521 0.896763,1.721633 1.283528,2.614031 0.06872,0.158551 0.319905,0.360703 0.195151,0.480276 -2.10744,2.019938 -1.782746,1.325793 -1.535795,0.779312 0.0168,-0.419521 -0.211717,-0.839081 -0.377515,-1.20872 -0.373872,-0.725932 -0.780352,-1.432586 -1.141736,-2.165209 -0.447151,-0.921893 -0.806069,-1.882797 -1.212913,-2.822205 -0.06285,-0.135845 -0.133252,-0.268449 -0.188555,-0.40754 -0.05365,-0.134938 -0.09186,-0.275516 -0.13779,-0.413274 -0.04671,-0.117772 -0.09142,-0.236358 -0.140145,-0.353314 -0.03813,-0.09152 -0.201223,-0.214649 -0.120351,-0.272005 1.581015,-1.121302 1.562727,-1.356926 1.593311,-0.751134 -0.01934,0.488045 0.03516,0.977059 0.07446,1.462638 0.117959,1.097984 0.302456,2.186107 0.430882,3.28259 0.0062,0.977916 0.0076,1.955832 0.0096,2.933766 1.4e-4,0.962388 -0.0122,1.924728 -0.0059,2.887134 -0.0011,0.490344 -0.0013,0.981125 0.0097,1.471387 0.0026,0.117385 0.107511,0.282221 0.01307,0.351999 -0.478711,0.353751 -1.048634,0.565314 -1.589818,0.813152 -0.02651,0.01214 0.0033,-0.05822 0.0049,-0.08734 0.01603,-0.724392 0.02516,-1.44894 0.0468,-2.1732 0.03971,-1.558872 0.09642,-3.119292 0.252571,-4.67146 0.07334,-0.654383 0.141222,-1.311746 0.254966,-1.960814 0.0081,-0.04634 0.07361,-0.459785 0.1411,-0.494405 0.513342,-0.263337 1.053642,-0.470435 1.580462,-0.705649 -0.129606,0.114945 -0.179954,0.336068 -0.234738,0.492228 -0.114856,0.327385 -0.232617,0.656169 -0.266264,1.004178 0.07218,1.184558 0.332079,2.348447 0.644208,3.491167 0.116993,0.384019 0.220702,0.772062 0.341365,1.154946 0.06072,0.192659 0.278717,0.776247 0.332719,0.967703 0.09962,0.353192 0.141697,0.72101 0.2453,1.07324 0.112991,0.531817 0.261096,1.080865 0.310928,1.623687 0.03965,0.43186 -0.01476,0.875397 -0.05248,1.304641 -0.150473,0.651942 -0.364945,1.309265 -0.421161,1.978526 -0.01704,0.202824 -0.0089,0.407 -0.0098,0.610539 -7.94e-4,0.169598 0.0034,0.33918 0.0051,0.508772 0.0042,0.884659 -0.0078,1.769208 -0.0019,2.653861 0.0013,0.821751 0.0016,1.643504 0.0072,2.465242 -0.0032,0.929338 0.0078,1.859156 0.06191,2.787139 0.06687,1.00361 0.201586,2.004518 0.195196,3.011205 -0.0024,1.208939 -0.01791,2.417812 -0.0094,3.626778 2.2e-4,0.461958 -5.29e-4,0.923788 -0.0031,1.385719 -5.29e-4,0.0822 0.07025,0.203165 5.29e-4,0.246602 -0.502766,0.312912 -1.06231,0.525436 -1.608518,0.754221 -0.02291,0.0096 -0.02297,-0.04403 -0.03444,-0.06605 -0.05194,-0.196887 -0.06172,-0.386091 -0.07571,-0.589341 -0.03039,-0.441447 -0.07044,-0.882219 -0.121854,-1.321737 -0.164758,-1.327994 -0.351541,-2.653847 -0.480425,-3.985858 -0.01484,-1.433888 -0.02432,-2.872171 -0.180377,-4.299108 -0.142137,-0.901462 -0.169928,-0.376648 1.490861,-1.166649 0.03288,-0.01564 -0.02799,0.06828 -0.03187,0.10449 -0.03847,0.358605 0.01064,0.723265 -0.0057,1.082508 5.3e-4,0.841097 -0.0092,1.682311 0.01162,2.523278 0.02368,0.868664 0.07126,1.735397 0.136567,2.601352 0,0 -1.583486,0.655899 -1.583486,0.655899 z"
         id="path876"
         style="opacity:1;fill:#000000;fill-opacity:1;fill-rule:evenodd;stroke:#000000;stroke-width:1;stroke-miterlimit:4;stroke-dasharray:none;stroke-dashoffset:0;stroke-opacity:1" />
      <path
         inkscape:connector-curvature="0"
         d="m 82.99833,46.853755 c 0.01011,-0.62778 0.01008,-1.255673 0.01455,-1.883532 -5.29e-4,-0.121777 -0.0011,-0.243554 -0.0019,-0.365334 0,0 1.555716,-0.644398 1.555716,-0.644398 v 0 c -5.29e-4,0.122261 -0.0011,0.244525 -0.0019,0.366787 0.0045,0.623837 0.0044,1.247711 0.01455,1.871469 0,0 -1.581333,0.655008 -1.581333,0.655008 z"
         id="path878"
         style="opacity:1;fill:#000000;fill-opacity:1;fill-rule:evenodd;stroke:#000000;stroke-width:1;stroke-miterlimit:4;stroke-dasharray:none;stroke-dashoffset:0;stroke-opacity:1" />
      <path
         inkscape:connector-curvature="0"
         d="m 86.5648,81.649799 c -0.0575,1.327764 -0.02838,2.663502 0.09713,3.986456 0.172498,1.119148 0.328591,2.241494 0.402039,3.371884 0.133348,0.882875 0.286798,1.761062 0.367414,2.650766 0.06618,0.714054 0.07686,1.432036 0.07848,2.148715 0.01341,0.829159 -0.01746,1.656284 -0.06447,2.483795 -0.07227,0.585385 0.0088,1.187436 -0.07387,1.771523 -0.01455,0.102827 -0.04504,0.202763 -0.06756,0.304146 -0.199507,0.574535 -0.337479,1.164254 -0.443468,1.762316 -0.08355,0.82199 -0.05967,1.65134 -0.04583,2.4763 5.29e-4,0.72509 -0.117031,1.44241 -0.180068,2.16326 -0.119917,0.48252 -0.165137,1.00875 -0.394774,1.45685 -0.527193,0.26237 -1.035515,0.56669 -1.581578,0.78712 -0.05093,0.0206 -0.113015,-0.15452 -0.136994,-0.30396 -0.04714,-0.29383 -0.02961,-0.60878 -0.03332,-0.90453 -0.004,-0.74685 -0.0034,-1.49294 -0.04494,-2.23876 -0.04617,-0.62945 -0.07835,-1.26045 -0.09202,-1.89148 -0.01392,-0.47103 -0.0113,-0.94234 -0.01482,-1.4135 -0.01296,-0.15789 0.05605,-0.956668 -0.06576,-1.009979 -0.03389,-0.01484 -0.05926,0.0443 -0.08889,0.06644 0.472199,-0.191278 0.9251,-0.439721 1.416603,-0.573836 0.08491,-0.02318 -0.102196,0.144682 -0.138184,0.225004 -0.04796,0.107048 -0.08135,0.220374 -0.112096,0.333579 -0.115546,0.425487 -0.151535,0.865082 -0.192852,1.302022 -0.06198,0.70333 -0.06358,1.40609 0.0064,2.10808 0.05325,0.36665 0.06762,0.73589 0.07917,1.10562 0.02553,0.80678 0.145283,0.67505 -1.572606,0.83469 -0.107662,0.01 0.0087,-0.21612 0.0092,-0.32424 7.94e-4,-0.15403 -0.0036,-0.30804 -0.0055,-0.46206 -0.0052,-0.18601 -0.01069,-0.37201 -0.01564,-0.55802 -0.0058,-0.2172 1.13e-4,-0.43497 -0.01654,-0.6516 -0.05579,-0.7261 -0.241022,-1.44038 -0.387958,-2.15145 -0.01344,-0.064 -0.109562,-0.533125 -0.138515,-0.636114 -0.01087,-0.03863 -0.03405,-0.15 -0.04537,-0.111503 -0.01373,0.04673 -0.0096,0.157022 0.03656,0.141467 0.517141,-0.174281 0.97123,-0.519017 1.498724,-0.658871 0.08645,-0.02291 -0.01479,0.178263 -0.02217,0.267396 -0.02954,0.858735 -0.03823,1.719085 -0.0067,2.577845 0.01349,0.62879 0.09442,1.25164 0.197882,1.87102 0.04499,0.26918 0.06133,0.5424 0.07956,0.81449 0.0555,0.22711 0.149227,0.45418 0.226428,0.67799 0,0 -1.557735,0.70543 -1.557735,0.70543 v 0 c -0.05896,-0.17889 -0.115567,-0.35966 -0.193797,-0.53139 -0.02043,-0.0448 -0.05051,-0.0853 -0.06728,-0.13165 -0.0061,-0.0168 1.64e-4,-0.0357 2.44e-4,-0.0536 -0.0029,-0.26894 -0.01765,-0.53798 -0.05567,-0.80445 -0.08202,-0.63165 -0.162996,-1.26306 -0.17408,-1.90107 -0.03503,-0.85982 -0.0082,-1.72083 -0.01998,-2.5812 -0.0011,-0.84787 -0.0783,-0.398068 1.533798,-1.217239 0.08546,-0.04342 0.132971,0.306676 0.172244,0.529185 0.02196,0.124386 0.04416,0.248732 0.06624,0.373097 0.136845,0.724207 0.307211,1.451497 0.373034,2.186727 0.01921,0.21456 0.01839,0.43044 0.02869,0.64561 0.0088,0.18453 0.01916,0.36898 0.02874,0.55346 0.0089,0.15322 0.01961,0.30634 0.02661,0.45965 0.0048,0.10564 0.09404,0.2544 0.0089,0.31712 -1.808197,1.33215 -1.572075,1.32541 -1.58542,0.47774 -0.0075,-0.36729 -0.03007,-0.73364 -0.06694,-1.0992 -0.05565,-0.71629 -0.05252,-1.43162 0.01312,-2.14803 0.04459,-0.56484 0.08581,-1.13859 0.256016,-1.683044 0.02946,-0.09424 0.02254,-0.224383 0.106445,-0.276427 0.532749,-0.330416 1.123502,-0.556537 1.685255,-0.834805 0.05451,0.03102 0.122648,0.04551 0.163544,0.09306 0.179113,0.20828 0.06589,0.801769 0.09281,1.08 -0.0033,0.471346 -5.3e-4,0.942726 0.0039,1.414056 0.01418,0.63075 0.03097,1.26134 0.07784,1.89074 0.0459,0.74784 0.04105,1.49497 0.04773,2.24404 0.0081,0.23885 0.01127,0.42052 0.02957,0.65495 0.06145,0.78799 0.228766,0.11828 -1.457275,0.97928 0.318267,-0.37743 0.304318,-0.93881 0.457152,-1.38879 0.05168,-0.71963 0.186278,-1.4312 0.196739,-2.15348 -0.0062,-0.8327 -0.04144,-1.66786 0.02244,-2.49903 0.09464,-0.60294 0.219355,-1.200083 0.432871,-1.773602 0.02702,-0.09227 0.06415,-0.18217 0.08105,-0.27682 0.02656,-0.148722 0.02768,-0.490167 0.03343,-0.637804 0.01476,-0.379146 0.04316,-0.757698 0.05587,-1.136947 0.04256,-0.82337 0.08983,-1.645697 0.05908,-2.470719 -0.0063,-0.713684 -0.0086,-1.427953 -0.0632,-2.140053 -0.0771,-0.891799 -0.219231,-1.773576 -0.366946,-2.656043 -0.0633,-1.133324 -0.182565,-2.262156 -0.359238,-3.383701 -0.12805,-1.323401 -0.146592,-2.654363 -0.17337,-3.983196 0,0 1.574532,-0.64071 1.574532,-0.64071 z"
         id="path880"
         style="opacity:1;fill:#000000;fill-opacity:1;fill-rule:evenodd;stroke:#000000;stroke-width:1;stroke-miterlimit:4;stroke-dasharray:none;stroke-dashoffset:0;stroke-opacity:1" />
      <path
         inkscape:connector-curvature="0"
         d="m 82.334514,27.372122 c 0.05441,0.237418 0.02164,0.120221 0.09833,0.351583 0,0 -1.557236,0.705488 -1.557236,0.705488 v 0 c -0.08406,-0.243014 -0.04714,-0.122605 -0.111768,-0.360923 0,0 1.570677,-0.696148 1.570677,-0.696148 z"
         id="path882"
         style="opacity:1;fill:#000000;fill-opacity:1;fill-rule:evenodd;stroke:#000000;stroke-width:1;stroke-miterlimit:4;stroke-dasharray:none;stroke-dashoffset:0;stroke-opacity:1" />
      <path
         inkscape:connector-curvature="0"
         d="m 82.325511,39.359853 c -0.121994,-0.630772 -0.250439,-1.26423 -0.517187,-1.853372 -0.254076,-0.561152 -0.628113,-1.064723 -0.957514,-1.582171 -0.420557,-0.592707 -0.808717,-1.208834 -1.068387,-1.890808 -0.02421,-0.06361 -0.331735,-1.006967 -0.342784,-1.040768 -0.24629,-0.716047 -0.368633,-1.467101 -0.585295,-2.191361 -0.06113,-0.204332 -0.210354,-0.591166 -0.286306,-0.793194 -0.28961,-0.790088 -0.391194,-1.623785 -0.479777,-2.454709 -0.06471,-0.985771 -0.34069,-1.943182 -0.536638,-2.908803 -0.191267,-0.892543 -0.249031,-1.798781 -0.246563,-2.709055 0.05278,-0.999775 0.139724,-1.997114 0.189122,-2.997116 0.05773,-0.729175 0.0047,-1.46231 0.04086,-2.191538 0.08052,-0.342833 0.341717,-0.583586 0.523475,-0.87024 0.182025,-0.322645 0.35266,-0.650056 0.487005,-0.99546 0.1172,-0.424567 0.286549,-0.824457 0.455581,-1.229795 0.08404,-0.238158 0.206208,-0.462345 0.281869,-0.703592 0.01453,-0.04632 0.01699,-0.09671 0.03743,-0.140736 0.02924,-0.06299 0.07334,-0.117947 0.110008,-0.17692 0.289491,-0.28694 0.623342,-0.517246 0.994143,-0.686263 1.75102,-0.798145 1.138632,-0.638244 1.948021,-0.833056 0.504886,-0.04265 1.012415,-0.0203 1.518301,-0.01285 0.497589,0.0077 0.995288,0.01068 1.492938,0.01132 0.453842,-0.0014 0.907685,0.002 1.361522,0.0051 0.772692,0.0045 1.545338,0.0066 2.318022,-5.29e-4 0.215736,-2.5e-4 0.426548,0.05477 0.641324,0.06468 0.133842,0.0062 0.399145,-0.01117 0.532011,0.01137 0.08358,0.01418 0.162033,0.0499 0.243051,0.07485 0.36775,0.209715 0.733333,0.441195 0.999533,0.778216 0.155532,0.196913 0.32054,0.492029 0.448365,0.708326 0.250039,0.375403 0.448085,0.780085 0.664771,1.174195 0.151752,0.276006 0.330822,0.536485 0.480634,0.813548 0.07384,0.136559 0.135242,0.279484 0.202864,0.419226 0.176438,0.546989 0.487331,1.034693 0.668211,1.580095 0.134061,0.404241 0.123213,0.4419 0.194074,0.865892 0.06885,0.561824 0.07851,1.127945 0.07657,1.693186 -5.29e-4,0.14141 0.0072,0.283247 -0.004,0.424216 -0.01045,0.131731 -0.04052,0.261165 -0.06077,0.391748 -0.165533,0.573293 -0.23604,1.167788 -0.3635,1.748831 -0.07263,0.331083 -0.189524,0.712466 -0.284633,1.038671 -0.278255,1.064596 -0.830618,2.02006 -1.276647,3.016896 -0.348541,0.679747 -0.641262,1.381454 -0.813379,2.127433 -0.08235,0.356939 -0.148183,0.792338 -0.207664,1.153507 -0.09727,0.868534 -0.411906,1.689248 -0.616294,2.535462 -0.291872,0.788853 -0.64008,1.557687 -1.057553,2.287736 -0.473821,0.825786 -1.095083,1.550054 -1.677921,2.298475 -0.15354,0.238451 -0.389228,0.429085 -0.510294,0.690078 -0.189206,0.407893 -0.186351,0.894242 -0.221951,1.330754 -0.04734,1.067115 -0.04539,2.135968 -0.02913,3.203805 0.0035,0.391845 0.0063,0.783683 0.01098,1.175515 0,0 -1.55602,0.645356 -1.55602,0.645356 v 0 c 0.0011,-0.393341 1.88e-4,-0.786668 -2.64e-4,-1.18001 0.0074,-1.074232 -0.0039,-2.149057 0.04539,-3.222543 0.01987,-0.444818 -0.0061,-0.956736 0.148052,-1.385382 0.103397,-0.287423 0.358035,-0.477544 0.52696,-0.721493 0.590625,-0.738571 1.207048,-1.464162 1.691101,-2.279375 0.08149,-0.133027 0.172016,-0.260926 0.244475,-0.399081 0.07407,-0.141232 0.126431,-0.292886 0.194159,-0.437266 0.217252,-0.463124 0.431035,-0.92691 0.626454,-1.400271 0.05926,-0.25586 0.116168,-0.515985 0.187785,-0.768858 0.165828,-0.585515 0.418489,-1.149612 0.458121,-1.765599 0.19263,-1.189683 0.400624,-2.250019 0.999257,-3.318092 0.43929,-0.993825 1.001601,-1.937774 1.28174,-2.996051 0.09229,-0.30211 0.223988,-0.710722 0.289827,-1.018838 0.123682,-0.578805 0.169304,-1.176022 0.346662,-1.744265 0.02553,-0.122381 0.06411,-0.242751 0.0766,-0.367141 0.01405,-0.139999 0.0021,-0.281399 0.0026,-0.422101 0.0021,-0.557095 0.0021,-1.115844 -0.06134,-1.670175 -0.06674,-0.413787 -0.05354,-0.43822 -0.184227,-0.833493 -0.17876,-0.5407 -0.483846,-1.026519 -0.656338,-1.569492 -0.205971,-0.425461 -0.450401,-0.816396 -0.680543,-1.228549 -0.21798,-0.390373 -0.415954,-0.792437 -0.66942,-1.162522 -0.142581,-0.242941 -0.251034,-0.452089 -0.435808,-0.667926 -0.260369,-0.30414 -0.607378,-0.532173 -0.971058,-0.690272 -0.454059,-0.09327 -0.926518,-0.05329 -1.386086,-0.118843 -0.772255,-0.0073 -1.544479,-0.0046 -2.316742,-2.64e-4 -0.458311,0.003 -0.916657,0.0072 -1.37496,0.0021 -0.495065,-0.0042 -0.990034,-0.01215 -1.485088,-0.01797 -0.500774,-0.0068 -1.009806,-0.03459 -1.504119,0.05971 -0.641959,0.192741 -0.187394,0.06635 1.112853,-0.566826 0.08983,-0.04374 -0.183012,0.08038 -0.272714,0.124381 -0.303815,0.149036 -0.256331,0.123889 -0.515128,0.324645 -0.07079,0.05491 -0.140252,0.111522 -0.210378,0.167283 -0.04432,0.03284 -0.102036,0.05285 -0.132971,0.09853 -0.02903,0.04286 -0.02307,0.100947 -0.03607,0.151059 -0.01458,0.05626 -0.02677,0.11339 -0.04665,0.168007 -0.04177,0.114771 -0.102468,0.221768 -0.150953,0.333869 -0.03098,0.07163 -0.06071,0.143793 -0.09107,0.215689 -0.08115,0.227428 -0.193979,0.407858 -0.271222,0.623325 -0.0702,0.195825 -0.09799,0.408524 -0.175244,0.602654 -0.132345,0.350117 -0.288761,0.684756 -0.474237,1.010457 -0.128127,0.306549 -0.414305,0.509104 -0.556532,0.811991 -0.09255,0.727338 -0.02154,1.469395 -0.0784,2.199689 -0.04748,0.999214 -0.150424,1.993966 -0.199652,2.993008 -2.65e-4,0.89745 0.06654,1.793111 0.2414,2.674917 0.09275,0.462709 0.185301,0.924932 0.285661,1.386067 0.04561,0.209574 0.187594,0.844853 0.219072,1.05868 0.02318,0.15738 0.02937,0.316792 0.04405,0.475187 0.09202,0.816705 0.16987,1.641097 0.462243,2.417167 0.104563,0.283919 0.198522,0.522748 0.281136,0.815232 0.204496,0.723995 0.319206,1.472893 0.571351,2.183886 0.117571,0.34077 0.217985,0.687578 0.345062,1.024919 0.253992,0.674257 0.63477,1.285346 1.049891,1.870713 0.330043,0.528489 0.698873,1.050317 0.956511,1.619861 0.272192,0.601718 0.398616,1.249736 0.586949,1.878706 0,0 -1.558653,0.654759 -1.558653,0.654759 z"
         id="path884"
         style="opacity:1;fill:#000000;fill-opacity:1;fill-rule:evenodd;stroke:#000000;stroke-width:1;stroke-miterlimit:4;stroke-dasharray:none;stroke-dashoffset:0;stroke-opacity:1" />
      <path
         transform="scale(0.26458333)"
         inkscape:connector-curvature="0"
         id="path886"
         d="m 320.32941,139.84825 c -1.1651,-2.78452 -1.68619,-14.01858 -0.7779,-16.77072 0.33735,-1.02219 0.52231,-1.94957 0.41101,-2.06086 -0.11129,-0.1113 -2.60736,0.79152 -5.54681,2.00626 l -5.34446,2.20862 -1.04767,-3.61392 c -0.57622,-1.98766 -1.40276,-5.02715 -1.83675,-6.75442 -0.43399,-1.72726 -0.91967,-3.48079 -1.07928,-3.89672 -0.21494,-0.56013 0.86024,-1.28775 4.14604,-2.80579 2.43994,-1.12726 4.517,-2.13031 4.61571,-2.22902 0.17114,-0.17114 -0.87555,-4.91564 -1.16272,-5.27052 -0.0756,-0.0935 -2.18287,0.73791 -4.68272,1.84753 l -4.54518,2.01748 -0.33746,-2.60515 c -0.18561,-1.43283 -0.87611,-5.332551 -1.53445,-8.666054 -1.36873,-6.930531 -1.48662,-9.610694 -0.97758,-22.223356 0.35679,-8.840166 0.40651,-9.152221 1.7992,-11.293507 0.78774,-1.211174 1.80992,-3.256732 2.2715,-4.545687 0.46159,-1.288953 1.3122,-3.546555 1.89026,-5.016891 l 1.05101,-2.673339 14.26037,0.147957 14.26038,0.147958 1.46935,1.408496 c 1.70773,1.636994 6.43905,9.746298 8.46075,14.501407 3.62463,8.525263 1.93184,20.872666 -4.674,34.092648 -2.43042,4.863878 -3.37699,7.723578 -4.41552,13.339728 -2.03116,10.98418 -5.03616,17.50341 -11.98917,26.01002 -1.61017,1.96996 -2.92786,3.86584 -2.9282,4.21308 -0.001,1.3176 -0.89206,0.54884 -1.75571,-1.51523 z"
         style="opacity:1;fill:#000000;fill-opacity:1;fill-rule:evenodd;stroke:#000000;stroke-width:1.90894973;stroke-miterlimit:4;stroke-dasharray:none;stroke-dashoffset:0;stroke-opacity:1" />
      <path
         inkscape:connector-curvature="0"
         d="m 77.685298,19.282714 c -0.0034,-0.104463 0.0059,-0.210091 -0.01005,-0.313389 -0.02196,-0.14253 -0.06637,-0.280711 -0.102957,-0.420203 -0.243991,-0.930228 -0.615151,-1.807188 -0.992759,-2.689618 -0.532852,-1.06004 -0.64915,-2.207048 -0.724286,-3.371143 0.01011,-0.921594 -0.08238,-1.84921 -0.04016,-2.7706601 0.01937,-0.4226544 0.0953,-0.8668009 0.156628,-1.2843253 0.170392,-0.9982737 0.268025,-2.0096477 0.517528,-2.992665 0.128341,-0.3726217 0.322466,-0.7175172 0.486664,-1.0751182 0.123586,-0.2404367 0.318886,-0.4416467 0.506457,-0.6343692 0.942388,-0.7800933 2.183794,-1.202274 3.262477,-1.6882367 0.389331,-0.1753995 0.792876,-0.229732 1.21181,-0.2660455 0.533172,0.010554 1.076695,-0.092262 1.60987,-0.050911 0.408575,0.031687 0.829157,0.1800584 1.224193,0.2821237 0.385347,0.060288 0.756306,0.1830595 1.13589,0.2684593 0.11416,0.025684 0.232403,0.03421 0.344329,0.068337 0.243758,0.074323 0.473369,0.1891096 0.71265,0.2767747 0.76128,0.3100658 1.564561,0.3772091 2.375805,0.4199285 0.647872,0.024873 1.296241,0.033268 1.944545,0.034755 0.24548,5.556e-4 0.821986,-0.012674 1.075637,0.024575 0.150548,0.022109 0.294566,0.076456 0.441849,0.1146836 0.634359,0.2297848 0.767326,0.6365545 0.980498,1.2242478 0.109082,0.3007235 0.226872,0.5982258 0.337563,0.8983601 0.330277,0.9705337 0.800489,1.8814359 1.216906,2.8164766 0.466259,0.5740384 0.797528,1.2248883 1.1411,1.8734317 0.614276,0.902623 0.716995,1.943247 0.743702,3.003834 -0.113787,1.481416 -0.631304,2.889492 -1.308928,4.200271 -0.310468,0.492968 -0.529535,1.035955 -0.814663,1.542384 -0.271796,0.482756 -0.308885,0.454252 -0.564713,0.952276 -0.08884,0.172943 -0.161949,0.353523 -0.242922,0.530285 -0.371023,1.105281 -0.857319,2.166729 -1.21107,3.277895 -0.04556,0.389245 -0.295624,0.796576 -0.263408,1.196167 0,0 -2.328651,0.767839 -2.328651,0.767839 v 0 c 0.09698,0.0566 0.0465,0.04941 0.09393,-0.12249 0.09158,-0.331942 0.171773,-0.666815 0.270193,-0.996903 0.34609,-1.124085 0.868725,-2.181865 1.213043,-3.306545 0.225885,-0.537743 0.210111,-0.553415 0.50347,-1.047257 0.09063,-0.152563 0.198316,-0.29457 0.288557,-0.447362 0.299212,-0.506607 0.512535,-1.059355 0.836785,-1.552193 0.698227,-1.262351 1.214517,-2.643933 1.355674,-4.086878 -0.03492,-1.025288 -0.135252,-2.023946 -0.75239,-2.883305 C 93.983076,10.395736 93.632122,9.7534477 93.187127,9.1587078 92.7904,8.2098712 92.302064,7.3029635 91.968012,6.3289028 91.283014,4.467842 92.330938,7.3042411 91.62471,5.4286663 91.428611,4.9078718 91.3244,4.596412 90.753051,4.4192766 89.629519,4.1927248 88.464048,4.366357 87.32622,4.2728562 86.490669,4.2285258 85.674839,4.1324958 84.896054,3.8032565 84.184214,3.5485371 83.454795,3.364058 82.714125,3.2100496 82.32917,3.1120678 81.934956,2.9945726 81.535407,2.9755475 c -0.532107,-0.025336 -1.06952,0.043396 -1.599274,0.075769 -0.409361,0.071068 -0.428324,0.054953 -0.783283,0.1779974 -0.130662,0.045293 -0.511239,0.2099299 -0.387512,0.1481613 3.24417,-1.6195746 1.673135,-0.8588797 1.022575,-0.3901588 -0.194709,0.1737347 -0.338069,0.3687252 -0.521748,0.5462156 -0.17119,0.3511349 -0.336838,0.704609 -0.525327,1.0468496 -0.306499,0.9703745 -0.397944,1.9823425 -0.572686,2.9812758 -0.04319,0.2820429 -0.154408,0.963323 -0.171455,1.251889 -0.05408,0.9154467 0.03255,1.8400536 0.04045,2.7553246 0.06617,1.136805 0.196186,2.257411 0.681921,3.303768 0.362675,0.894691 0.746819,1.780615 1.036228,2.702203 0.04767,0.151797 0.105288,0.301027 0.140303,0.456233 0.02373,0.105173 0.02344,0.214354 0.03517,0.321532 0,0 -2.245474,0.930106 -2.245474,0.930106 z"
         id="path890"
         style="opacity:1;fill:#000000;fill-opacity:1;fill-rule:evenodd;stroke:#000000;stroke-width:1;stroke-miterlimit:4;stroke-dasharray:none;stroke-dashoffset:0;stroke-opacity:1" />
      <path
         transform="scale(0.26458333)"
         inkscape:connector-curvature="0"
         id="path892"
         d="M 352.07729,49.541124 C 348.548,38.56994 324.00154,33.635697 306.3459,40.348361 c -7.05773,2.683343 -7.32724,2.392668 -7.28511,-7.857142 0.0733,-17.83633 2.15546,-19.105316 24.16853,-14.729815 18.82902,3.742612 19.23917,4.020432 26.19229,17.741755 3.88505,7.666782 6.54906,15.44499 5.92002,17.284905 -0.62904,1.839914 -2.098,0.378791 -3.26434,-3.24694 z"
         style="opacity:1;fill:#000000;fill-opacity:1;fill-rule:evenodd;stroke:#000000;stroke-width:10.79865074;stroke-miterlimit:4;stroke-dasharray:none;stroke-dashoffset:0;stroke-opacity:1" />
      <path
         transform="scale(0.26458333)"
         inkscape:connector-curvature="0"
         id="path894"
         d="m 318.01425,403.97167 c -0.35561,-1.12043 -1.21616,-1.74186 -1.99712,-1.44218 -3.30596,1.26862 -3.97725,-8.28273 -2.55471,-36.34924 1.18943,-23.46726 1.11583,-28.34332 -0.96978,-64.24499 -1.58967,-27.36472 -2.69853,-39.95407 -3.75073,-42.5838 -1.80986,-4.52327 -1.92212,-13.81405 -0.48684,-40.28926 3.32516,-61.33567 2.82643,-71.56784 -4.04719,-83.0331 -7.30203,-12.17985 -11.85296,-31.70927 -12.90001,-55.357795 -0.53668,-12.121494 -1.05471,-15.605242 -3.00415,-20.203051 -2.9737,-7.013574 -3.86231,-19.854304 -2.17332,-31.405381 1.77446,-12.135614 3.54782,-15.006703 12.01829,-19.457813 10.63618,-5.5891519 16.70196,-5.7938666 31.24872,-1.0546169 2.38065,0.7756011 7.83547,1.4168849 12.12183,1.4250753 4.28636,0.00819 8.89146,0.5764006 10.23356,1.2626906 1.66253,0.85014 3.59647,3.984152 6.06844,9.834096 1.99554,4.722463 5.09109,11.084315 6.879,14.137448 1.78791,3.053135 3.5488,7.538717 3.91309,9.967962 0.86112,5.742376 -1.58127,14.615274 -6.58712,23.930121 -2.10577,3.918393 -5.06796,10.964207 -6.58266,15.657364 -1.5147,4.693157 -3.84705,10.62597 -5.18301,13.18403 -1.33595,2.55806 -3.09606,7.82212 -3.91136,11.69792 -2.23865,10.64217 -5.20868,17.67105 -10.58009,25.03885 l -4.86055,6.66708 -0.52025,13.63374 c -0.43256,11.33595 -0.83301,13.97934 -2.37601,15.68435 -1.54955,1.71223 -1.92564,4.24872 -2.27923,15.37182 -0.69886,21.98495 -0.40742,37.52148 0.78225,41.70099 1.49166,5.24043 3.24091,60.06749 2.44634,76.67611 -0.49972,10.44546 -0.1654,16.81355 1.63419,31.12775 2.04919,16.2996 2.14785,19.1083 1.04677,29.7995 -0.66861,6.49205 -1.56482,16.34942 -1.99157,21.90526 -1.0418,13.56299 -1.53426,15.03405 -5.69755,17.01939 -4.47414,2.13357 -5.17804,2.09797 -5.93923,-0.30032 z m 4.52933,-260.67091 c 0,-0.55558 -0.4814,-1.01015 -1.06977,-1.01015 -0.58837,0 -0.78883,0.45457 -0.44546,1.01015 0.34337,0.55559 0.82476,1.01016 1.06977,1.01016 0.245,0 0.44546,-0.45457 0.44546,-1.01016 z m -17.89006,-35.35534 c -0.29057,-1.11116 -0.70259,-2.0203 -0.91558,-2.0203 -0.21299,0 -0.38726,0.90914 -0.38726,2.0203 0,1.11117 0.41201,2.02031 0.91558,2.02031 0.50357,0 0.67784,-0.90914 0.38726,-2.02031 z m -4.63055,-27.526653 c -0.24078,-1.250064 -0.43777,-0.227284 -0.43777,2.272843 0,2.500128 0.19699,3.522907 0.43777,2.272844 0.24077,-1.250064 0.24077,-3.295623 0,-4.545687 z m 48.46447,-12.058696 c -0.32247,-0.805832 -0.56183,-0.566469 -0.6103,0.610301 -0.0439,1.064868 0.19489,1.66149 0.53055,1.325825 0.33567,-0.335665 0.37156,-1.206922 0.0797,-1.936126 z m 7.89625,-8.901969 c 0.34337,-0.555584 0.14291,-1.010153 -0.44546,-1.010153 -0.58837,0 -1.06977,0.454569 -1.06977,1.010153 0,0.555584 0.20046,1.010152 0.44546,1.010152 0.245,0 0.7264,-0.454568 1.06977,-1.010152 z m -58.109,-13.561272 c -1.35872,-1.358719 -2.36924,0.01751 -1.56045,2.12518 0.58033,1.512318 0.82294,1.558555 1.59795,0.304548 0.55117,-0.891801 0.53629,-1.855942 -0.0375,-2.429728 z m 12.88363,0.82914 c -0.33567,-0.335664 -1.20692,-0.371552 -1.93613,-0.07975 -0.80583,0.322467 -0.56647,0.561829 0.6103,0.610301 1.06487,0.04386 1.66149,-0.194887 1.32583,-0.530553 z"
         style="opacity:1;fill:#000000;fill-opacity:1;fill-rule:evenodd;stroke:#000000;stroke-width:3.81789947;stroke-miterlimit:4;stroke-dasharray:none;stroke-dashoffset:0;stroke-opacity:1" />
    </g>
  </g>
</svg>
