<?xml version="1.0" encoding="UTF-8" standalone="no"?>
<!-- Created with Inkscape (http://www.inkscape.org/) -->

<svg
   xmlns:osb="http://www.openswatchbook.org/uri/2009/osb"
   xmlns:dc="http://purl.org/dc/elements/1.1/"
   xmlns:cc="http://creativecommons.org/ns#"
   xmlns:rdf="http://www.w3.org/1999/02/22-rdf-syntax-ns#"
   xmlns:svg="http://www.w3.org/2000/svg"
   xmlns="http://www.w3.org/2000/svg"
   xmlns:sodipodi="http://sodipodi.sourceforge.net/DTD/sodipodi-0.dtd"
   xmlns:inkscape="http://www.inkscape.org/namespaces/inkscape"
   width="210mm"
   height="297mm"
   viewBox="0 0 210 297"
   version="1.1"
   id="svg8"
   inkscape:version="0.92.3 (2405546, 2018-03-11)"
   sodipodi:docname="player.svg">
  <defs
     id="defs2">
    <linearGradient
       id="linearGradient2435"
       osb:paint="solid">
      <stop
         style="stop-color:#3200ff;stop-opacity:1;"
         offset="0"
         id="stop2433" />
    </linearGradient>
    <linearGradient
       id="linearGradient2325"
       osb:paint="solid">
      <stop
         style="stop-color:#6d2029;stop-opacity:1;"
         offset="0"
         id="stop2323" />
    </linearGradient>
  </defs>
  <sodipodi:namedview
     id="base"
     pagecolor="#ffffff"
     bordercolor="#666666"
     borderopacity="1.0"
     inkscape:pageopacity="0.0"
     inkscape:pageshadow="2"
     inkscape:zoom="0.7"
     inkscape:cx="475.64124"
     inkscape:cy="635.98843"
     inkscape:document-units="mm"
     inkscape:current-layer="layer1"
     showgrid="false"
     inkscape:window-width="956"
     inkscape:window-height="1041"
     inkscape:window-x="960"
     inkscape:window-y="18"
     inkscape:window-maximized="0" />
  <metadata
     id="metadata5">
    <rdf:RDF>
      <cc:Work
         rdf:about="">
        <dc:format>image/svg+xml</dc:format>
        <dc:type
           rdf:resource="http://purl.org/dc/dcmitype/StillImage" />
        <dc:title />
      </cc:Work>
    </rdf:RDF>
  </metadata>
  <g
     inkscape:label="Layer 1"
     inkscape:groupmode="layer"
     id="layer1">
    <g
       id="g870"
       inkscape:export-xdpi="96"
       inkscape:export-ydpi="96">
      <path
         inkscape:connector-curvature="0"
         id="path815"
         d="m 105.56823,14.465787 c -11.904149,0.03889 -67.161176,85.2581 -66.541673,100.560883 -5.950281,22.61297 -4.377674,106.00223 2.698544,114.02822 7.8828,8.94084 109.866359,4.36015 117.755599,-3.99148 6.76834,-7.16504 7.63541,-83.50617 2.61121,-110.42845 -0.1416,-18.430034 -45.32793,-98.828974 -56.24153,-100.153153 -0.0911,-0.01105 -0.18526,-0.01634 -0.28215,-0.01602 z"
         style="opacity:1;fill:#6d2029;fill-opacity:1;stroke:none;stroke-width:0.98361182;stroke-miterlimit:4;stroke-dasharray:none;stroke-dashoffset:0;stroke-opacity:1" />
      <path
         id="path815-3"
         d="m 106.3574,38.952447 c -8.926288,0.03233 -50.360576,70.867773 -49.896043,83.587663 -4.461797,18.79619 -3.282583,88.11052 2.023493,94.78184 5.91089,7.43175 82.3829,3.62422 88.29862,-3.31778 5.07522,-5.95568 5.72539,-69.4115 1.95801,-91.78965 -0.10618,-15.31932 -33.989,-82.148083 -42.17251,-83.248758 -0.0683,-0.0092 -0.13892,-0.01357 -0.21157,-0.01332 z"
         style="opacity:1;fill:#ad7f5f;fill-opacity:1;stroke:none;stroke-width:0.77654451;stroke-miterlimit:4;stroke-dasharray:none;stroke-dashoffset:0;stroke-opacity:1"
         inkscape:connector-curvature="0" />
      <path
         inkscape:connector-curvature="0"
         d="m 95.794122,71.313081 c 4.527558,0.04554 9.055408,0.0371 13.583138,0.04153 0,0 -3.67993,2.255067 -3.67993,2.255067 v 0 c -4.57291,0.0044 -9.14593,-0.0036 -13.718671,0.04153 0,0 3.815463,-2.338121 3.815463,-2.338121 z"
         id="path2367"
         style="opacity:1;fill:#ad7f5f;fill-opacity:1;stroke:none;stroke-width:1;stroke-miterlimit:4;stroke-dasharray:none;stroke-dashoffset:0;stroke-opacity:1" />
      <path
         inkscape:connector-curvature="0"
         d="m 92.682482,69.043636 c 5.822648,0.04337 11.645598,0.047 17.468398,0.05789 4.11308,0.01077 8.22615,0.0038 12.33921,-0.0073 0,0 -3.65561,2.240166 -3.65561,2.240166 v 0 c -4.1051,-0.01117 -8.21019,-0.01807 -12.3153,-0.0073 -5.88578,0.01095 -11.771712,0.01484 -17.65735,0.05789 0,0 3.820652,-2.341298 3.820652,-2.341298 z"
         id="path2377"
         style="opacity:1;fill:#6d2029;fill-opacity:1;stroke:none;stroke-width:1;stroke-miterlimit:4;stroke-dasharray:none;stroke-dashoffset:0;stroke-opacity:1" />
      <path
         inkscape:connector-curvature="0"
         d="m 86.49373,94.001189 c 4.494167,0.03887 1.84789,0.01635 7.938844,0.06661 0,0 -3.566959,2.185836 -3.566959,2.185836 v 0 c -6.256173,0.05026 -3.537434,0.02775 -8.156226,0.06661 0,0 3.784341,-2.319049 3.784341,-2.319049 z"
         id="path2379"
         style="opacity:1;fill:#6d2029;fill-opacity:1;stroke:none;stroke-width:1;stroke-miterlimit:4;stroke-dasharray:none;stroke-dashoffset:0;stroke-opacity:1" />
      <path
         inkscape:connector-curvature="0"
         d="m 115.62455,97.01864 c 6.05045,0.03875 12.10099,0.04987 18.15156,0.04975 4.07455,-0.04699 8.26777,0.328443 12.2262,-0.922782 0.71399,-0.22569 1.36893,-0.607383 2.0534,-0.911072 0,0 -3.64445,2.437911 -3.64445,2.437911 v 0 c -0.69531,0.276344 -1.36711,0.621398 -2.08593,0.829035 -3.9698,1.146704 -8.12689,0.743865 -12.19196,0.799181 -6.10468,-1.24e-4 -12.20934,0.01138 -18.31391,0.04975 0,0 3.80509,-2.331763 3.80509,-2.331763 z"
         id="path2381"
         style="opacity:1;fill:#6d2029;fill-opacity:1;stroke:none;stroke-width:1;stroke-miterlimit:4;stroke-dasharray:none;stroke-dashoffset:0;stroke-opacity:1" />
      <path
         inkscape:connector-curvature="0"
         d="m 66.092794,118.52805 c 0.430477,0.12024 0.851882,0.2797 1.291431,0.36071 2.173981,0.40069 5.124027,0.60777 7.196315,0.73689 6.583095,0.41016 13.142992,0.43007 19.735154,0.36488 5.054648,-0.15179 10.136076,-0.25561 15.174656,-0.73847 4.37838,-0.41959 8.75185,-1.11747 13.11036,-1.70567 3.57284,-0.48012 7.08101,-1.38398 10.66269,-1.808 1.37312,-0.16256 3.36938,-0.27086 4.749,-0.35865 3.17145,-0.12627 1.62686,-0.0726 4.63368,-0.16329 0,0 -3.73526,2.30404 -3.73526,2.30404 v 0 c -2.98886,0.0849 -1.45063,0.0296 -4.61452,0.17022 -5.15087,0.35038 -10.20708,1.25226 -15.29179,2.12555 -4.36057,0.5745 -8.73163,1.2727 -13.1124,1.67277 -5.00032,0.45665 -10.039486,0.51633 -15.054202,0.6369 -6.63548,0.051 -13.251648,0.0372 -19.880514,-0.31708 -2.229652,-0.11914 -5.128331,-0.28171 -7.42393,-0.70376 -0.463767,-0.0853 -0.906876,-0.25881 -1.360311,-0.38821 0,0 3.919641,-2.18883 3.919641,-2.18883 z"
         id="path2383"
         style="opacity:1;fill:#6d2029;fill-opacity:1;stroke:none;stroke-width:1;stroke-miterlimit:4;stroke-dasharray:none;stroke-dashoffset:0;stroke-opacity:1" />
      <path
         inkscape:connector-curvature="0"
         d="m 65.335707,134.47168 c 5.005631,-1.31491 10.225128,-1.41421 15.367008,-1.63377 7.965279,-0.0635 15.902641,-0.5417 23.795245,-1.61133 5.83114,-0.95719 11.70819,-1.35101 17.60633,-1.5407 1.06288,-0.0219 2.12571,-0.0465 3.18865,-0.0658 3.52953,-0.0641 2.36419,0.0592 5.90241,-0.35418 1.28875,-0.15057 5.20618,-0.71142 6.40172,-0.76617 1.24164,-0.0569 2.48566,0.0333 3.72849,0.0499 4.42811,0.29488 2.30723,0.11342 6.3642,0.52566 0,0 -3.72388,2.22967 -3.72388,2.22967 v 0 c -4.00695,-0.41965 -1.9091,-0.23935 -6.29543,-0.51856 -1.23965,0.001 -2.48123,-0.065 -3.71894,0.004 -0.92523,0.0518 -5.37277,0.65979 -6.42908,0.77599 -3.47278,0.38202 -2.46611,0.25669 -5.90899,0.3191 -1.06299,0.0193 -2.12579,0.048 -3.18869,0.072 -5.88506,0.20975 -11.74828,0.64849 -17.57067,1.56815 -7.900926,1.02072 -15.843242,1.44483 -23.807708,1.57492 -5.172578,0.2398 -10.450356,0.35321 -15.447187,1.84909 0,0 3.736522,-2.47837 3.736522,-2.47837 z"
         id="path2385"
         style="opacity:1;fill:#6d2029;fill-opacity:1;stroke:none;stroke-width:1;stroke-miterlimit:4;stroke-dasharray:none;stroke-dashoffset:0;stroke-opacity:1" />
      <path
         inkscape:connector-curvature="0"
         d="m 82.085936,84.807233 c 0.548626,-0.03428 1.099441,-0.04312 1.645883,-0.102856 2.782847,-0.304192 5.536181,-0.773817 8.33235,-0.992405 0.672947,-0.05261 9.471471,-0.571405 9.663241,-0.58279 8.39283,-0.319066 16.59573,-2.21462 24.88439,-3.401874 0.7978,-0.106453 1.59561,-0.212903 2.39341,-0.319353 0,0 -3.69986,2.334033 -3.69986,2.334033 v 0 c -0.78581,0.100764 -1.57161,0.20153 -2.35742,0.302297 -8.24884,1.162531 -16.42092,2.981441 -24.771216,3.291163 -1.896174,0.122793 -7.658777,0.482578 -9.763668,0.66617 -2.827893,0.246655 -5.618987,0.713703 -8.435342,1.042083 -0.560327,0.06533 -1.123995,0.09786 -1.685994,0.146785 0,0 3.794226,-2.383253 3.794226,-2.383253 z"
         id="path2387"
         style="opacity:1;fill:#6d2029;fill-opacity:1;stroke:none;stroke-width:1;stroke-miterlimit:4;stroke-dasharray:none;stroke-dashoffset:0;stroke-opacity:1" />
      <path
         inkscape:connector-curvature="0"
         d="m 68.931165,107.60515 c 6.154642,0.0541 12.309567,0.0387 18.464352,0.0318 3.974939,-0.004 7.949859,0.003 11.924792,-0.005 0,0 -3.706162,2.27114 -3.706162,2.27114 v 0 c -3.9699,-0.008 -7.939791,-5.3e-4 -11.909697,-0.005 -6.189337,-0.007 -12.378804,-0.0218 -18.568003,0.0318 0,0 3.794718,-2.32541 3.794718,-2.32541 z"
         id="path2389"
         style="opacity:1;fill:#6d2029;fill-opacity:1;stroke:none;stroke-width:1;stroke-miterlimit:4;stroke-dasharray:none;stroke-dashoffset:0;stroke-opacity:1" />
      <path
         inkscape:connector-curvature="0"
         d="m 103.26582,50.144828 c 4.24715,0.156553 8.49347,0.412752 12.74229,0.579628 0.57902,0.0545 1.15804,0.108995 1.73706,0.163491 0,0 -3.78981,2.273808 -3.78981,2.273808 v 0 c -0.56664,-0.0532 -1.13328,-0.10641 -1.69992,-0.159618 -4.26829,-0.196771 -8.53852,-0.457549 -12.810277,-0.516012 0,0 3.820657,-2.341297 3.820657,-2.341297 z"
         id="path2391"
         style="opacity:1;fill:#6d2029;fill-opacity:1;stroke:none;stroke-width:1;stroke-miterlimit:4;stroke-dasharray:none;stroke-dashoffset:0;stroke-opacity:1" />
      <path
         inkscape:connector-curvature="0"
         d="m 61.524774,156.43955 c 12.814622,-1.2096 25.677187,-1.58922 38.539646,-1.81709 9.07899,0.24415 18.10212,1.34412 27.12174,2.33305 3.33562,0.53458 6.67788,0.29598 10.02538,0.0903 0.44058,-0.0294 0.88115,-0.0588 1.32171,-0.0882 0,0 -3.77694,2.34751 -3.77694,2.34751 v 0 c -0.4364,0.0262 -0.8728,0.0523 -1.3092,0.0785 -3.34656,0.19409 -6.67907,0.38439 -10.00785,-0.19111 -8.9152,-1.09086 -17.8466,-2.20489 -26.834372,-2.44187 -12.958202,0.21643 -25.937361,0.5393 -38.819399,2.07675 0,0 3.739285,-2.38787 3.739285,-2.38787 z"
         id="path2393"
         style="opacity:1;fill:#6d2029;fill-opacity:1;stroke:none;stroke-width:1;stroke-miterlimit:4;stroke-dasharray:none;stroke-dashoffset:0;stroke-opacity:1" />
      <path
         inkscape:connector-curvature="0"
         d="m 66.606954,149.85107 c 1.937554,-0.77493 3.833537,-1.6632 5.81266,-2.32479 0.825196,-0.27585 5.051891,-0.8357 5.695005,-0.91425 3.240196,-0.3958 6.490404,-0.6381 9.746618,-0.84755 8.428902,-0.0718 16.857833,0.17545 25.285953,0.29264 8.27984,0.11109 16.56029,0.14798 24.84073,0.18224 0,0 -3.49806,2.14272 -3.49806,2.14272 v 0 c -8.32274,0.003 -16.64666,0.0333 -24.96846,-0.11051 -8.44208,-0.13439 -16.887755,-0.38735 -25.330487,-0.22471 -4.300286,0.28749 -8.612145,0.60168 -12.862697,1.34737 -0.873136,0.15318 -2.19111,1.3201 -2.604821,0.53609 -0.398004,-0.75425 1.458585,-0.88415 2.187877,-1.32622 0,0 -4.304318,1.24697 -4.304318,1.24697 z"
         id="path2395"
         style="opacity:1;fill:#6d2029;fill-opacity:1;stroke:none;stroke-width:1;stroke-miterlimit:4;stroke-dasharray:none;stroke-dashoffset:0;stroke-opacity:1" />
      <path
         inkscape:connector-curvature="0"
         d="m 136.68788,164.35913 c -7.69573,-0.0598 -15.39186,-0.0529 -23.08779,-0.0656 -8.05226,0.49071 -16.022107,1.78977 -24.052169,2.52586 -3.740335,0.35111 -7.49345,0.53596 -11.249385,0.57625 -4.289758,-0.0127 -8.579442,-0.0286 -12.86924,-0.0241 0,0 3.717232,-2.27722 3.717232,-2.27722 v 0 c 4.312012,0.0164 8.624173,0.0232 12.93604,-0.0242 3.716398,-0.0557 7.430857,-0.20344 11.133391,-0.54494 7.996951,-0.73594 15.942041,-1.98047 23.964631,-2.42575 7.76733,-0.0128 15.53487,-0.006 23.30201,-0.0656 0,0 -3.79472,2.32541 -3.79472,2.32541 z"
         id="path2397"
         style="opacity:1;fill:#6d2029;fill-opacity:1;stroke:none;stroke-width:1;stroke-miterlimit:4;stroke-dasharray:none;stroke-dashoffset:0;stroke-opacity:1" />
      <path
         inkscape:connector-curvature="0"
         d="m 63.376002,180.17181 c 5.882055,-0.7301 11.797258,-0.99615 17.716384,-1.18986 7.833952,-0.24891 15.67181,-0.25524 23.508734,-0.27645 3.91998,-0.0174 7.84,-0.0179 11.76,-0.0313 0,0 -3.73764,2.29005 -3.73764,2.29005 v 0 c -3.88713,-0.0191 -7.77427,-0.0234 -11.66144,-0.0276 -7.832163,0.0143 -15.665478,0.0522 -23.494764,0.28414 -5.983213,0.22088 -11.954581,0.56842 -17.901552,1.28594 0,0 3.810278,-2.33494 3.810278,-2.33494 z"
         id="path2399"
         style="opacity:1;fill:#6d2029;fill-opacity:1;stroke:none;stroke-width:1;stroke-miterlimit:4;stroke-dasharray:none;stroke-dashoffset:0;stroke-opacity:1" />
      <path
         inkscape:connector-curvature="0"
         d="m 128.38791,174.12419 c 5.65911,0.092 11.31329,0.39582 16.97025,0.58273 2.82009,-0.0434 1.48601,0.002 4.00272,-0.12125 0,0 -3.75641,2.3233 -3.75641,2.3233 v 0 c -2.49462,0.0834 -1.17061,0.0576 -3.97232,0.0631 -5.68256,-0.21612 -11.36664,-0.55704 -17.05452,-0.51293 0,0 3.81028,-2.33494 3.81028,-2.33494 z"
         id="path2401"
         style="opacity:1;fill:#6d2029;fill-opacity:1;stroke:none;stroke-width:1;stroke-miterlimit:4;stroke-dasharray:none;stroke-dashoffset:0;stroke-opacity:1" />
      <path
         inkscape:connector-curvature="0"
         d="m 140.64331,193.0885 c -6.14025,-0.0361 -12.28059,-0.0563 -18.42094,-0.0519 -6.65999,0.0122 -13.31999,0.004 -19.97997,0.0241 -0.85713,0.0329 -1.71427,0.0657 -2.571399,0.0986 0,0 3.711629,-2.29247 3.711629,-2.29247 v 0 c 0.85805,-0.0274 1.71609,-0.0548 2.57414,-0.0823 6.63373,0.0199 13.26749,0.0118 19.90123,0.0241 6.19684,0.004 12.39366,-0.0163 18.5904,-0.0519 0,0 -3.80509,2.33177 -3.80509,2.33177 z"
         id="path2403"
         style="opacity:1;fill:#6d2029;fill-opacity:1;stroke:none;stroke-width:1;stroke-miterlimit:4;stroke-dasharray:none;stroke-dashoffset:0;stroke-opacity:1" />
      <path
         inkscape:connector-curvature="0"
         d="m 79.431101,191.78843 c -9.341635,0.92276 -18.731661,1.28594 -28.107243,1.70086 -3.30876,0.13524 -6.619488,0.20847 -9.929973,0.28447 0,0 3.705032,-2.28043 3.705032,-2.28043 v 0 c 3.280481,-0.0529 6.560917,-0.11455 9.839639,-0.23969 9.429856,-0.36082 18.88858,-0.67933 28.257762,-1.85895 0,0 -3.765217,2.39374 -3.765217,2.39374 z"
         id="path2405"
         style="opacity:1;fill:#6d2029;fill-opacity:1;stroke:none;stroke-width:1;stroke-miterlimit:4;stroke-dasharray:none;stroke-dashoffset:0;stroke-opacity:1" />
      <path
         inkscape:connector-curvature="0"
         d="m 77.651265,208.89641 c 6.413529,-0.0446 12.838623,0.28469 19.250795,0.1044 2.114404,-0.0594 4.23993,-0.0842 6.3343,-0.38062 1.80393,-0.25529 3.54437,-0.84548 5.31656,-1.26823 4.4305,-1.63888 5.56209,-2.09791 3.44289,-1.2519 0,0 4.13758,-1.18935 4.13758,-1.18935 v 0 c -8.26325,3.85286 -4.52869,2.38315 -11.08504,4.69951 -1.76785,0.39238 -3.50797,0.94229 -5.303554,1.17713 -2.091116,0.2735 -4.209314,0.28626 -6.317483,0.34279 -6.525794,0.17496 -13.06437,-0.0785 -19.591512,0.10439 0,0 3.815464,-2.33812 3.815464,-2.33812 z"
         id="path2407"
         style="opacity:1;fill:#6d2029;fill-opacity:1;stroke:none;stroke-width:1;stroke-miterlimit:4;stroke-dasharray:none;stroke-dashoffset:0;stroke-opacity:1" />
      <path
         inkscape:connector-curvature="0"
         d="m 122.27464,135.03212 c 0.52817,0.0845 1.06369,0.13151 1.5845,0.25336 2.0842,0.48763 4.10365,1.26413 6.19921,1.72208 2.16908,0.47401 3.39665,0.57142 5.64075,0.85184 3.48842,0.46279 6.99838,0.71426 10.50622,0.96999 0,0 -3.67705,2.21619 -3.67705,2.21619 v 0 c -3.52138,-0.26342 -7.04509,-0.51889 -10.54889,-0.97016 -2.29503,-0.28947 -3.50255,-0.38428 -5.7204,-0.87341 -2.62699,-0.57936 -5.1575,-1.61549 -7.84417,-1.90815 0,0 3.85983,-2.26174 3.85983,-2.26174 z"
         id="path2409"
         style="opacity:1;fill:#6d2029;fill-opacity:1;stroke:none;stroke-width:1;stroke-miterlimit:4;stroke-dasharray:none;stroke-dashoffset:0;stroke-opacity:1" />
      <path
         inkscape:connector-curvature="0"
         d="m 75.287433,143.29145 c -7.915873,0.55918 -15.82732,1.17222 -23.73644,1.81996 -5.328158,0.36084 -10.637216,0.95063 -15.95338,1.4521 0,0 3.718729,-2.32563 3.718729,-2.32563 v 0 c 5.275374,-0.46452 10.543204,-1.02132 15.828195,-1.36886 7.970737,-0.64198 15.943649,-1.25649 23.912528,-1.9201 0,0 -3.769632,2.34253 -3.769632,2.34253 z"
         id="path2411"
         style="opacity:1;fill:#6d2029;fill-opacity:1;stroke:none;stroke-width:1;stroke-miterlimit:4;stroke-dasharray:none;stroke-dashoffset:0;stroke-opacity:1" />
      <path
         inkscape:connector-curvature="0"
         d="m 116.34036,113.22838 c 5.06268,-1.37271 10.29709,-1.81505 15.49568,-2.33844 5.06034,-1.1802 10.09293,-2.36783 15.25305,-3.01708 3.15405,-0.35267 6.31583,-0.53901 9.48612,-0.63483 0,0 -3.69904,2.28226 -3.69904,2.28226 v 0 c -3.15894,0.0966 -6.31082,0.27636 -9.45017,0.66402 -5.15192,0.71244 -10.18217,1.92815 -15.26438,3.00863 -5.22127,0.53136 -10.49002,0.9906 -15.54607,2.48623 0,0 3.72481,-2.45079 3.72481,-2.45079 z"
         id="path2413"
         style="opacity:1;fill:#6d2029;fill-opacity:1;stroke:none;stroke-width:1;stroke-miterlimit:4;stroke-dasharray:none;stroke-dashoffset:0;stroke-opacity:1" />
      <path
         inkscape:connector-curvature="0"
         d="m 135.10365,199.82499 c 4.14339,0.0356 8.28707,0.0275 12.43057,0.0169 3.47307,0.002 6.94611,0.0184 10.41918,0.0245 0,0 -3.68048,2.2554 -3.68048,2.2554 v 0 c -3.49971,0.006 -6.99938,0.0223 -10.49909,0.0245 -4.16186,-0.0108 -8.32389,-0.0184 -12.48565,0.0169 0,0 3.81547,-2.33812 3.81547,-2.33812 z"
         id="path2415"
         style="opacity:1;fill:#6d2029;fill-opacity:1;stroke:none;stroke-width:1;stroke-miterlimit:4;stroke-dasharray:none;stroke-dashoffset:0;stroke-opacity:1" />
      <path
         inkscape:connector-curvature="0"
         d="m 89.414209,201.40715 c -0.559168,-0.005 -1.12027,-0.0607 -1.677504,-0.014 -1.996559,0.16737 -3.962241,0.60019 -5.949254,0.85717 -1.389441,0.17971 -2.78715,0.2939 -4.174434,0.48958 -0.472599,0.0667 -8.502991,1.39723 -8.939244,1.46936 -6.124197,1.21106 -12.344617,1.72063 -18.56077,2.1687 0,0 3.674132,-2.28694 3.674132,-2.28694 v 0 c 6.183881,-0.41898 12.36065,-0.97896 18.455578,-2.15008 4.392354,-0.72645 8.77171,-1.39291 13.181902,-1.99314 0.844769,-0.11498 4.963922,-0.77124 6.08189,-0.86479 0.572407,-0.0479 1.148778,-0.009 1.723167,-0.014 0,0 -3.815463,2.33812 -3.815463,2.33812 z"
         id="path2417"
         style="opacity:1;fill:#6d2029;fill-opacity:1;stroke:none;stroke-width:1;stroke-miterlimit:4;stroke-dasharray:none;stroke-dashoffset:0;stroke-opacity:1" />
      <path
         inkscape:connector-curvature="0"
         d="m 119.9846,215.69999 c 10.50015,-0.54942 20.88023,-2.59477 31.13969,-4.81625 8.29252,-1.83524 4.23505,-0.96019 12.17115,-2.63093 0,0 -3.48235,2.23426 -3.48235,2.23426 v 0 c -7.89511,1.64821 -3.85509,0.78356 -12.11874,2.60007 -10.39549,2.23199 -20.89905,4.28039 -31.52522,4.95097 0,0 3.81547,-2.33812 3.81547,-2.33812 z"
         id="path2419"
         style="opacity:1;fill:#6d2029;fill-opacity:1;stroke:none;stroke-width:1;stroke-miterlimit:4;stroke-dasharray:none;stroke-dashoffset:0;stroke-opacity:1" />
      <path
         inkscape:connector-curvature="0"
         d="m 122.51595,92.484516 c 7.19273,0.515265 14.08009,-1.111602 20.996,-2.852468 0,0 -3.61299,2.336681 -3.61299,2.336681 v 0 c -3.87334,0.945663 -7.76489,1.920182 -11.72335,2.449356 -3.35963,0.449123 -4.07297,0.356579 -7.26595,0.377622 -0.73122,0.0048 -1.46241,0.01159 -2.19361,0.01738 0,0 3.7999,-2.328585 3.7999,-2.328585 z"
         id="path2421"
         style="opacity:1;fill:#6d2029;fill-opacity:1;stroke:none;stroke-width:1;stroke-miterlimit:4;stroke-dasharray:none;stroke-dashoffset:0;stroke-opacity:1" />
      <path
         transform="matrix(1.533085,0,0,0.48004399,-10.560991,75.322973)"
         inkscape:transform-center-y="-0.19962531"
         inkscape:transform-center-x="-0.81337323"
         d="m 100.44955,106.69748 c 1.70138,1.92664 -0.776363,49.71173 -2.490292,51.60572 -1.713929,1.894 -46.295439,1.30553 -48.19594,-0.39985 -1.900502,-1.70539 -2.743309,-48.71618 -0.867155,-50.36071 1.876154,-1.64452 49.852015,-2.7718 51.553387,-0.84516 z"
         inkscape:randomized="0.05"
         inkscape:rounded="0.05"
         inkscape:flatsided="true"
         sodipodi:arg2="0.0057499889"
         sodipodi:arg1="-0.77964817"
         sodipodi:r2="25.093105"
         sodipodi:r1="35.487015"
         sodipodi:cy="132.58035"
         sodipodi:cx="74.083328"
         sodipodi:sides="4"
         id="path2474"
         style="opacity:1;fill:#6d2029;fill-opacity:1;fill-rule:evenodd;stroke:none;stroke-width:1;stroke-miterlimit:4;stroke-dasharray:none;stroke-dashoffset:0;stroke-opacity:1"
         sodipodi:type="star" />
    </g>
  </g>
</svg>
