<?xml version="1.0" encoding="UTF-8" standalone="no"?>
<!-- Created with Inkscape (http://www.inkscape.org/) -->

<svg
   xmlns:osb="http://www.openswatchbook.org/uri/2009/osb"
   xmlns:dc="http://purl.org/dc/elements/1.1/"
   xmlns:cc="http://creativecommons.org/ns#"
   xmlns:rdf="http://www.w3.org/1999/02/22-rdf-syntax-ns#"
   xmlns:svg="http://www.w3.org/2000/svg"
   xmlns="http://www.w3.org/2000/svg"
   xmlns:sodipodi="http://sodipodi.sourceforge.net/DTD/sodipodi-0.dtd"
   xmlns:inkscape="http://www.inkscape.org/namespaces/inkscape"
   width="210mm"
   height="297mm"
   viewBox="0 0 210 297"
   version="1.1"
   id="svg8"
   inkscape:version="0.92.3 (2405546, 2018-03-11)"
   sodipodi:docname="player.svg">
  <defs
     id="defs2">
    <linearGradient
       id="linearGradient2435"
       osb:paint="solid">
      <stop
         style="stop-color:#3200ff;stop-opacity:1;"
         offset="0"
         id="stop2433" />
    </linearGradient>
    <linearGradient
       id="linearGradient2325"
       osb:paint="solid">
      <stop
         style="stop-color:#6d2029;stop-opacity:1;"
         offset="0"
         id="stop2323" />
    </linearGradient>
  </defs>
  <sodipodi:namedview
     id="base"
     pagecolor="#ffffff"
     bordercolor="#666666"
     borderopacity="1.0"
     inkscape:pageopacity="0.0"
     inkscape:pageshadow="2"
     inkscape:zoom="0.98994949"
     inkscape:cx="843.42697"
     inkscape:cy="542.11207"
     inkscape:document-units="mm"
     inkscape:current-layer="layer1"
     showgrid="false"
     inkscape:window-width="1916"
     inkscape:window-height="1041"
     inkscape:window-x="0"
     inkscape:window-y="18"
     inkscape:window-maximized="0" />
  <metadata
     id="metadata5">
    <rdf:RDF>
      <cc:Work
         rdf:about="">
        <dc:format>image/svg+xml</dc:format>
        <dc:type
           rdf:resource="http://purl.org/dc/dcmitype/StillImage" />
        <dc:title></dc:title>
      </cc:Work>
    </rdf:RDF>
  </metadata>
  <g
     inkscape:label="Layer 1"
     inkscape:groupmode="layer"
     id="layer1">
    <g
       id="g870"
       inkscape:export-xdpi="96"
       inkscape:export-ydpi="96">
      <path
         inkscape:connector-curvature="0"
         id="path815"
         d="m 105.56823,14.465787 c -11.904149,0.03889 -67.161176,85.2581 -66.541673,100.560883 -5.950281,22.61297 -4.377674,106.00223 2.698544,114.02822 7.8828,8.94084 109.866359,4.36015 117.755599,-3.99148 6.76834,-7.16504 7.63541,-83.50617 2.61121,-110.42845 -0.1416,-18.430034 -45.32793,-98.828974 -56.24153,-100.153153 -0.0911,-0.01105 -0.18526,-0.01634 -0.28215,-0.01602 z"
         style="opacity:1;fill:#6d2029;fill-opacity:1;stroke:none;stroke-width:0.98361182;stroke-miterlimit:4;stroke-dasharray:none;stroke-dashoffset:0;stroke-opacity:1" />
      <path
         id="path815-3"
         d="m 106.3574,38.952447 c -8.926288,0.03233 -50.360576,70.867773 -49.896043,83.587663 -4.461797,18.79619 -3.282583,88.11052 2.023493,94.78184 5.91089,7.43175 82.3829,3.62422 88.29862,-3.31778 5.07522,-5.95568 5.72539,-69.4115 1.95801,-91.78965 -0.10618,-15.31932 -33.989,-82.148083 -42.17251,-83.248758 -0.0683,-0.0092 -0.13892,-0.01357 -0.21157,-0.01332 z"
         style="opacity:1;fill:#ad7f5f;fill-opacity:1;stroke:none;stroke-width:0.77654451;stroke-miterlimit:4;stroke-dasharray:none;stroke-dashoffset:0;stroke-opacity:1"
         inkscape:connector-curvature="0" />
      <path
         inkscape:connector-curvature="0"
         d="m 95.794122,71.313081 c 4.527558,0.04554 9.055408,0.0371 13.583138,0.04153 0,0 -3.67993,2.255067 -3.67993,2.255067 v 0 c -4.57291,0.0044 -9.14593,-0.0036 -13.718671,0.04153 0,0 3.815463,-2.338121 3.815463,-2.338121 z"
         id="path2367"
         style="opacity:1;fill:#ad7f5f;fill-opacity:1;stroke:none;stroke-width:1;stroke-miterlimit:4;stroke-dasharray:none;stroke-dashoffset:0;stroke-opacity:1" />
      <path
         inkscape:connector-curvature="0"
         d="m 92.682482,69.043636 c 5.822648,0.04337 11.645598,0.047 17.468398,0.05789 4.11308,0.01077 8.22615,0.0038 12.33921,-0.0073 0,0 -3.65561,2.240166 -3.65561,2.240166 v 0 c -4.1051,-0.01117 -8.21019,-0.01807 -12.3153,-0.0073 -5.88578,0.01095 -11.771712,0.01484 -17.65735,0.05789 0,0 3.820652,-2.341298 3.820652,-2.341298 z"
         id="path2377"
         style="opacity:1;fill:#6d2029;fill-opacity:1;stroke:none;stroke-width:1;stroke-miterlimit:4;stroke-dasharray:none;stroke-dashoffset:0;stroke-opacity:1" />
      <path
         inkscape:connector-curvature="0"
         d="m 86.49373,94.001189 c 4.494167,0.03887 1.84789,0.01635 7.938844,0.06661 0,0 -3.566959,2.185836 -3.566959,2.185836 v 0 c -6.256173,0.05026 -3.537434,0.02775 -8.156226,0.06661 0,0 3.784341,-2.319049 3.784341,-2.319049 z"
         id="path2379"
         style="opacity:1;fill:#6d2029;fill-opacity:1;stroke:none;stroke-width:1;stroke-miterlimit:4;stroke-dasharray:none;stroke-dashoffset:0;stroke-opacity:1" />
      <path
         inkscape:connector-curvature="0"
         d="m 115.62455,97.01864 c 6.05045,0.03875 12.10099,0.04987 18.15156,0.04975 4.07455,-0.04699 8.26777,0.328443 12.2262,-0.922782 0.71399,-0.22569 1.36893,-0.607383 2.0534,-0.911072 0,0 -3.64445,2.437911 -3.64445,2.437911 v 0 c -0.69531,0.276344 -1.36711,0.621398 -2.08593,0.829035 -3.9698,1.146704 -8.12689,0.743865 -12.19196,0.799181 -6.10468,-1.24e-4 -12.20934,0.01138 -18.31391,0.04975 0,0 3.80509,-2.331763 3.80509,-2.331763 z"
         id="path2381"
         style="opacity:1;fill:#6d2029;fill-opacity:1;stroke:none;stroke-width:1;stroke-miterlimit:4;stroke-dasharray:none;stroke-dashoffset:0;stroke-opacity:1" />
      <path
         inkscape:connector-curvature="0"
         d="m 66.092794,118.52805 c 0.430477,0.12024 0.851882,0.2797 1.291431,0.36071 2.173981,0.40069 5.124027,0.60777 7.196315,0.73689 6.583095,0.41016 13.142992,0.43007 19.735154,0.36488 5.054648,-0.15179 10.136076,-0.25561 15.174656,-0.73847 4.37838,-0.41959 8.75185,-1.11747 13.11036,-1.70567 3.57284,-0.48012 7.08101,-1.38398 10.66269,-1.808 1.37312,-0.16256 3.36938,-0.27086 4.749,-0.35865 3.17145,-0.12627 1.62686,-0.0726 4.63368,-0.16329 0,0 -3.73526,2.30404 -3.73526,2.30404 v 0 c -2.98886,0.0849 -1.45063,0.0296 -4.61452,0.17022 -5.15087,0.35038 -10.20708,1.25226 -15.29179,2.12555 -4.36057,0.5745 -8.73163,1.2727 -13.1124,1.67277 -5.00032,0.45665 -10.039486,0.51633 -15.054202,0.6369 -6.63548,0.051 -13.251648,0.0372 -19.880514,-0.31708 -2.229652,-0.11914 -5.128331,-0.28171 -7.42393,-0.70376 -0.463767,-0.0853 -0.906876,-0.25881 -1.360311,-0.38821 0,0 3.919641,-2.18883 3.919641,-2.18883 z"
         id="path2383"
         style="opacity:1;fill:#6d2029;fill-opacity:1;stroke:none;stroke-width:1;stroke-miterlimit:4;stroke-dasharray:none;stroke-dashoffset:0;stroke-opacity:1" />
      <path
         inkscape:connector-curvature="0"
         d="m 65.335707,134.47168 c 5.005631,-1.31491 10.225128,-1.41421 15.367008,-1.63377 7.965279,-0.0635 15.902641,-0.5417 23.795245,-1.61133 5.83114,-0.95719 11.70819,-1.35101 17.60633,-1.5407 1.06288,-0.0219 2.12571,-0.0465 3.18865,-0.0658 3.52953,-0.0641 2.36419,0.0592 5.90241,-0.35418 1.28875,-0.15057 5.20618,-0.71142 6.40172,-0.76617 1.24164,-0.0569 2.48566,0.0333 3.72849,0.0499 4.42811,0.29488 2.30723,0.11342 6.3642,0.52566 0,0 -3.72388,2.22967 -3.72388,2.22967 v 0 c -4.00695,-0.41965 -1.9091,-0.23935 -6.29543,-0.51856 -1.23965,0.001 -2.48123,-0.065 -3.71894,0.004 -0.92523,0.0518 -5.37277,0.65979 -6.42908,0.77599 -3.47278,0.38202 -2.46611,0.25669 -5.90899,0.3191 -1.06299,0.0193 -2.12579,0.048 -3.18869,0.072 -5.88506,0.20975 -11.74828,0.64849 -17.57067,1.56815 -7.900926,1.02072 -15.843242,1.44483 -23.807708,1.57492 -5.172578,0.2398 -10.450356,0.35321 -15.447187,1.84909 0,0 3.736522,-2.47837 3.736522,-2.47837 z"
         id="path2385"
         style="opacity:1;fill:#6d2029;fill-opacity:1;stroke:none;stroke-width:1;stroke-miterlimit:4;stroke-dasharray:none;stroke-dashoffset:0;stroke-opacity:1" />
      <path
         inkscape:connector-curvature="0"
         d="m 82.085936,84.807233 c 0.548626,-0.03428 1.099441,-0.04312 1.645883,-0.102856 2.782847,-0.304192 5.536181,-0.773817 8.33235,-0.992405 0.672947,-0.05261 9.471471,-0.571405 9.663241,-0.58279 8.39283,-0.319066 16.59573,-2.21462 24.88439,-3.401874 0.7978,-0.106453 1.59561,-0.212903 2.39341,-0.319353 0,0 -3.69986,2.334033 -3.69986,2.334033 v 0 c -0.78581,0.100764 -1.57161,0.20153 -2.35742,0.302297 -8.24884,1.162531 -16.42092,2.981441 -24.771216,3.291163 -1.896174,0.122793 -7.658777,0.482578 -9.763668,0.66617 -2.827893,0.246655 -5.618987,0.713703 -8.435342,1.042083 -0.560327,0.06533 -1.123995,0.09786 -1.685994,0.146785 0,0 3.794226,-2.383253 3.794226,-2.383253 z"
         id="path2387"
         style="opacity:1;fill:#6d2029;fill-opacity:1;stroke:none;stroke-width:1;stroke-miterlimit:4;stroke-dasharray:none;stroke-dashoffset:0;stroke-opacity:1" />
      <path
         inkscape:connector-curvature="0"
         d="m 68.931165,107.60515 c 6.154642,0.0541 12.309567,0.0387 18.464352,0.0318 3.974939,-0.004 7.949859,0.003 11.924792,-0.005 0,0 -3.706162,2.27114 -3.706162,2.27114 v 0 c -3.9699,-0.008 -7.939791,-5.3e-4 -11.909697,-0.005 -6.189337,-0.007 -12.378804,-0.0218 -18.568003,0.0318 0,0 3.794718,-2.32541 3.794718,-2.32541 z"
         id="path2389"
         style="opacity:1;fill:#6d2029;fill-opacity:1;stroke:none;stroke-width:1;stroke-miterlimit:4;stroke-dasharray:none;stroke-dashoffset:0;stroke-opacity:1" />
      <path
         inkscape:connector-curvature="0"
         d="m 103.26582,50.144828 c 4.24715,0.156553 8.49347,0.412752 12.74229,0.579628 0.57902,0.0545 1.15804,0.108995 1.73706,0.163491 0,0 -3.78981,2.273808 -3.78981,2.273808 v 0 c -0.56664,-0.0532 -1.13328,-0.10641 -1.69992,-0.159618 -4.26829,-0.196771 -8.53852,-0.457549 -12.810277,-0.516012 0,0 3.820657,-2.341297 3.820657,-2.341297 z"
         id="path2391"
         style="opacity:1;fill:#6d2029;fill-opacity:1;stroke:none;stroke-width:1;stroke-miterlimit:4;stroke-dasharray:none;stroke-dashoffset:0;stroke-opacity:1" />
      <path
         inkscape:connector-curvature="0"
         d="m 61.524774,156.43955 c 12.814622,-1.2096 25.677187,-1.58922 38.539646,-1.81709 9.07899,0.24415 18.10212,1.34412 27.12174,2.33305 3.33562,0.53458 6.67788,0.29598 10.02538,0.0903 0.44058,-0.0294 0.88115,-0.0588 1.32171,-0.0882 0,0 -3.77694,2.34751 -3.77694,2.34751 v 0 c -0.4364,0.0262 -0.8728,0.0523 -1.3092,0.0785 -3.34656,0.19409 -6.67907,0.38439 -10.00785,-0.19111 -8.9152,-1.09086 -17.8466,-2.20489 -26.834372,-2.44187 -12.958202,0.21643 -25.937361,0.5393 -38.819399,2.07675 0,0 3.739285,-2.38787 3.739285,-2.38787 z"
         id="path2393"
         style="opacity:1;fill:#6d2029;fill-opacity:1;stroke:none;stroke-width:1;stroke-miterlimit:4;stroke-dasharray:none;stroke-dashoffset:0;stroke-opacity:1" />
      <path
         inkscape:connector-curvature="0"
         d="m 66.606954,149.85107 c 1.937554,-0.77493 3.833537,-1.6632 5.81266,-2.32479 0.825196,-0.27585 5.051891,-0.8357 5.695005,-0.91425 3.240196,-0.3958 6.490404,-0.6381 9.746618,-0.84755 8.428902,-0.0718 16.857833,0.17545 25.285953,0.29264 8.27984,0.11109 16.56029,0.14798 24.84073,0.18224 0,0 -3.49806,2.14272 -3.49806,2.14272 v 0 c -8.32274,0.003 -16.64666,0.0333 -24.96846,-0.11051 -8.44208,-0.13439 -16.887755,-0.38735 -25.330487,-0.22471 -4.300286,0.28749 -8.612145,0.60168 -12.862697,1.34737 -0.873136,0.15318 -2.19111,1.3201 -2.604821,0.53609 -0.398004,-0.75425 1.458585,-0.88415 2.187877,-1.32622 0,0 -4.304318,1.24697 -4.304318,1.24697 z"
         id="path2395"
         style="opacity:1;fill:#6d2029;fill-opacity:1;stroke:none;stroke-width:1;stroke-miterlimit:4;stroke-dasharray:none;stroke-dashoffset:0;stroke-opacity:1" />
      <path
         inkscape:connector-curvature="0"
         d="m 136.68788,164.35913 c -7.69573,-0.0598 -15.39186,-0.0529 -23.08779,-0.0656 -8.05226,0.49071 -16.022107,1.78977 -24.052169,2.52586 -3.740335,0.35111 -7.49345,0.53596 -11.249385,0.57625 -4.289758,-0.0127 -8.579442,-0.0286 -12.86924,-0.0241 0,0 3.717232,-2.27722 3.717232,-2.27722 v 0 c 4.312012,0.0164 8.624173,0.0232 12.93604,-0.0242 3.716398,-0.0557 7.430857,-0.20344 11.133391,-0.54494 7.996951,-0.73594 15.942041,-1.98047 23.964631,-2.42575 7.76733,-0.0128 15.53487,-0.006 23.30201,-0.0656 0,0 -3.79472,2.32541 -3.79472,2.32541 z"
         id="path2397"
         style="opacity:1;fill:#6d2029;fill-opacity:1;stroke:none;stroke-width:1;stroke-miterlimit:4;stroke-dasharray:none;stroke-dashoffset:0;stroke-opacity:1" />
      <path
         inkscape:connector-curvature="0"
         d="m 63.376002,180.17181 c 5.882055,-0.7301 11.797258,-0.99615 17.716384,-1.18986 7.833952,-0.24891 15.67181,-0.25524 23.508734,-0.27645 3.91998,-0.0174 7.84,-0.0179 11.76,-0.0313 0,0 -3.73764,2.29005 -3.73764,2.29005 v 0 c -3.88713,-0.0191 -7.77427,-0.0234 -11.66144,-0.0276 -7.832163,0.0143 -15.665478,0.0522 -23.494764,0.28414 -5.983213,0.22088 -11.954581,0.56842 -17.901552,1.28594 0,0 3.810278,-2.33494 3.810278,-2.33494 z"
         id="path2399"
         style="opacity:1;fill:#6d2029;fill-opacity:1;stroke:none;stroke-width:1;stroke-miterlimit:4;stroke-dasharray:none;stroke-dashoffset:0;stroke-opacity:1" />
      <path
         inkscape:connector-curvature="0"
         d="m 128.38791,174.12419 c 5.65911,0.092 11.31329,0.39582 16.97025,0.58273 2.82009,-0.0434 1.48601,0.002 4.00272,-0.12125 0,0 -3.75641,2.3233 -3.75641,2.3233 v 0 c -2.49462,0.0834 -1.17061,0.0576 -3.97232,0.0631 -5.68256,-0.21612 -11.36664,-0.55704 -17.05452,-0.51293 0,0 3.81028,-2.33494 3.81028,-2.33494 z"
         id="path2401"
         style="opacity:1;fill:#6d2029;fill-opacity:1;stroke:none;stroke-width:1;stroke-miterlimit:4;stroke-dasharray:none;stroke-dashoffset:0;stroke-opacity:1" />
      <path
         inkscape:connector-curvature="0"
         d="m 140.64331,193.0885 c -6.14025,-0.0361 -12.28059,-0.0563 -18.42094,-0.0519 -6.65999,0.0122 -13.31999,0.004 -19.97997,0.0241 -0.85713,0.0329 -1.71427,0.0657 -2.571399,0.0986 0,0 3.711629,-2.29247 3.711629,-2.29247 v 0 c 0.85805,-0.0274 1.71609,-0.0548 2.57414,-0.0823 6.63373,0.0199 13.26749,0.0118 19.90123,0.0241 6.19684,0.004 12.39366,-0.0163 18.5904,-0.0519 0,0 -3.80509,2.33177 -3.80509,2.33177 z"
         id="path2403"
         style="opacity:1;fill:#6d2029;fill-opacity:1;stroke:none;stroke-width:1;stroke-miterlimit:4;stroke-dasharray:none;stroke-dashoffset:0;stroke-opacity:1" />
      <path
         inkscape:connector-curvature="0"
         d="m 79.431101,191.78843 c -9.341635,0.92276 -18.731661,1.28594 -28.107243,1.70086 -3.30876,0.13524 -6.619488,0.20847 -9.929973,0.28447 0,0 3.705032,-2.28043 3.705032,-2.28043 v 0 c 3.280481,-0.0529 6.560917,-0.11455 9.839639,-0.23969 9.429856,-0.36082 18.88858,-0.67933 28.257762,-1.85895 0,0 -3.765217,2.39374 -3.765217,2.39374 z"
         id="path2405"
         style="opacity:1;fill:#6d2029;fill-opacity:1;stroke:none;stroke-width:1;stroke-miterlimit:4;stroke-dasharray:none;stroke-dashoffset:0;stroke-opacity:1" />
      <path
         inkscape:connector-curvature="0"
         d="m 77.651265,208.89641 c 6.413529,-0.0446 12.838623,0.28469 19.250795,0.1044 2.114404,-0.0594 4.23993,-0.0842 6.3343,-0.38062 1.80393,-0.25529 3.54437,-0.84548 5.31656,-1.26823 4.4305,-1.63888 5.56209,-2.09791 3.44289,-1.2519 0,0 4.13758,-1.18935 4.13758,-1.18935 v 0 c -8.26325,3.85286 -4.52869,2.38315 -11.08504,4.69951 -1.76785,0.39238 -3.50797,0.94229 -5.303554,1.17713 -2.091116,0.2735 -4.209314,0.28626 -6.317483,0.34279 -6.525794,0.17496 -13.06437,-0.0785 -19.591512,0.10439 0,0 3.815464,-2.33812 3.815464,-2.33812 z"
         id="path2407"
         style="opacity:1;fill:#6d2029;fill-opacity:1;stroke:none;stroke-width:1;stroke-miterlimit:4;stroke-dasharray:none;stroke-dashoffset:0;stroke-opacity:1" />
      <path
         inkscape:connector-curvature="0"
         d="m 122.27464,135.03212 c 0.52817,0.0845 1.06369,0.13151 1.5845,0.25336 2.0842,0.48763 4.10365,1.26413 6.19921,1.72208 2.16908,0.47401 3.39665,0.57142 5.64075,0.85184 3.48842,0.46279 6.99838,0.71426 10.50622,0.96999 0,0 -3.67705,2.21619 -3.67705,2.21619 v 0 c -3.52138,-0.26342 -7.04509,-0.51889 -10.54889,-0.97016 -2.29503,-0.28947 -3.50255,-0.38428 -5.7204,-0.87341 -2.62699,-0.57936 -5.1575,-1.61549 -7.84417,-1.90815 0,0 3.85983,-2.26174 3.85983,-2.26174 z"
         id="path2409"
         style="opacity:1;fill:#6d2029;fill-opacity:1;stroke:none;stroke-width:1;stroke-miterlimit:4;stroke-dasharray:none;stroke-dashoffset:0;stroke-opacity:1" />
      <path
         inkscape:connector-curvature="0"
         d="m 75.287433,143.29145 c -7.915873,0.55918 -15.82732,1.17222 -23.73644,1.81996 -5.328158,0.36084 -10.637216,0.95063 -15.95338,1.4521 0,0 3.718729,-2.32563 3.718729,-2.32563 v 0 c 5.275374,-0.46452 10.543204,-1.02132 15.828195,-1.36886 7.970737,-0.64198 15.943649,-1.25649 23.912528,-1.9201 0,0 -3.769632,2.34253 -3.769632,2.34253 z"
         id="path2411"
         style="opacity:1;fill:#6d2029;fill-opacity:1;stroke:none;stroke-width:1;stroke-miterlimit:4;stroke-dasharray:none;stroke-dashoffset:0;stroke-opacity:1" />
      <path
         inkscape:connector-curvature="0"
         d="m 116.34036,113.22838 c 5.06268,-1.37271 10.29709,-1.81505 15.49568,-2.33844 5.06034,-1.1802 10.09293,-2.36783 15.25305,-3.01708 3.15405,-0.35267 6.31583,-0.53901 9.48612,-0.63483 0,0 -3.69904,2.28226 -3.69904,2.28226 v 0 c -3.15894,0.0966 -6.31082,0.27636 -9.45017,0.66402 -5.15192,0.71244 -10.18217,1.92815 -15.26438,3.00863 -5.22127,0.53136 -10.49002,0.9906 -15.54607,2.48623 0,0 3.72481,-2.45079 3.72481,-2.45079 z"
         id="path2413"
         style="opacity:1;fill:#6d2029;fill-opacity:1;stroke:none;stroke-width:1;stroke-miterlimit:4;stroke-dasharray:none;stroke-dashoffset:0;stroke-opacity:1" />
      <path
         inkscape:connector-curvature="0"
         d="m 135.10365,199.82499 c 4.14339,0.0356 8.28707,0.0275 12.43057,0.0169 3.47307,0.002 6.94611,0.0184 10.41918,0.0245 0,0 -3.68048,2.2554 -3.68048,2.2554 v 0 c -3.49971,0.006 -6.99938,0.0223 -10.49909,0.0245 -4.16186,-0.0108 -8.32389,-0.0184 -12.48565,0.0169 0,0 3.81547,-2.33812 3.81547,-2.33812 z"
         id="path2415"
         style="opacity:1;fill:#6d2029;fill-opacity:1;stroke:none;stroke-width:1;stroke-miterlimit:4;stroke-dasharray:none;stroke-dashoffset:0;stroke-opacity:1" />
      <path
         inkscape:connector-curvature="0"
         d="m 89.414209,201.40715 c -0.559168,-0.005 -1.12027,-0.0607 -1.677504,-0.014 -1.996559,0.16737 -3.962241,0.60019 -5.949254,0.85717 -1.389441,0.17971 -2.78715,0.2939 -4.174434,0.48958 -0.472599,0.0667 -8.502991,1.39723 -8.939244,1.46936 -6.124197,1.21106 -12.344617,1.72063 -18.56077,2.1687 0,0 3.674132,-2.28694 3.674132,-2.28694 v 0 c 6.183881,-0.41898 12.36065,-0.97896 18.455578,-2.15008 4.392354,-0.72645 8.77171,-1.39291 13.181902,-1.99314 0.844769,-0.11498 4.963922,-0.77124 6.08189,-0.86479 0.572407,-0.0479 1.148778,-0.009 1.723167,-0.014 0,0 -3.815463,2.33812 -3.815463,2.33812 z"
         id="path2417"
         style="opacity:1;fill:#6d2029;fill-opacity:1;stroke:none;stroke-width:1;stroke-miterlimit:4;stroke-dasharray:none;stroke-dashoffset:0;stroke-opacity:1" />
      <path
         inkscape:connector-curvature="0"
         d="m 119.9846,215.69999 c 10.50015,-0.54942 20.88023,-2.59477 31.13969,-4.81625 8.29252,-1.83524 4.23505,-0.96019 12.17115,-2.63093 0,0 -3.48235,2.23426 -3.48235,2.23426 v 0 c -7.89511,1.64821 -3.85509,0.78356 -12.11874,2.60007 -10.39549,2.23199 -20.89905,4.28039 -31.52522,4.95097 0,0 3.81547,-2.33812 3.81547,-2.33812 z"
         id="path2419"
         style="opacity:1;fill:#6d2029;fill-opacity:1;stroke:none;stroke-width:1;stroke-miterlimit:4;stroke-dasharray:none;stroke-dashoffset:0;stroke-opacity:1" />
      <path
         inkscape:connector-curvature="0"
         d="m 122.51595,92.484516 c 7.19273,0.515265 14.08009,-1.111602 20.996,-2.852468 0,0 -3.61299,2.336681 -3.61299,2.336681 v 0 c -3.87334,0.945663 -7.76489,1.920182 -11.72335,2.449356 -3.35963,0.449123 -4.07297,0.356579 -7.26595,0.377622 -0.73122,0.0048 -1.46241,0.01159 -2.19361,0.01738 0,0 3.7999,-2.328585 3.7999,-2.328585 z"
         id="path2421"
         style="opacity:1;fill:#6d2029;fill-opacity:1;stroke:none;stroke-width:1;stroke-miterlimit:4;stroke-dasharray:none;stroke-dashoffset:0;stroke-opacity:1" />
      <path
         transform="matrix(1.533085,0,0,0.48004399,-10.560991,75.322973)"
         inkscape:transform-center-y="-0.19962531"
         inkscape:transform-center-x="-0.81337323"
         d="m 100.44955,106.69748 c 1.70138,1.92664 -0.776363,49.71173 -2.490292,51.60572 -1.713929,1.894 -46.295439,1.30553 -48.19594,-0.39985 -1.900502,-1.70539 -2.743309,-48.71618 -0.867155,-50.36071 1.876154,-1.64452 49.852015,-2.7718 51.553387,-0.84516 z"
         inkscape:randomized="0.05"
         inkscape:rounded="0.05"
         inkscape:flatsided="true"
         sodipodi:arg2="0.0057499889"
         sodipodi:arg1="-0.77964817"
         sodipodi:r2="25.093105"
         sodipodi:r1="35.487015"
         sodipodi:cy="132.58035"
         sodipodi:cx="74.083328"
         sodipodi:sides="4"
         id="path2474"
         style="opacity:1;fill:#6d2029;fill-opacity:1;fill-rule:evenodd;stroke:none;stroke-width:1;stroke-miterlimit:4;stroke-dasharray:none;stroke-dashoffset:0;stroke-opacity:1"
         sodipodi:type="star" />
    </g>
    <g
       id="g1274"
       inkscape:export-xdpi="96"
       inkscape:export-ydpi="96"
       transform="translate(101.02788,10.958051)">
      <path
         inkscape:connector-curvature="0"
         d="m 139.03108,136.63989 c 2.32201,-0.96358 4.72568,-1.31798 7.12212,-1.60038 0.4186,-0.0835 0.83943,-0.14587 1.25581,-0.25067 1.13696,-0.28612 0.95522,-0.35834 2.0099,-0.6088 1.07873,-0.25617 2.17307,-0.30407 3.26232,-0.37672 2.28879,-0.11813 4.57895,-0.12386 6.8688,-0.13149 2.91858,0.0266 5.83718,0.0455 8.75581,0.0434 2.61225,-0.0117 5.22348,0.0729 7.83047,-0.20112 2.33619,-0.34225 4.69248,-0.0917 7.03138,-0.28583 0.5497,-0.0456 1.09526,-0.16694 1.6429,-0.25041 2.94847,-0.77433 5.90496,-1.39681 8.88372,-1.84865 3.27218,-0.33641 6.50603,-1.1703 9.75584,-1.78679 0.23656,-0.0283 1.94657,-0.25414 2.27553,-0.21858 0.33225,0.036 1.87534,0.54622 2.17957,0.69133 0.0274,0.0132 2.065,1.24833 2.08649,1.26135 1.30756,0.74005 2.58032,1.61576 3.97119,1.93463 1.37828,0.17128 2.76284,0.12737 4.14445,0.13016 1.66958,-0.0273 3.33977,0.0531 5.00724,-0.0835 1.69075,0.0462 3.3042,-0.5585 4.94026,-1.06921 1.44263,-0.45454 2.91066,-0.67003 4.37924,-0.86137 1.02745,-0.13222 2.05955,-0.15724 3.08987,-0.21146 0,0 -3.47185,3.14276 -3.47185,3.14276 v 0 c -1.01921,0.0342 -2.03848,0.085 -3.05416,0.22165 -1.4668,0.1986 -2.92722,0.48521 -4.3689,0.93559 -1.63587,0.50802 -3.26166,0.98246 -4.94621,0.96112 -1.6828,0.0974 -3.36697,0.0675 -5.05082,0.0908 -1.40009,0.0103 -2.80687,3.9e-4 -4.20035,-0.20783 -1.37921,-0.41888 -2.635,-1.36408 -3.94501,-2.10006 -0.3528,-0.21023 -1.67241,-1.01284 -2.05537,-1.17828 -1.43119,-0.61829 -2.87903,-0.61415 -4.34635,-0.32466 -3.24925,0.61966 -6.48781,1.38418 -9.75584,1.77113 -2.97085,0.47854 -5.92012,1.12873 -8.87046,1.82754 -2.91073,0.35479 -5.83651,0.23133 -8.74919,0.58361 -2.59065,0.20308 -5.18328,0.10257 -7.77666,0.10888 -2.94109,-0.007 -5.88219,0.003 -8.82327,0.0176 -2.27823,-0.007 -4.55767,-0.007 -6.8342,0.13706 -0.93181,0.0832 -1.40274,0.10302 -2.31463,0.26664 -0.98854,0.17743 -1.95233,0.53403 -2.93598,0.75123 -0.42016,0.0927 -0.84351,0.15126 -1.26526,0.22689 -2.40856,0.29379 -4.83561,0.68574 -7.14112,1.80695 0,0 3.41272,-3.31454 3.41272,-3.31454 z"
         id="path1229"
         style="opacity:1;fill:#000000;fill-opacity:1;fill-rule:evenodd;stroke:#000000;stroke-width:1.21138871;stroke-miterlimit:4;stroke-dasharray:none;stroke-dashoffset:0;stroke-opacity:1" />
      <path
         inkscape:connector-curvature="0"
         d="m 204.65049,128.80473 c 0.71657,-0.89137 1.73218,-1.41714 2.70085,-1.98353 1.83868,-1.32037 3.9032,-2.12594 5.96031,-3.08881 0.0857,-0.0296 0.16781,-0.0729 0.25705,-0.089 0.61621,-0.11076 1.25536,-0.16163 1.87129,-0.291 0.31672,-0.0665 1.46118,-0.40143 1.7824,-0.49377 -0.51668,0.44227 2.23045,-0.80557 1.69085,-0.55833 -0.97586,0.44714 -1.95266,0.89264 -2.93873,1.31677 -0.24975,0.10742 0.48296,-0.25008 0.72878,-0.36623 3.63555,-1.71778 2.95903,-1.41243 4.84868,-2.25411 1.13843,-0.42661 3.32393,-1.25738 -2.62736,1.21971 -0.19311,0.0804 0.35841,-0.21585 0.53449,-0.32874 0.55322,-0.3547 1.0929,-0.7332 1.63895,-1.09886 0.43305,-0.29849 0.84395,-0.6273 1.24063,-0.97219 0.14145,-0.12299 0.25212,-0.29194 0.42149,-0.37223 1.33715,-0.63382 2.69392,-1.22539 4.04088,-1.83809 0.76497,-0.11791 1.53913,-0.10436 2.31022,-0.0991 1.30917,0.0201 2.61851,0.0125 3.92774,0.0215 0.86283,0.002 1.72564,-0.005 2.58843,-0.0122 0.50005,-0.0299 0.97076,0.0117 1.4583,0.13023 0.49427,0.11539 0.98465,0.24626 1.47463,0.3784 0,0 -3.55581,2.05075 -3.55581,2.05075 v 0 c -0.47804,-0.13206 -0.95666,-0.26406 -1.44549,-0.35139 -0.48551,-0.0513 -0.96524,-0.0535 -1.45253,-0.0506 -0.8465,-0.008 -1.693,-0.0177 -2.53955,-0.0186 -1.31736,0.003 -2.63475,-0.0167 -3.95212,-0.005 -0.75502,0.007 -1.52282,0.005 -2.25646,0.20638 1.11488,-0.54298 2.22976,-1.08597 3.34463,-1.62895 -0.0714,0.0444 -0.14785,0.0815 -0.2143,0.13308 -0.51086,0.39617 -0.945,0.89686 -1.49525,1.24633 -2.22414,1.4828 -4.08712,2.81231 -6.83069,3.66827 -1.3732,0.61986 -1.62072,0.73458 2.43852,-1.15087 0.24492,-0.11377 -0.48677,0.23402 -0.73043,0.35046 -2.03952,0.9746 -3.86529,2.09608 -6.03928,2.59108 -1.30562,0.35634 -2.65415,0.54731 -3.93627,0.96417 6.772,-3.1906 2.6964,-1.45161 1.39067,-0.37403 -0.95666,0.54213 -1.9902,1.01293 -2.73438,1.84167 0,0 -3.90114,1.30678 -3.90114,1.30678 z"
         id="path1231"
         style="opacity:1;fill:#000000;fill-opacity:1;fill-rule:evenodd;stroke:#000000;stroke-width:1;stroke-miterlimit:4;stroke-dasharray:none;stroke-dashoffset:0;stroke-opacity:1" />
      <path
         inkscape:connector-curvature="0"
         d="m 238.51311,118.5479 c 0.0306,1.15354 -0.2233,2.27931 -0.5367,3.38085 -0.24735,1.42961 -0.57339,2.81459 -1.15169,4.14874 -0.36261,0.66561 -0.53854,1.37693 -0.52456,2.13166 0.12103,0.72673 0.20516,1.45417 0.26628,2.18859 0.10625,1.02305 -0.0216,2.03524 -0.1215,3.05245 -0.0617,0.67095 -0.0323,0.35546 -0.0879,0.94649 0,0 -3.81089,1.52918 -3.81089,1.52918 v 0 c 0.0765,-0.59446 0.0372,-0.27738 0.11656,-0.95138 0.0935,-0.99015 0.214,-1.98006 0.11695,-2.97542 -0.0476,-0.74038 -0.14414,-1.4706 -0.26612,-2.2021 -0.0523,-0.79959 0.0472,-1.61751 0.46347,-2.31822 0.65304,-1.31778 1.01743,-2.62369 1.17919,-4.08868 0.2956,-1.06895 0.64561,-2.14208 0.5569,-3.26814 0,0 3.80003,-1.57402 3.80003,-1.57402 z"
         id="path1233"
         style="opacity:1;fill:#000000;fill-opacity:1;fill-rule:evenodd;stroke:#000000;stroke-width:1;stroke-miterlimit:4;stroke-dasharray:none;stroke-dashoffset:0;stroke-opacity:1" />
      <path
         inkscape:connector-curvature="0"
         d="m 233.38275,133.72844 c -2.50885,1.64775 -5.25182,2.65667 -8.20787,2.72112 -1.55225,-0.0463 -3.1051,-0.0729 -4.65729,-0.12089 -1.76655,-0.0848 -1.17301,0.24428 3.42033,-2.17812 0.12928,-0.0682 1.45824,0.0106 1.54925,0.0114 1.19912,0.0144 2.39826,-0.0153 3.59733,-0.008 0.61195,0.0657 1.2553,-0.0858 1.86407,0.001 0.1885,0.027 0.61171,0.20106 0.79478,0.27178 0.67259,0.25365 1.39706,0.37772 2.1112,0.45263 0.32117,0.0432 0.60864,0.0523 0.91498,-0.0439 0.52503,-0.15862 1.07728,-0.12927 1.61275,-0.21234 1.18808,-0.18431 4.1522,-1.76654 -2.9241,1.39938 0,0 3.94592,-1.14534 3.94592,-1.14534 v 0 c -1.35208,0.61886 -2.68891,1.2722 -4.05625,1.85657 -0.45552,0.19468 -1.52643,0.10021 -2.05846,0.31555 -0.33071,0.0186 -0.65202,-0.003 -0.97962,-0.062 -0.72582,-0.11775 -1.45315,-0.26744 -2.14137,-0.53105 -0.83989,-0.25708 -1.71408,-0.1377 -2.58207,-0.15915 -1.18794,0.005 -2.3759,-0.0276 -3.5639,-0.0111 -0.92069,0.0112 -0.53639,0.004 -1.30792,0.0216 -0.0952,0.002 -0.3626,0.0626 -0.28547,0.007 2.87995,-2.08271 2.01554,-2.23502 3.60304,-2.11794 1.53527,0.0905 3.07421,0.12824 4.61202,0.1108 0.76492,-0.0361 1.49476,-0.11502 2.24394,-0.28724 0.30087,-0.0692 1.16197,-0.39104 0.89603,-0.23425 -1.79761,1.0598 -4.19436,1.87266 -2.31056,1.21289 0,0 3.90924,-1.27019 3.90924,-1.27019 z"
         id="path1235"
         style="opacity:1;fill:#000000;fill-opacity:1;fill-rule:evenodd;stroke:#000000;stroke-width:1;stroke-miterlimit:4;stroke-dasharray:none;stroke-dashoffset:0;stroke-opacity:1" />
      <path
         inkscape:connector-curvature="0"
         d="m 230.34236,136.84972 c -1.3203,-0.45406 -2.69157,-0.67589 -4.07374,-0.82966 -0.45142,-0.0528 -0.90433,-0.0769 -1.35811,-0.094 0,0 3.50703,-2.12568 3.50703,-2.12568 v 0 c 0.45356,0.0269 0.9049,0.0645 1.35482,0.1311 1.41167,0.19033 2.81216,0.44589 4.16301,0.91178 0,0 -3.59301,2.00643 -3.59301,2.00643 z"
         id="path1237"
         style="opacity:1;fill:#000000;fill-opacity:1;fill-rule:evenodd;stroke:#000000;stroke-width:1;stroke-miterlimit:4;stroke-dasharray:none;stroke-dashoffset:0;stroke-opacity:1" />
      <path
         transform="scale(0.26458333)"
         inkscape:connector-curvature="0"
         id="path1239"
         d="m 795.87842,493.16581 c -9.39394,-5.06794 -11.84806,-6.96398 -9.93145,-7.67298 1.40011,-0.51794 4.91813,-2.55171 7.81783,-4.5195 2.8997,-1.96779 8.65457,-4.38225 12.78859,-5.36547 8.30037,-1.97412 34.38173,-13.73 41.1441,-18.54523 3.89488,-2.7734 5.80139,-3.02149 19.86781,-2.58529 8.55772,0.26537 15.9455,0.87015 16.41728,1.34395 1.0721,1.07671 -2.7051,17.63925 -5.60625,24.58268 -1.19001,2.84811 -2.16366,6.69928 -2.16366,8.55815 0,3.09694 -1.25359,3.69855 -14.97932,7.18875 -12.56788,3.19577 -18.02987,3.80391 -33.92857,3.77759 l -18.94925,-0.0314 z"
         style="opacity:1;fill:#000000;fill-opacity:1;fill-rule:evenodd;stroke:#000000;stroke-width:5.39932537;stroke-miterlimit:4;stroke-dasharray:none;stroke-dashoffset:0;stroke-opacity:1" />
      <path
         inkscape:connector-curvature="0"
         d="m 239.96063,119.0345 c 1.19437,0.62219 1.9338,1.68668 2.75036,2.71085 0.58581,0.68715 0.64939,1.62639 0.70328,2.48963 0.078,1.26651 -0.0148,2.51883 -0.2077,3.76952 -0.0557,0.2876 -0.11121,0.57523 -0.16704,0.8628 -0.17407,0.89648 -0.14397,0.93205 -0.4584,1.78462 -0.23915,0.64842 -0.567,1.2655 -0.83507,1.90237 -0.43495,0.96427 -0.39647,2.09066 -0.93755,3.00173 -0.5931,0.46141 -1.04892,1.05564 -1.53451,1.62157 -0.0359,0.0369 -0.0717,0.0739 -0.10754,0.1108 0,0 -3.95839,1.21114 -3.95839,1.21114 v 0 c 0.0447,-0.0197 0.0893,-0.0394 0.13398,-0.0591 0.37162,-0.27495 0.67475,-0.69493 0.96301,-1.05457 0.0964,-0.12031 0.16245,-0.26755 0.27785,-0.36982 0.0912,-0.0809 0.21745,-0.11033 0.32617,-0.1655 0.0985,-0.0699 0.22811,-0.10946 0.29542,-0.20973 0.0769,-0.11463 0.0761,-0.26543 0.11287,-0.39851 0.20906,-0.75755 0.33506,-1.53548 0.60458,-2.27324 0.35348,-0.91376 0.91446,-1.75925 1.17566,-2.70772 0.0825,-0.29961 0.11169,-0.61141 0.17021,-0.9166 0.0537,-0.28025 0.11106,-0.5598 0.16659,-0.8397 0.15823,-1.22427 0.30687,-2.44219 0.20116,-3.67989 -0.0395,-0.78777 -0.076,-1.62918 -0.59914,-2.26535 -0.76936,-1.02014 -1.50639,-2.01464 -2.6892,-2.59343 0,0 3.6134,-1.93188 3.6134,-1.93188 z"
         id="path1241"
         style="opacity:1;fill:#000000;fill-opacity:1;fill-rule:evenodd;stroke:#000000;stroke-width:1;stroke-miterlimit:4;stroke-dasharray:none;stroke-dashoffset:0;stroke-opacity:1" />
      <path
         inkscape:connector-curvature="0"
         d="m 235.74833,137.862 c -0.0411,0.11617 -0.0488,0.17265 -0.14408,0.2687 -0.0439,0.0443 -0.0944,0.0848 -0.15169,0.10952 -0.37329,0.16085 -0.74759,0.32298 -1.1353,0.44504 -0.045,0.0142 -0.40824,-0.0305 -0.46045,-0.0363 -0.0615,-0.01 -0.12526,-0.009 -0.18436,-0.0285 -0.18399,-0.0603 -0.35952,-0.21029 -0.50876,-0.32546 -0.14478,-0.11173 -0.2948,-0.21652 -0.44191,-0.32518 -0.35423,-0.235 -0.67754,-0.54543 -1.07736,-0.70602 -0.21736,-0.0873 -0.44648,-0.14188 -0.66906,-0.21485 -0.42138,-0.14215 -0.85358,-0.25119 -1.27207,-0.40198 -0.0104,-0.0252 -0.0566,-0.009 -0.0718,-0.0304 -0.21167,-0.29487 0.61528,-0.39181 0.94999,-0.53225 0.0409,-0.0171 0.0887,7.9e-4 0.133,0.003 0.0745,0.004 0.1489,0.0112 0.22334,0.0168 0.4038,0.0379 0.81496,0.0251 1.21627,0.0906 0.0664,0.0109 0.34818,0.0868 0.41695,0.10489 0.23607,0.0599 0.44907,0.18176 0.67065,0.27965 0.0767,0.0339 0.15634,0.0615 0.23061,0.10045 0.13534,0.0709 0.26049,0.15991 0.39319,0.23569 0.33668,0.18754 0.70943,0.3272 1.09224,0.37991 0.39094,0.032 0.78455,0.0442 1.1761,0.0191 0.082,-0.008 0.27973,-0.0203 0.36302,-0.0502 0.0481,-0.0173 0.18022,-0.096 0.13291,-0.0766 -1.12903,0.46281 -0.9443,0.47573 -0.55042,0.15531 0.34887,-0.21956 0.69908,-0.44137 1.01592,-0.70618 0,0 0.97562,-0.30994 0.97562,-0.30994 v 0 c -0.30415,0.27891 -0.66537,0.50253 -1.02057,0.70836 -0.48186,0.44282 -1.11804,0.78396 -1.77744,0.81312 -0.39735,0.0169 -0.79626,0.01 -1.19181,-0.0349 -0.38765,-0.0711 -0.76166,-0.22243 -1.1044,-0.41529 -0.12907,-0.0748 -0.25281,-0.15919 -0.38537,-0.22764 -0.28545,-0.14739 -0.5924,-0.26673 -0.89786,-0.36333 -0.10045,-0.0257 -0.30054,-0.0795 -0.40304,-0.0956 -0.40231,-0.063 -0.81233,-0.0582 -1.21761,-0.0834 -0.0766,-0.002 -0.15323,-0.006 -0.22988,-0.006 -0.0463,-7e-5 -0.17801,0.0302 -0.13888,0.005 0.27575,-0.17466 0.58468,-0.29232 0.86246,-0.46373 0.0577,-0.0356 -0.0977,-0.0752 0.0338,-0.0233 0.40395,0.1617 0.82415,0.27829 1.23643,0.41611 0.084,0.0264 0.58673,0.18066 0.68767,0.22412 0.39926,0.1719 0.71696,0.49266 1.08253,0.71953 0.12895,0.0911 0.32255,0.22675 0.45397,0.32354 0.20194,0.14873 0.40471,0.29087 0.66447,0.30408 0.0713,0.006 0.14246,0.0161 0.21403,0.0188 0.0778,0.003 0.29354,-0.0521 0.23359,-0.002 -0.20396,0.16912 -0.46613,0.25222 -0.6953,0.3852 -0.0303,0.0176 0.17028,-0.0354 0.26817,-0.18416 0.0226,-0.0344 0.0273,-0.0777 0.041,-0.11661 0,0 0.96153,-0.36728 0.96153,-0.36728 z"
         id="path1243"
         style="opacity:1;fill:#000000;fill-opacity:1;fill-rule:evenodd;stroke:#000000;stroke-width:1;stroke-miterlimit:4;stroke-dasharray:none;stroke-dashoffset:0;stroke-opacity:1" />
      <path
         inkscape:connector-curvature="0"
         d="m 239.80655,117.7138 c 0.26183,0.0885 0.53258,0.14978 0.76006,0.31674 0.0503,0.0369 0.0923,0.084 0.13851,0.12593 0.16595,0.16372 0.34557,0.33234 0.41653,0.5599 0.0163,0.1484 0.16067,0.21085 0.28563,0.26188 0.0133,0.0113 0.0303,0.0193 0.0398,0.034 0.0164,0.0255 0.0195,0.0581 0.0361,0.0834 0.0584,0.0891 0.18194,0.15551 0.26513,0.21909 0.0948,0.0889 0.12406,0.23711 0.22016,0.32427 0.024,0.0217 0.1051,0.0523 0.13246,0.0636 0.171,0.0256 0.18407,0.13423 0.2641,0.26074 0.0467,0.0133 0.0439,0.1272 0.0806,0.14133 0.0115,0.004 0.0228,-0.0114 0.0351,-0.0116 0.0216,-2.7e-4 0.0428,0.007 0.0641,0.0101 0.14704,0.006 0.17594,0.17304 0.24072,0.27446 0.0389,0.0608 0.12333,0.13541 0.17413,0.18396 0.17909,0.13037 0.24036,0.3521 0.35671,0.53146 0.01,0.0136 0.0228,0.0254 0.0294,0.0408 0.0243,0.0559 0.0203,0.12161 0.0452,0.17729 0.024,0.0536 0.075,0.0679 0.11102,0.11024 0.0275,0.0323 0.0477,0.0702 0.0715,0.10537 0.13984,0.18702 0.16228,0.41882 0.23312,0.63436 0.0655,0.17009 0.1595,0.32572 0.23748,0.49094 0.14003,0.31144 0.17729,0.64166 0.20377,0.97771 0.0314,0.23928 0.0193,0.47382 -0.0164,0.71113 -0.0475,0.193 -0.11001,0.38034 -0.2033,0.55604 -0.11615,0.18926 -0.17148,0.40414 -0.20963,0.62056 -0.0428,0.39254 -0.0212,0.78802 -0.0421,1.18182 -0.0704,0.58176 0.004,1.1809 -0.12682,1.75389 -0.17982,0.44785 -0.27094,0.92228 -0.42899,1.37685 -0.1444,0.36915 -0.17403,0.77427 -0.31429,1.14432 -0.0267,0.0704 -0.16435,0.33077 -0.19858,0.39669 -0.12162,0.3097 -0.319,0.57216 -0.49977,0.84831 0,0 -0.9588,0.33351 -0.9588,0.33351 v 0 c 0.0231,-0.0353 0.20493,-0.314 0.22574,-0.34276 0.0363,-0.0502 0.0843,-0.0921 0.11598,-0.1454 0.0661,-0.11112 0.0805,-0.24863 0.16458,-0.35129 0.0338,-0.0662 0.0658,-0.13338 0.10145,-0.19863 0.0339,-0.062 0.0786,-0.1183 0.107,-0.18302 0.15947,-0.36383 0.17868,-0.77515 0.31316,-1.14696 0.15335,-0.45345 0.25144,-0.9226 0.42735,-1.36846 0.0206,-0.0678 0.0492,-0.13362 0.0619,-0.2033 0.0233,-0.12788 0.0298,-0.45127 0.0348,-0.57019 0.0135,-0.32039 0.0306,-0.64065 0.0393,-0.96123 0.0179,-0.39543 0.0106,-0.79142 0.0199,-1.18714 0.0413,-0.22432 0.0884,-0.45436 0.20252,-0.65417 0.0172,-0.0292 0.0982,-0.16433 0.1119,-0.19899 0.0411,-0.10376 0.0439,-0.22359 0.10211,-0.32235 0.0377,-0.2308 0.0605,-0.45874 0.0339,-0.69308 -0.0217,-0.3228 -0.0587,-0.64205 -0.19292,-0.94073 -0.0823,-0.16859 -0.19005,-0.32359 -0.24884,-0.50162 -0.0631,-0.20683 -0.0848,-0.42757 -0.21648,-0.60665 -0.0636,-0.0839 -0.15995,-0.15735 -0.20465,-0.25379 -0.0198,-0.0427 -0.0123,-0.0946 -0.0312,-0.13771 -0.007,-0.0166 -0.0196,-0.0305 -0.0294,-0.0457 -0.10509,-0.1774 -0.166,-0.38508 -0.33855,-0.51294 -0.0719,-0.0724 -0.13506,-0.12937 -0.19263,-0.21511 -0.0624,-0.0929 -0.0725,-0.18248 -0.20275,-0.19102 -0.13758,-0.0436 -0.15354,-0.10061 -0.22003,-0.21077 -0.0785,-0.13497 -0.0702,-0.15765 -0.2337,-0.21026 -0.19724,-0.11094 -0.2276,-0.23775 -0.3614,-0.40613 -0.075,-0.0576 -0.15356,-0.11427 -0.21981,-0.18215 -0.0255,-0.0261 -0.0478,-0.0551 -0.0716,-0.0827 -0.005,-0.011 -0.006,-0.0241 -0.014,-0.0331 -0.007,-0.009 -0.0197,-0.0113 -0.0295,-0.0169 -0.13877,-0.074 -0.30045,-0.17145 -0.32063,-0.341 -0.0594,-0.20932 -0.23269,-0.36372 -0.38119,-0.51331 -0.26998,-0.22662 -0.55453,-0.30694 -0.8868,-0.40285 0,0 0.89179,-0.50776 0.89179,-0.50776 z"
         id="path1245"
         style="opacity:1;fill:#000000;fill-opacity:1;fill-rule:evenodd;stroke:#000000;stroke-width:1;stroke-miterlimit:4;stroke-dasharray:none;stroke-dashoffset:0;stroke-opacity:1" />
      <path
         inkscape:connector-curvature="0"
         d="m 207.30581,128.54837 c 0.56588,0.18516 1.14051,0.33913 1.7164,0.48935 0,0 -0.84561,0.48865 -0.84561,0.48865 v 0 c -0.58199,-0.15526 -1.16165,-0.3238 -1.7504,-0.45095 0,0 0.87961,-0.52705 0.87961,-0.52705 z"
         id="path1247"
         style="opacity:1;fill:#000000;fill-opacity:1;fill-rule:evenodd;stroke:#000000;stroke-width:1;stroke-miterlimit:4;stroke-dasharray:none;stroke-dashoffset:0;stroke-opacity:1" />
      <path
         inkscape:connector-curvature="0"
         d="m 239.91207,119.59399 c -0.42683,-0.34605 -0.90797,-0.61906 -1.38686,-0.88595 -0.13493,-0.0731 -0.0758,-0.0376 -0.17921,-0.10382 0,0 0.90812,-0.48609 0.90812,-0.48609 v 0 c 0.0936,0.0638 0.0389,0.0282 0.16583,0.10444 0.47199,0.28608 0.94494,0.57261 1.394,0.89395 0,0 -0.90188,0.47747 -0.90188,0.47747 z"
         id="path1249"
         style="opacity:1;fill:#000000;fill-opacity:1;fill-rule:evenodd;stroke:#000000;stroke-width:1;stroke-miterlimit:4;stroke-dasharray:none;stroke-dashoffset:0;stroke-opacity:1" />
      <path
         inkscape:connector-curvature="0"
         d="m 238.60878,123.39673 c 0.0612,0.58589 0.0412,1.17046 0.004,1.75681 -0.0214,0.99296 -0.42286,1.91502 -0.8272,2.80475 -0.37636,0.75313 -0.74845,1.51182 -0.99701,2.31791 -0.17873,0.68901 0.01,0.80725 -1.1077,0.89149 -0.0773,0.006 -0.005,-0.15499 -0.007,-0.23251 -0.002,-0.0885 -0.002,-0.17701 -0.004,-0.26551 -0.008,-0.5664 0.008,-1.13263 0.0103,-1.69906 0,0 0.91158,-0.37726 0.91158,-0.37726 v 0 c -10e-4,0.56308 0.007,1.12599 0.008,1.68903 0.002,0.0869 0.003,0.17393 0.007,0.2608 0.003,0.0698 0.0711,0.16734 0.0151,0.20904 -1.66937,1.24191 -0.99221,0.71882 -0.89141,0.37532 0.0481,-0.16387 0.0683,-0.33519 0.12444,-0.49701 0.25032,-0.81305 0.63114,-1.57514 1.00812,-2.33593 0.40695,-0.87748 0.82028,-1.78272 0.8342,-2.76831 0.032,-0.57556 0.0489,-1.15151 -0.0336,-1.72431 0,0 0.94496,-0.40525 0.94496,-0.40525 z"
         id="path1251"
         style="opacity:1;fill:#000000;fill-opacity:1;fill-rule:evenodd;stroke:#000000;stroke-width:1;stroke-miterlimit:4;stroke-dasharray:none;stroke-dashoffset:0;stroke-opacity:1" />
      <path
         transform="scale(0.26458333)"
         inkscape:connector-curvature="0"
         id="path1253"
         d="m 895.61016,505.15883 c 0.11516,-0.46369 0.31407,-2.77165 0.44201,-5.12879 0.30041,-5.53467 0.83157,-7.56947 3.44942,-13.21429 2.29084,-4.9397 2.93834,-6.54151 3.6814,-9.10714 l 0.46546,-1.60714 0.0319,3.22365 c 0.0363,3.66807 -0.38413,7.53081 -1.4374,13.20492 -0.56744,3.05688 -1.17055,4.87951 -2.71814,8.21429 -2.24616,4.84007 -2.12248,4.6511 -3.27187,4.99936 -0.76134,0.23068 -0.82988,0.16833 -0.64281,-0.58486 z"
         style="opacity:1;fill:#000000;fill-opacity:1;fill-rule:evenodd;stroke:#000000;stroke-width:1.34983134;stroke-miterlimit:4;stroke-dasharray:none;stroke-dashoffset:0;stroke-opacity:1" />
      <path
         transform="scale(0.26458333)"
         inkscape:connector-curvature="0"
         id="path1255"
         d="m 512.35309,529.10477 -1.18066,-1.80529 7.92348,-7.74186 c 4.35791,-4.25803 8.06331,-7.79544 8.23423,-7.86091 0.17091,-0.0655 0.31075,0.21577 0.31075,0.625 0,0.40922 0.077,0.74404 0.17113,0.74404 0.0941,0 1.8218,-0.47387 3.83928,-1.05306 4.87177,-1.3986 9.61371,-2.33139 16.46123,-3.2381 3.10761,-0.41149 7.08529,-1.1411 8.83928,-1.62136 1.75399,-0.48025 4.64324,-1.27094 6.42054,-1.75707 7.49735,-2.05069 18.65235,-2.4904 56.23283,-2.21656 28.22481,0.20566 40.63074,-0.0137 47.14686,-0.83368 1.76565,-0.22218 8.59421,-0.54721 15.17456,-0.72227 12.88398,-0.34277 12.66974,-0.31606 23.75,-2.96136 8.70599,-2.07848 15.95794,-3.51905 23.57143,-4.68241 3.33929,-0.51024 8.24107,-1.26097 10.89286,-1.66829 2.65179,-0.40731 9.84273,-1.76665 15.97987,-3.02075 6.13715,-1.2541 12.12972,-2.4366 13.31682,-2.62778 1.96977,-0.31722 2.3382,-0.52858 4.21648,-2.41888 1.13197,-1.1392 3.22699,-2.7945 4.65559,-3.67843 1.42861,-0.88392 3.7921,-2.36791 5.25219,-3.29774 4.73483,-3.01528 8.27788,-4.89522 15.4399,-8.1924 6.61903,-3.0472 7.31516,-3.28686 11.85344,-4.08086 2.65178,-0.46395 5.85219,-1.16135 7.11201,-1.5498 1.25983,-0.38844 2.41138,-0.6316 2.559,-0.54036 0.14763,0.0912 1.76865,-0.53314 3.60227,-1.38749 3.77774,-1.7602 10.66748,-6.26615 14.44029,-9.44408 2.09555,-1.76514 3.92196,-2.77738 10.53571,-5.83914 l 8.00072,-3.70384 h 19.10714 19.10714 l 3.51397,0.98214 c 4.26996,1.19344 4.42817,1.19675 6.30257,0.13207 l 1.49657,-0.85008 1.66489,0.9041 c 1.63218,0.88635 4.34343,3.19314 4.34343,3.69549 0,0.13996 1.15111,1.35288 2.558,2.69538 3.98661,3.80412 4.55004,4.44352 5.84546,6.63348 3.49208,5.90354 4.66104,11.88845 3.0244,15.48453 -0.67293,1.47853 -0.83854,2.67288 -1.06286,7.66436 -0.14618,3.25209 -0.42554,6.2253 -0.62086,6.60714 -0.19532,0.38184 -0.87828,2.62282 -1.51768,4.97996 -1.52532,5.62321 -3.01157,8.45126 -5.48107,10.42953 -0.29493,0.23624 -0.89182,2.00409 -1.32646,3.92857 -1.29693,5.74236 -1.67904,6.462 -5.71447,10.76231 l -3.66203,3.90243 -7.25761,2.20379 c -3.99168,1.21209 -7.46461,2.16249 -7.71764,2.11202 -0.25304,-0.0505 -1.31486,0.19874 -2.35961,0.5538 -2.95614,1.00464 -4.36036,0.62489 -8.46186,-2.28835 -3.89614,-2.76737 -4.32889,-2.94499 -9.10285,-3.73607 -1.86607,-0.30923 -4.82384,-0.97967 -6.57281,-1.48988 -2.89404,-0.84425 -3.55232,-0.90847 -7.32143,-0.71425 -2.27781,0.11737 -16.59683,0.0796 -31.82005,-0.084 -30.69351,-0.32981 -28.86793,-0.17953 -34.10655,-2.80753 -1.37532,-0.68994 -5.87454,-3.26921 -9.99825,-5.7317 -7.89293,-4.71329 -9.57091,-5.47693 -13.5619,-6.17193 -3.57271,-0.62217 -6.46712,-0.27898 -19.47616,2.30926 -13.74404,2.73447 -18.01546,3.49923 -25.17857,4.508 -6.19989,0.87311 -20.10165,3.58625 -29.05498,5.67051 -7.40531,1.7239 -10.07189,2.01998 -24.51645,2.72215 -6.08928,0.29601 -12.35714,0.71273 -13.92857,0.92604 -1.81598,0.24651 -18.86503,0.49494 -46.78571,0.68173 -24.16072,0.16164 -44.41072,0.38071 -45,0.48681 -0.58929,0.10611 -2.4375,0.36976 -4.10714,0.58591 -1.66965,0.21614 -5.76786,1.10268 -9.10715,1.9701 -3.33928,0.86741 -8.87547,1.98474 -12.30264,2.48294 -9.91656,1.44158 -17.60039,3.40046 -21.87956,5.57787 -0.72878,0.37084 -1.37164,0.67136 -1.42857,0.66783 -0.0569,-0.004 -0.63481,-0.8188 -1.28417,-1.81171 z m 381.04473,-12.85209 c 0.94175,-0.60433 1.78682,-1.36773 1.87793,-1.69643 0.0911,-0.3287 0.27057,-0.96246 0.39885,-1.40835 l 0.23325,-0.81072 -1.90135,0.86015 c -7.01072,3.1716 -7.65322,3.53622 -6.72275,3.81522 2.1546,0.64605 4.34793,0.37346 6.11407,-0.75987 z M 904.064,475.2979 c -0.004,-0.54018 -0.16125,-1.22322 -0.35168,-1.51786 -0.25354,-0.39233 -0.34768,-0.12945 -0.35168,0.98214 -0.004,0.83482 0.15525,1.51786 0.35168,1.51786 0.19643,0 0.35468,-0.44196 0.35168,-0.98214 z"
         style="opacity:1;fill:#000000;fill-opacity:1;fill-rule:evenodd;stroke:#000000;stroke-width:1.34983134;stroke-miterlimit:4;stroke-dasharray:none;stroke-dashoffset:0;stroke-opacity:1" />
      <path
         transform="scale(0.26458333)"
         inkscape:connector-curvature="0"
         id="path1257"
         d="m 891.51501,515.36127 c 1.44326,-0.70041 2.70355,-1.19404 2.80063,-1.09696 0.35952,0.35952 -2.61583,1.9745 -3.99618,2.16906 -1.30723,0.18426 -1.20569,0.0932 1.19555,-1.0721 z"
         style="opacity:1;fill:#000000;fill-opacity:1;fill-rule:evenodd;stroke:#000000;stroke-width:1.34983134;stroke-miterlimit:4;stroke-dasharray:none;stroke-dashoffset:0;stroke-opacity:1" />
    </g>
  </g>
</svg>
